<svg width="81" height="80" viewBox="0 0 81 80" fill="none" xmlns="http://www.w3.org/2000/svg">
<g clip-path="url(#clip0_12_13)">
<path d="M40.7501 15.3506C42.4616 15.3506 44.1224 15.5675 45.7065 15.975V10.8445C45.7065 8.10718 43.4874 5.88812 40.7501 5.88812C38.0127 5.88812 35.7937 8.10718 35.7937 10.8445V15.975C37.3777 15.5675 39.0385 15.3506 40.7501 15.3506Z" fill="#131C2B"/>
<path d="M65.9385 63.4051H15.5614L20.92 49.3209H60.5802L65.9385 63.4051Z" fill="#131C2B"/>
<path d="M40.7494 74.113C43.7051 74.113 46.1011 71.7169 46.1011 68.7613C46.1011 65.8056 43.7051 63.4095 40.7494 63.4095C37.7938 63.4095 35.3977 65.8056 35.3977 68.7613C35.3977 71.7169 37.7938 74.113 40.7494 74.113Z" fill="#131C2B"/>
<path d="M67.8713 62.5241L62.5613 48.5671C62.2482 47.7448 61.4602 47.2013 60.5802 47.2013H23.0357V35.1842C23.0357 26.6472 29.1062 19.5019 37.1571 17.837C37.1745 17.8334 37.1917 17.8298 37.209 17.8264C37.477 17.7717 37.7471 17.7236 38.0195 17.6812C38.0657 17.6742 38.1118 17.6686 38.1581 17.6617C38.3624 17.6316 38.5682 17.6062 38.7746 17.5831C38.8613 17.5736 38.9477 17.563 39.0345 17.5547C39.2531 17.5337 39.4727 17.5173 39.6937 17.5045C39.8109 17.4978 39.9284 17.4927 40.0457 17.4883C40.1945 17.4823 40.344 17.4792 40.4938 17.4769C40.6645 17.4745 40.8349 17.4745 41.0055 17.4769C41.1554 17.4791 41.3048 17.4823 41.4537 17.4883C41.571 17.493 41.6885 17.4978 41.8057 17.5045C42.0265 17.5177 42.2463 17.5337 42.4649 17.5547C42.5516 17.563 42.638 17.5736 42.7248 17.5831C42.9312 17.6062 43.1369 17.6317 43.3413 17.6617C43.3876 17.6684 43.4337 17.6742 43.4799 17.6812C43.7521 17.7236 44.0223 17.7717 44.2904 17.8264C44.3077 17.8298 44.3249 17.8336 44.3423 17.837C52.3932 19.5022 58.4636 26.6472 58.4636 35.1842V40.9914C58.4636 42.162 59.4127 43.1109 60.5832 43.1109C61.7536 43.1109 62.7027 42.162 62.7027 40.9914V35.1842C62.7027 25.554 56.4694 17.3525 47.8257 14.4016V10.8445C47.8257 6.94298 44.6513 3.76862 40.7498 3.76862C36.8482 3.76862 33.6738 6.94298 33.6738 10.8445V14.4016C25.0301 17.3525 18.7968 25.554 18.7968 35.1842V48.9398L13.5803 62.6513C13.3325 63.3026 13.4208 64.0343 13.8164 64.608C14.2118 65.1818 14.8642 65.5244 15.5612 65.5244H34.0168C33.5442 66.5041 33.279 67.6019 33.279 68.7605C33.279 72.88 36.6306 76.2314 40.7499 76.2314C44.8693 76.2314 48.2208 72.88 48.2208 68.7607C48.2208 67.6021 47.9557 66.5043 47.483 65.5246H65.9386C65.9403 65.5246 65.9421 65.5246 65.9428 65.5246C67.1135 65.5246 68.0624 64.5757 68.0624 63.4051C68.0622 63.0907 67.9939 62.7926 67.8713 62.5241ZM37.9131 13.4134V10.8445C37.9131 9.28032 39.1856 8.00751 40.7501 8.00751C42.3145 8.00751 43.5871 9.28001 43.5871 10.8445V13.4134C43.5769 13.4122 43.5669 13.4113 43.5568 13.41C43.3499 13.3834 43.142 13.3605 42.9335 13.3397C42.8695 13.3333 42.8051 13.3283 42.741 13.3225C42.5876 13.3088 42.4335 13.2959 42.2791 13.2855C42.2059 13.2803 42.1324 13.2758 42.0591 13.2714C41.9059 13.2623 41.7523 13.2552 41.5982 13.2492C41.5327 13.2467 41.4673 13.2438 41.4015 13.2419C41.1851 13.2355 40.9681 13.2316 40.7502 13.2316C40.5324 13.2316 40.3152 13.2356 40.099 13.2419C40.0332 13.2438 39.9677 13.247 39.9023 13.2492C39.7482 13.2552 39.5945 13.2623 39.4413 13.2714C39.3681 13.2756 39.2946 13.2803 39.2213 13.2855C39.0668 13.2961 38.9129 13.3088 38.7595 13.3225C38.6952 13.3283 38.631 13.3333 38.567 13.3397C38.3584 13.3605 38.1506 13.3836 37.9437 13.41C37.9332 13.4113 37.9231 13.4122 37.9131 13.4134ZM40.7501 71.9925C38.9681 71.9925 37.5182 70.5429 37.5182 68.7607C37.5182 66.9786 38.9679 65.5288 40.7501 65.5288C42.5323 65.5288 43.9819 66.9785 43.9819 68.7607C43.9818 70.5427 42.5321 71.9925 40.7501 71.9925ZM18.6354 61.2855L22.3811 51.4402H59.1189L62.8646 61.2855H18.6354Z" fill="#69B4FF"/>
<path d="M67.8694 48.1013C67.2231 48.1013 66.5852 47.8069 66.1691 47.2493C65.4691 46.311 65.6619 44.983 66.6002 44.283C67.9669 43.2632 68.7506 41.7021 68.7506 40.0001C68.7506 38.2981 67.9669 36.7368 66.6002 35.7171C65.6619 35.0171 65.4689 33.6892 66.1691 32.7509C66.8691 31.8128 68.1972 31.6195 69.1353 32.3198C71.5487 34.1207 72.9898 36.9918 72.9898 40.0001C72.9898 43.0084 71.5487 45.8796 69.1353 47.6804C68.7548 47.9641 68.3102 48.1013 67.8694 48.1013Z" fill="#69B4FF"/>
<path d="M73.6267 53.0252C73.0308 53.0252 72.4388 52.7755 72.0195 52.2885C71.2556 51.4013 71.3556 50.063 72.243 49.2993C74.9553 46.9643 76.5111 43.5748 76.5111 39.9999C76.5111 36.4251 74.9553 33.0359 72.243 30.7006C71.3558 29.9367 71.2559 28.5987 72.0195 27.7114C72.7834 26.8243 74.1212 26.7243 75.0087 27.4879C78.6575 30.6293 80.7501 35.1896 80.7501 39.9998C80.7501 44.8099 78.6575 49.3704 75.0087 52.5116C74.6086 52.8565 74.1162 53.0252 73.6267 53.0252Z" fill="#69B4FF"/>
<path d="M13.6304 48.1014C13.1897 48.1014 12.745 47.9645 12.3645 47.6804C9.95107 45.8795 8.50998 43.0084 8.50998 40.0001C8.50998 36.9919 9.95107 34.1206 12.3645 32.3198C13.3026 31.6198 14.6304 31.8128 15.3307 32.7509C16.0307 33.6892 15.8379 35.0172 14.8997 35.7172C13.5329 36.737 12.7492 38.2981 12.7492 40.0001C12.7492 41.7022 13.5329 43.2634 14.8997 44.2831C15.8379 44.9831 16.0309 46.3111 15.3307 47.2493C14.915 47.807 14.2767 48.1014 13.6304 48.1014Z" fill="#69B4FF"/>
<path d="M7.87311 53.0252C7.38327 53.0252 6.89155 52.8565 6.49124 52.5121C2.84265 49.3707 0.75 44.8101 0.75 40.0001C0.75 35.1901 2.84265 30.6295 6.49139 27.4882C7.37858 26.7243 8.71702 26.8248 9.48061 27.7117C10.2445 28.5989 10.1445 29.9371 9.25717 30.7009C6.54468 33.0359 4.98905 36.4254 4.98905 40.0001C4.98905 43.5749 6.54483 46.9641 9.25717 49.2995C10.1444 50.0634 10.2442 51.4013 9.48061 52.2887C9.06123 52.7752 8.46889 53.0252 7.87311 53.0252Z" fill="#69B4FF"/>
</g>
<defs>
<clipPath id="clip0_12_13">
<rect width="80" height="80" fill="white" transform="translate(0.75)"/>
</clipPath>
</defs>
</svg>
