<svg width="81" height="80" viewBox="0 0 81 80" fill="none" xmlns="http://www.w3.org/2000/svg">
<path d="M69 3.125H11.5C10.465 3.125 9.625 3.965 9.625 5V62.5C9.625 63.535 10.465 64.375 11.5 64.375H27.48L23.51 74.3025C23.425 74.51 23.375 74.7475 23.375 75C23.375 76.035 24.215 76.875 25.25 76.8775H55.25C56.2875 76.875 57.125 76.035 57.125 74.9975C57.125 74.7475 57.075 74.51 56.9875 74.29L56.9925 74.3025L53.0225 64.375H69C70.035 64.375 70.875 63.535 70.875 62.5V5C70.875 3.965 70.035 3.125 69 3.125ZM52.4825 73.125H28.02L31.5225 64.375H48.98L52.4825 73.125ZM67.125 60.625H13.375V6.875H67.125V60.625ZM40.25 49.375C48.88 49.375 55.875 42.3775 55.875 33.75C55.875 25.1225 48.88 18.125 40.25 18.125C31.62 18.125 24.625 25.12 24.625 33.75C24.625 33.75 24.625 33.75 24.625 33.7525C24.635 42.3775 31.6275 49.3675 40.2525 49.3775L40.25 49.375ZM40.25 21.8725C46.8075 21.8725 52.125 27.19 52.125 33.75C52.125 40.31 46.8075 45.625 40.25 45.625C33.6925 45.625 28.375 40.3075 28.375 33.75C28.3825 27.1925 33.6925 21.88 40.25 21.8725Z" fill="#69B4FF"/>
</svg>
