<svg width="81" height="80" viewBox="0 0 81 80" fill="none" xmlns="http://www.w3.org/2000/svg">
<path d="M23.5833 64.6667V15.3334C23.5833 14.2288 24.4787 13.3334 25.5833 13.3334H54.9166C56.0213 13.3334 56.9166 14.2288 56.9166 15.3334V64.6667C56.9166 65.7714 56.0213 66.6667 54.9166 66.6667H25.5833C24.4787 66.6667 23.5833 65.7714 23.5833 64.6667Z" stroke="#69B4FF" stroke-width="3" stroke-linecap="round" stroke-linejoin="round"/>
<path d="M46.9167 66.6666V75" stroke="#69B4FF" stroke-width="3" stroke-linecap="round" stroke-linejoin="round"/>
<path d="M33.5833 66.6666V75" stroke="#69B4FF" stroke-width="3" stroke-linecap="round" stroke-linejoin="round"/>
<path d="M46.9167 13.3333V5" stroke="#69B4FF" stroke-width="3" stroke-linecap="round" stroke-linejoin="round"/>
<path d="M33.5833 13.3333V5" stroke="#69B4FF" stroke-width="3" stroke-linecap="round" stroke-linejoin="round"/>
<path d="M23.5833 40H15.25" stroke="#69B4FF" stroke-width="3" stroke-linecap="round" stroke-linejoin="round"/>
<path d="M65.25 40H56.9167" stroke="#69B4FF" stroke-width="3" stroke-linecap="round" stroke-linejoin="round"/>
<path d="M23.5833 21.6666H15.25" stroke="#69B4FF" stroke-width="3" stroke-linecap="round" stroke-linejoin="round"/>
<path d="M65.25 21.6666H56.9167" stroke="#69B4FF" stroke-width="3" stroke-linecap="round" stroke-linejoin="round"/>
<path d="M23.5833 58.3334H15.25" stroke="#69B4FF" stroke-width="3" stroke-linecap="round" stroke-linejoin="round"/>
<path d="M65.25 58.3334H56.9167" stroke="#69B4FF" stroke-width="3" stroke-linecap="round" stroke-linejoin="round"/>
</svg>
