<svg width="1280" height="389" viewBox="0 0 1280 389" fill="none" xmlns="http://www.w3.org/2000/svg">
<g style="mix-blend-mode:overlay">
<path d="M29.0909 0H0V20.4406M29.0909 0V20.4406M29.0909 0H58.1818M29.0909 20.4406H0M29.0909 20.4406V40.8812M29.0909 20.4406H58.1818M0 20.4406V40.8812M29.0909 40.8812H0M29.0909 40.8812V61.3218M29.0909 40.8812H58.1818M0 40.8812V61.3218M29.0909 61.3218H0M29.0909 61.3218V81.7624M29.0909 61.3218H58.1818M0 61.3218V81.7624M29.0909 81.7624H0M29.0909 81.7624V102.203M29.0909 81.7624H58.1818M0 81.7624V102.203M29.0909 102.203H0M29.0909 102.203V122.644M29.0909 102.203H58.1818M0 102.203V122.644M29.0909 122.644H0M29.0909 122.644V143.084M29.0909 122.644H58.1818M0 122.644V143.084M29.0909 143.084H0M29.0909 143.084V163.525M29.0909 143.084H58.1818M0 143.084V163.525M29.0909 163.525H0M29.0909 163.525V183.965M29.0909 163.525H58.1818M0 163.525V183.965M29.0909 183.965H0M29.0909 183.965V204.406M29.0909 183.965H58.1818M0 183.965V204.406M29.0909 204.406H0M29.0909 204.406V224.847M29.0909 204.406H58.1818M0 204.406V224.847M29.0909 224.847H0M29.0909 224.847V245.287M29.0909 224.847H58.1818M0 224.847V245.287M29.0909 245.287H0M29.0909 245.287V265.728M29.0909 245.287H58.1818M0 245.287V265.728M29.0909 265.728H0M29.0909 265.728V286.168M29.0909 265.728H58.1818M0 265.728V286.168M29.0909 286.168H0M29.0909 286.168V306.609M29.0909 286.168H58.1818M0 286.168V306.609M29.0909 306.609H0M29.0909 306.609V327.05M29.0909 306.609H58.1818M0 306.609V327.05M29.0909 327.05H0M29.0909 327.05V347.49M29.0909 327.05H58.1818M0 327.05V347.49M29.0909 347.49H0M29.0909 347.49V367.931M29.0909 347.49H58.1818M0 347.49V367.931M29.0909 367.931H0M29.0909 367.931V388.371M29.0909 367.931H58.1818M0 367.931V388.371H29.0909M29.0909 388.371H58.1818M58.1818 0V20.4406M58.1818 0H87.2727M58.1818 20.4406V40.8812M58.1818 20.4406H87.2727M58.1818 40.8812V61.3218M58.1818 40.8812H87.2727M58.1818 61.3218V81.7624M58.1818 61.3218H87.2727M58.1818 81.7624V102.203M58.1818 81.7624H87.2727M58.1818 102.203V122.644M58.1818 102.203H87.2727M58.1818 122.644V143.084M58.1818 122.644H87.2727M58.1818 143.084V163.525M58.1818 143.084H87.2727M58.1818 163.525V183.965M58.1818 163.525H87.2727M58.1818 183.965V204.406M58.1818 183.965H87.2727M58.1818 204.406V224.847M58.1818 204.406H87.2727M58.1818 224.847V245.287M58.1818 224.847H87.2727M58.1818 245.287V265.728M58.1818 245.287H87.2727M58.1818 265.728V286.168M58.1818 265.728H87.2727M58.1818 286.168V306.609M58.1818 286.168H87.2727M58.1818 306.609V327.05M58.1818 306.609H87.2727M58.1818 327.05V347.49M58.1818 327.05H87.2727M58.1818 347.49V367.931M58.1818 347.49H87.2727M58.1818 367.931V388.371M58.1818 367.931H87.2727M58.1818 388.371H87.2727M87.2727 0V20.4406M87.2727 0H116.364M87.2727 20.4406V40.8812M87.2727 20.4406H116.364M87.2727 40.8812V61.3218M87.2727 40.8812H116.364M87.2727 61.3218V81.7624M87.2727 61.3218H116.364M87.2727 81.7624V102.203M87.2727 81.7624H116.364M87.2727 102.203V122.644M87.2727 102.203H116.364M87.2727 122.644V143.084M87.2727 122.644H116.364M87.2727 143.084V163.525M87.2727 143.084H116.364M87.2727 163.525V183.965M87.2727 163.525H116.364M87.2727 183.965V204.406M87.2727 183.965H116.364M87.2727 204.406V224.847M87.2727 204.406H116.364M87.2727 224.847V245.287M87.2727 224.847H116.364M87.2727 245.287V265.728M87.2727 245.287H116.364M87.2727 265.728V286.168M87.2727 265.728H116.364M87.2727 286.168V306.609M87.2727 286.168H116.364M87.2727 306.609V327.05M87.2727 306.609H116.364M87.2727 327.05V347.49M87.2727 327.05H116.364M87.2727 347.49V367.931M87.2727 347.49H116.364M87.2727 367.931V388.371M87.2727 367.931H116.364M87.2727 388.371H116.364M116.364 0V20.4406M116.364 0H145.455M116.364 20.4406V40.8812M116.364 20.4406H145.455M116.364 40.8812V61.3218M116.364 40.8812H145.455M116.364 61.3218V81.7624M116.364 61.3218H145.455M116.364 81.7624V102.203M116.364 81.7624H145.455M116.364 102.203V122.644M116.364 102.203H145.455M116.364 122.644V143.084M116.364 122.644H145.455M116.364 143.084V163.525M116.364 143.084H145.455M116.364 163.525V183.965M116.364 163.525H145.455M116.364 183.965V204.406M116.364 183.965H145.455M116.364 204.406V224.847M116.364 204.406H145.455M116.364 224.847V245.287M116.364 224.847H145.455M116.364 245.287V265.728M116.364 245.287H145.455M116.364 265.728V286.168M116.364 265.728H145.455M116.364 286.168V306.609M116.364 286.168H145.455M116.364 306.609V327.05M116.364 306.609H145.455M116.364 327.05V347.49M116.364 327.05H145.455M116.364 347.49V367.931M116.364 347.49H145.455M116.364 367.931V388.371M116.364 367.931H145.455M116.364 388.371H145.455M145.455 0V20.4406M145.455 0H174.545M145.455 20.4406V40.8812M145.455 20.4406H174.545M145.455 40.8812V61.3218M145.455 40.8812H174.545M145.455 61.3218V81.7624M145.455 61.3218H174.545M145.455 81.7624V102.203M145.455 81.7624H174.545M145.455 102.203V122.644M145.455 102.203H174.545M145.455 122.644V143.084M145.455 122.644H174.545M145.455 143.084V163.525M145.455 143.084H174.545M145.455 163.525V183.965M145.455 163.525H174.545M145.455 183.965V204.406M145.455 183.965H174.545M145.455 204.406V224.847M145.455 204.406H174.545M145.455 224.847V245.287M145.455 224.847H174.545M145.455 245.287V265.728M145.455 245.287H174.545M145.455 265.728V286.168M145.455 265.728H174.545M145.455 286.168V306.609M145.455 286.168H174.545M145.455 306.609V327.05M145.455 306.609H174.545M145.455 327.05V347.49M145.455 327.05H174.545M145.455 347.49V367.931M145.455 347.49H174.545M145.455 367.931V388.371M145.455 367.931H174.545M145.455 388.371H174.545M174.545 0V20.4406M174.545 0H203.636M174.545 20.4406V40.8812M174.545 20.4406H203.636M174.545 40.8812V61.3218M174.545 40.8812H203.636M174.545 61.3218V81.7624M174.545 61.3218H203.636M174.545 81.7624V102.203M174.545 81.7624H203.636M174.545 102.203V122.644M174.545 102.203H203.636M174.545 122.644V143.084M174.545 122.644H203.636M174.545 143.084V163.525M174.545 143.084H203.636M174.545 163.525V183.965M174.545 163.525H203.636M174.545 183.965V204.406M174.545 183.965H203.636M174.545 204.406V224.847M174.545 204.406H203.636M174.545 224.847V245.287M174.545 224.847H203.636M174.545 245.287V265.728M174.545 245.287H203.636M174.545 265.728V286.168M174.545 265.728H203.636M174.545 286.168V306.609M174.545 286.168H203.636M174.545 306.609V327.05M174.545 306.609H203.636M174.545 327.05V347.49M174.545 327.05H203.636M174.545 347.49V367.931M174.545 347.49H203.636M174.545 367.931V388.371M174.545 367.931H203.636M174.545 388.371H203.636M203.636 0V20.4406M203.636 0H232.727M203.636 20.4406V40.8812M203.636 20.4406H232.727M203.636 40.8812V61.3218M203.636 40.8812H232.727M203.636 61.3218V81.7624M203.636 61.3218H232.727M203.636 81.7624V102.203M203.636 81.7624H232.727M203.636 102.203V122.644M203.636 102.203H232.727M203.636 122.644V143.084M203.636 122.644H232.727M203.636 143.084V163.525M203.636 143.084H232.727M203.636 163.525V183.965M203.636 163.525H232.727M203.636 183.965V204.406M203.636 183.965H232.727M203.636 204.406V224.847M203.636 204.406H232.727M203.636 224.847V245.287M203.636 224.847H232.727M203.636 245.287V265.728M203.636 245.287H232.727M203.636 265.728V286.168M203.636 265.728H232.727M203.636 286.168V306.609M203.636 286.168H232.727M203.636 306.609V327.05M203.636 306.609H232.727M203.636 327.05V347.49M203.636 327.05H232.727M203.636 347.49V367.931M203.636 347.49H232.727M203.636 367.931V388.371M203.636 367.931H232.727M203.636 388.371H232.727M232.727 0V20.4406M232.727 0H261.818M232.727 20.4406V40.8812M232.727 20.4406H261.818M232.727 40.8812V61.3218M232.727 40.8812H261.818M232.727 61.3218V81.7624M232.727 61.3218H261.818M232.727 81.7624V102.203M232.727 81.7624H261.818M232.727 102.203V122.644M232.727 102.203H261.818M232.727 122.644V143.084M232.727 122.644H261.818M232.727 143.084V163.525M232.727 143.084H261.818M232.727 163.525V183.965M232.727 163.525H261.818M232.727 183.965V204.406M232.727 183.965H261.818M232.727 204.406V224.847M232.727 204.406H261.818M232.727 224.847V245.287M232.727 224.847H261.818M232.727 245.287V265.728M232.727 245.287H261.818M232.727 265.728V286.168M232.727 265.728H261.818M232.727 286.168V306.609M232.727 286.168H261.818M232.727 306.609V327.05M232.727 306.609H261.818M232.727 327.05V347.49M232.727 327.05H261.818M232.727 347.49V367.931M232.727 347.49H261.818M232.727 367.931V388.371M232.727 367.931H261.818M232.727 388.371H261.818M261.818 0V20.4406M261.818 0H290.909M261.818 20.4406V40.8812M261.818 20.4406H290.909M261.818 40.8812V61.3218M261.818 40.8812H290.909M261.818 61.3218V81.7624M261.818 61.3218H290.909M261.818 81.7624V102.203M261.818 81.7624H290.909M261.818 102.203V122.644M261.818 102.203H290.909M261.818 122.644V143.084M261.818 122.644H290.909M261.818 143.084V163.525M261.818 143.084H290.909M261.818 163.525V183.965M261.818 163.525H290.909M261.818 183.965V204.406M261.818 183.965H290.909M261.818 204.406V224.847M261.818 204.406H290.909M261.818 224.847V245.287M261.818 224.847H290.909M261.818 245.287V265.728M261.818 245.287H290.909M261.818 265.728V286.168M261.818 265.728H290.909M261.818 286.168V306.609M261.818 286.168H290.909M261.818 306.609V327.05M261.818 306.609H290.909M261.818 327.05V347.49M261.818 327.05H290.909M261.818 347.49V367.931M261.818 347.49H290.909M261.818 367.931V388.371M261.818 367.931H290.909M261.818 388.371H290.909M290.909 0V20.4406M290.909 0H320M290.909 20.4406V40.8812M290.909 20.4406H320M290.909 40.8812V61.3218M290.909 40.8812H320M290.909 61.3218V81.7624M290.909 61.3218H320M290.909 81.7624V102.203M290.909 81.7624H320M290.909 102.203V122.644M290.909 102.203H320M290.909 122.644V143.084M290.909 122.644H320M290.909 143.084V163.525M290.909 143.084H320M290.909 163.525V183.965M290.909 163.525H320M290.909 183.965V204.406M290.909 183.965H320M290.909 204.406V224.847M290.909 204.406H320M290.909 224.847V245.287M290.909 224.847H320M290.909 245.287V265.728M290.909 245.287H320M290.909 265.728V286.168M290.909 265.728H320M290.909 286.168V306.609M290.909 286.168H320M290.909 306.609V327.05M290.909 306.609H320M290.909 327.05V347.49M290.909 327.05H320M290.909 347.49V367.931M290.909 347.49H320M290.909 367.931V388.371M290.909 367.931H320M290.909 388.371H320M320 0V20.4406M320 0H349.091M320 20.4406V40.8812M320 20.4406H349.091M320 40.8812V61.3218M320 40.8812H349.091M320 61.3218V81.7624M320 61.3218H349.091M320 81.7624V102.203M320 81.7624H349.091M320 102.203V122.644M320 102.203H349.091M320 122.644V143.084M320 122.644H349.091M320 143.084V163.525M320 143.084H349.091M320 163.525V183.965M320 163.525H349.091M320 183.965V204.406M320 183.965H349.091M320 204.406V224.847M320 204.406H349.091M320 224.847V245.287M320 224.847H349.091M320 245.287V265.728M320 245.287H349.091M320 265.728V286.168M320 265.728H349.091M320 286.168V306.609M320 286.168H349.091M320 306.609V327.05M320 306.609H349.091M320 327.05V347.49M320 327.05H349.091M320 347.49V367.931M320 347.49H349.091M320 367.931V388.371M320 367.931H349.091M320 388.371H349.091M349.091 0V20.4406M349.091 0H378.182M349.091 20.4406V40.8812M349.091 20.4406H378.182M349.091 40.8812V61.3218M349.091 40.8812H378.182M349.091 61.3218V81.7624M349.091 61.3218H378.182M349.091 81.7624V102.203M349.091 81.7624H378.182M349.091 102.203V122.644M349.091 102.203H378.182M349.091 122.644V143.084M349.091 122.644H378.182M349.091 143.084V163.525M349.091 143.084H378.182M349.091 163.525V183.965M349.091 163.525H378.182M349.091 183.965V204.406M349.091 183.965H378.182M349.091 204.406V224.847M349.091 204.406H378.182M349.091 224.847V245.287M349.091 224.847H378.182M349.091 245.287V265.728M349.091 245.287H378.182M349.091 265.728V286.168M349.091 265.728H378.182M349.091 286.168V306.609M349.091 286.168H378.182M349.091 306.609V327.05M349.091 306.609H378.182M349.091 327.05V347.49M349.091 327.05H378.182M349.091 347.49V367.931M349.091 347.49H378.182M349.091 367.931V388.371M349.091 367.931H378.182M349.091 388.371H378.182M378.182 0V20.4406M378.182 0H407.273M378.182 20.4406V40.8812M378.182 20.4406H407.273M378.182 40.8812V61.3218M378.182 40.8812H407.273M378.182 61.3218V81.7624M378.182 61.3218H407.273M378.182 81.7624V102.203M378.182 81.7624H407.273M378.182 102.203V122.644M378.182 102.203H407.273M378.182 122.644V143.084M378.182 122.644H407.273M378.182 143.084V163.525M378.182 143.084H407.273M378.182 163.525V183.965M378.182 163.525H407.273M378.182 183.965V204.406M378.182 183.965H407.273M378.182 204.406V224.847M378.182 204.406H407.273M378.182 224.847V245.287M378.182 224.847H407.273M378.182 245.287V265.728M378.182 245.287H407.273M378.182 265.728V286.168M378.182 265.728H407.273M378.182 286.168V306.609M378.182 286.168H407.273M378.182 306.609V327.05M378.182 306.609H407.273M378.182 327.05V347.49M378.182 327.05H407.273M378.182 347.49V367.931M378.182 347.49H407.273M378.182 367.931V388.371M378.182 367.931H407.273M378.182 388.371H407.273M407.273 0V20.4406M407.273 0H436.364M407.273 20.4406V40.8812M407.273 20.4406H436.364M407.273 40.8812V61.3218M407.273 40.8812H436.364M407.273 61.3218V81.7624M407.273 61.3218H436.364M407.273 81.7624V102.203M407.273 81.7624H436.364M407.273 102.203V122.644M407.273 102.203H436.364M407.273 122.644V143.084M407.273 122.644H436.364M407.273 143.084V163.525M407.273 143.084H436.364M407.273 163.525V183.965M407.273 163.525H436.364M407.273 183.965V204.406M407.273 183.965H436.364M407.273 204.406V224.847M407.273 204.406H436.364M407.273 224.847V245.287M407.273 224.847H436.364M407.273 245.287V265.728M407.273 245.287H436.364M407.273 265.728V286.168M407.273 265.728H436.364M407.273 286.168V306.609M407.273 286.168H436.364M407.273 306.609V327.05M407.273 306.609H436.364M407.273 327.05V347.49M407.273 327.05H436.364M407.273 347.49V367.931M407.273 347.49H436.364M407.273 367.931V388.371M407.273 367.931H436.364M407.273 388.371H436.364M436.364 0V20.4406M436.364 0H465.455M436.364 20.4406V40.8812M436.364 20.4406H465.455M436.364 40.8812V61.3218M436.364 40.8812H465.455M436.364 61.3218V81.7624M436.364 61.3218H465.455M436.364 81.7624V102.203M436.364 81.7624H465.455M436.364 102.203V122.644M436.364 102.203H465.455M436.364 122.644V143.084M436.364 122.644H465.455M436.364 143.084V163.525M436.364 143.084H465.455M436.364 163.525V183.965M436.364 163.525H465.455M436.364 183.965V204.406M436.364 183.965H465.455M436.364 204.406V224.847M436.364 204.406H465.455M436.364 224.847V245.287M436.364 224.847H465.455M436.364 245.287V265.728M436.364 245.287H465.455M436.364 265.728V286.168M436.364 265.728H465.455M436.364 286.168V306.609M436.364 286.168H465.455M436.364 306.609V327.05M436.364 306.609H465.455M436.364 327.05V347.49M436.364 327.05H465.455M436.364 347.49V367.931M436.364 347.49H465.455M436.364 367.931V388.371M436.364 367.931H465.455M436.364 388.371H465.455M465.455 0V20.4406M465.455 0H494.545M465.455 20.4406V40.8812M465.455 20.4406H494.545M465.455 40.8812V61.3218M465.455 40.8812H494.545M465.455 61.3218V81.7624M465.455 61.3218H494.545M465.455 81.7624V102.203M465.455 81.7624H494.545M465.455 102.203V122.644M465.455 102.203H494.545M465.455 122.644V143.084M465.455 122.644H494.545M465.455 143.084V163.525M465.455 143.084H494.545M465.455 163.525V183.965M465.455 163.525H494.545M465.455 183.965V204.406M465.455 183.965H494.545M465.455 204.406V224.847M465.455 204.406H494.545M465.455 224.847V245.287M465.455 224.847H494.545M465.455 245.287V265.728M465.455 245.287H494.545M465.455 265.728V286.168M465.455 265.728H494.545M465.455 286.168V306.609M465.455 286.168H494.545M465.455 306.609V327.05M465.455 306.609H494.545M465.455 327.05V347.49M465.455 327.05H494.545M465.455 347.49V367.931M465.455 347.49H494.545M465.455 367.931V388.371M465.455 367.931H494.545M465.455 388.371H494.545M494.545 0V20.4406M494.545 0H523.636M494.545 20.4406V40.8812M494.545 20.4406H523.636M494.545 40.8812V61.3218M494.545 40.8812H523.636M494.545 61.3218V81.7624M494.545 61.3218H523.636M494.545 81.7624V102.203M494.545 81.7624H523.636M494.545 102.203V122.644M494.545 102.203H523.636M494.545 122.644V143.084M494.545 122.644H523.636M494.545 143.084V163.525M494.545 143.084H523.636M494.545 163.525V183.965M494.545 163.525H523.636M494.545 183.965V204.406M494.545 183.965H523.636M494.545 204.406V224.847M494.545 204.406H523.636M494.545 224.847V245.287M494.545 224.847H523.636M494.545 245.287V265.728M494.545 245.287H523.636M494.545 265.728V286.168M494.545 265.728H523.636M494.545 286.168V306.609M494.545 286.168H523.636M494.545 306.609V327.05M494.545 306.609H523.636M494.545 327.05V347.49M494.545 327.05H523.636M494.545 347.49V367.931M494.545 347.49H523.636M494.545 367.931V388.371M494.545 367.931H523.636M494.545 388.371H523.636M523.636 0V20.4406M523.636 0H552.727M523.636 20.4406V40.8812M523.636 20.4406H552.727M523.636 40.8812V61.3218M523.636 40.8812H552.727M523.636 61.3218V81.7624M523.636 61.3218H552.727M523.636 81.7624V102.203M523.636 81.7624H552.727M523.636 102.203V122.644M523.636 102.203H552.727M523.636 122.644V143.084M523.636 122.644H552.727M523.636 143.084V163.525M523.636 143.084H552.727M523.636 163.525V183.965M523.636 163.525H552.727M523.636 183.965V204.406M523.636 183.965H552.727M523.636 204.406V224.847M523.636 204.406H552.727M523.636 224.847V245.287M523.636 224.847H552.727M523.636 245.287V265.728M523.636 245.287H552.727M523.636 265.728V286.168M523.636 265.728H552.727M523.636 286.168V306.609M523.636 286.168H552.727M523.636 306.609V327.05M523.636 306.609H552.727M523.636 327.05V347.49M523.636 327.05H552.727M523.636 347.49V367.931M523.636 347.49H552.727M523.636 367.931V388.371M523.636 367.931H552.727M523.636 388.371H552.727M552.727 0V20.4406M552.727 0H581.818M552.727 20.4406V40.8812M552.727 20.4406H581.818M552.727 40.8812V61.3218M552.727 40.8812H581.818M552.727 61.3218V81.7624M552.727 61.3218H581.818M552.727 81.7624V102.203M552.727 81.7624H581.818M552.727 102.203V122.644M552.727 102.203H581.818M552.727 122.644V143.084M552.727 122.644H581.818M552.727 143.084V163.525M552.727 143.084H581.818M552.727 163.525V183.965M552.727 163.525H581.818M552.727 183.965V204.406M552.727 183.965H581.818M552.727 204.406V224.847M552.727 204.406H581.818M552.727 224.847V245.287M552.727 224.847H581.818M552.727 245.287V265.728M552.727 245.287H581.818M552.727 265.728V286.168M552.727 265.728H581.818M552.727 286.168V306.609M552.727 286.168H581.818M552.727 306.609V327.05M552.727 306.609H581.818M552.727 327.05V347.49M552.727 327.05H581.818M552.727 347.49V367.931M552.727 347.49H581.818M552.727 367.931V388.371M552.727 367.931H581.818M552.727 388.371H581.818M581.818 0V20.4406M581.818 0H610.909M581.818 20.4406V40.8812M581.818 20.4406H610.909M581.818 40.8812V61.3218M581.818 40.8812H610.909M581.818 61.3218V81.7624M581.818 61.3218H610.909M581.818 81.7624V102.203M581.818 81.7624H610.909M581.818 102.203V122.644M581.818 102.203H610.909M581.818 122.644V143.084M581.818 122.644H610.909M581.818 143.084V163.525M581.818 143.084H610.909M581.818 163.525V183.965M581.818 163.525H610.909M581.818 183.965V204.406M581.818 183.965H610.909M581.818 204.406V224.847M581.818 204.406H610.909M581.818 224.847V245.287M581.818 224.847H610.909M581.818 245.287V265.728M581.818 245.287H610.909M581.818 265.728V286.168M581.818 265.728H610.909M581.818 286.168V306.609M581.818 286.168H610.909M581.818 306.609V327.05M581.818 306.609H610.909M581.818 327.05V347.49M581.818 327.05H610.909M581.818 347.49V367.931M581.818 347.49H610.909M581.818 367.931V388.371M581.818 367.931H610.909M581.818 388.371H610.909M610.909 0V20.4406M610.909 0H640M610.909 20.4406V40.8812M610.909 20.4406H640M610.909 40.8812V61.3218M610.909 40.8812H640M610.909 61.3218V81.7624M610.909 61.3218H640M610.909 81.7624V102.203M610.909 81.7624H640M610.909 102.203V122.644M610.909 102.203H640M610.909 122.644V143.084M610.909 122.644H640M610.909 143.084V163.525M610.909 143.084H640M610.909 163.525V183.965M610.909 163.525H640M610.909 183.965V204.406M610.909 183.965H640M610.909 204.406V224.847M610.909 204.406H640M610.909 224.847V245.287M610.909 224.847H640M610.909 245.287V265.728M610.909 245.287H640M610.909 265.728V286.168M610.909 265.728H640M610.909 286.168V306.609M610.909 286.168H640M610.909 306.609V327.05M610.909 306.609H640M610.909 327.05V347.49M610.909 327.05H640M610.909 347.49V367.931M610.909 347.49H640M610.909 367.931V388.371M610.909 367.931H640M610.909 388.371H640M640 0V20.4406M640 0H669.091M640 20.4406V40.8812M640 20.4406H669.091M640 40.8812V61.3218M640 40.8812H669.091M640 61.3218V81.7624M640 61.3218H669.091M640 81.7624V102.203M640 81.7624H669.091M640 102.203V122.644M640 102.203H669.091M640 122.644V143.084M640 122.644H669.091M640 143.084V163.525M640 143.084H669.091M640 163.525V183.965M640 163.525H669.091M640 183.965V204.406M640 183.965H669.091M640 204.406V224.847M640 204.406H669.091M640 224.847V245.287M640 224.847H669.091M640 245.287V265.728M640 245.287H669.091M640 265.728V286.168M640 265.728H669.091M640 286.168V306.609M640 286.168H669.091M640 306.609V327.05M640 306.609H669.091M640 327.05V347.49M640 327.05H669.091M640 347.49V367.931M640 347.49H669.091M640 367.931V388.371M640 367.931H669.091M640 388.371H669.091M669.091 0V20.4406M669.091 0H698.182M669.091 20.4406V40.8812M669.091 20.4406H698.182M669.091 40.8812V61.3218M669.091 40.8812H698.182M669.091 61.3218V81.7624M669.091 61.3218H698.182M669.091 81.7624V102.203M669.091 81.7624H698.182M669.091 102.203V122.644M669.091 102.203H698.182M669.091 122.644V143.084M669.091 122.644H698.182M669.091 143.084V163.525M669.091 143.084H698.182M669.091 163.525V183.965M669.091 163.525H698.182M669.091 183.965V204.406M669.091 183.965H698.182M669.091 204.406V224.847M669.091 204.406H698.182M669.091 224.847V245.287M669.091 224.847H698.182M669.091 245.287V265.728M669.091 245.287H698.182M669.091 265.728V286.168M669.091 265.728H698.182M669.091 286.168V306.609M669.091 286.168H698.182M669.091 306.609V327.05M669.091 306.609H698.182M669.091 327.05V347.49M669.091 327.05H698.182M669.091 347.49V367.931M669.091 347.49H698.182M669.091 367.931V388.371M669.091 367.931H698.182M669.091 388.371H698.182M698.182 0V20.4406M698.182 0H727.273M698.182 20.4406V40.8812M698.182 20.4406H727.273M698.182 40.8812V61.3218M698.182 40.8812H727.273M698.182 61.3218V81.7624M698.182 61.3218H727.273M698.182 81.7624V102.203M698.182 81.7624H727.273M698.182 102.203V122.644M698.182 102.203H727.273M698.182 122.644V143.084M698.182 122.644H727.273M698.182 143.084V163.525M698.182 143.084H727.273M698.182 163.525V183.965M698.182 163.525H727.273M698.182 183.965V204.406M698.182 183.965H727.273M698.182 204.406V224.847M698.182 204.406H727.273M698.182 224.847V245.287M698.182 224.847H727.273M698.182 245.287V265.728M698.182 245.287H727.273M698.182 265.728V286.168M698.182 265.728H727.273M698.182 286.168V306.609M698.182 286.168H727.273M698.182 306.609V327.05M698.182 306.609H727.273M698.182 327.05V347.49M698.182 327.05H727.273M698.182 347.49V367.931M698.182 347.49H727.273M698.182 367.931V388.371M698.182 367.931H727.273M698.182 388.371H727.273M727.273 0V20.4406M727.273 0H756.364M727.273 20.4406V40.8812M727.273 20.4406H756.364M727.273 40.8812V61.3218M727.273 40.8812H756.364M727.273 61.3218V81.7624M727.273 61.3218H756.364M727.273 81.7624V102.203M727.273 81.7624H756.364M727.273 102.203V122.644M727.273 102.203H756.364M727.273 122.644V143.084M727.273 122.644H756.364M727.273 143.084V163.525M727.273 143.084H756.364M727.273 163.525V183.965M727.273 163.525H756.364M727.273 183.965V204.406M727.273 183.965H756.364M727.273 204.406V224.847M727.273 204.406H756.364M727.273 224.847V245.287M727.273 224.847H756.364M727.273 245.287V265.728M727.273 245.287H756.364M727.273 265.728V286.168M727.273 265.728H756.364M727.273 286.168V306.609M727.273 286.168H756.364M727.273 306.609V327.05M727.273 306.609H756.364M727.273 327.05V347.49M727.273 327.05H756.364M727.273 347.49V367.931M727.273 347.49H756.364M727.273 367.931V388.371M727.273 367.931H756.364M727.273 388.371H756.364M756.364 0V20.4406M756.364 0H785.455M756.364 20.4406V40.8812M756.364 20.4406H785.455M756.364 40.8812V61.3218M756.364 40.8812H785.455M756.364 61.3218V81.7624M756.364 61.3218H785.455M756.364 81.7624V102.203M756.364 81.7624H785.455M756.364 102.203V122.644M756.364 102.203H785.455M756.364 122.644V143.084M756.364 122.644H785.455M756.364 143.084V163.525M756.364 143.084H785.455M756.364 163.525V183.965M756.364 163.525H785.455M756.364 183.965V204.406M756.364 183.965H785.455M756.364 204.406V224.847M756.364 204.406H785.455M756.364 224.847V245.287M756.364 224.847H785.455M756.364 245.287V265.728M756.364 245.287H785.455M756.364 265.728V286.168M756.364 265.728H785.455M756.364 286.168V306.609M756.364 286.168H785.455M756.364 306.609V327.05M756.364 306.609H785.455M756.364 327.05V347.49M756.364 327.05H785.455M756.364 347.49V367.931M756.364 347.49H785.455M756.364 367.931V388.371M756.364 367.931H785.455M756.364 388.371H785.455M785.455 0V20.4406M785.455 0H814.545M785.455 20.4406V40.8812M785.455 20.4406H814.545M785.455 40.8812V61.3218M785.455 40.8812H814.545M785.455 61.3218V81.7624M785.455 61.3218H814.545M785.455 81.7624V102.203M785.455 81.7624H814.545M785.455 102.203V122.644M785.455 102.203H814.545M785.455 122.644V143.084M785.455 122.644H814.545M785.455 143.084V163.525M785.455 143.084H814.545M785.455 163.525V183.965M785.455 163.525H814.545M785.455 183.965V204.406M785.455 183.965H814.545M785.455 204.406V224.847M785.455 204.406H814.545M785.455 224.847V245.287M785.455 224.847H814.545M785.455 245.287V265.728M785.455 245.287H814.545M785.455 265.728V286.168M785.455 265.728H814.545M785.455 286.168V306.609M785.455 286.168H814.545M785.455 306.609V327.05M785.455 306.609H814.545M785.455 327.05V347.49M785.455 327.05H814.545M785.455 347.49V367.931M785.455 347.49H814.545M785.455 367.931V388.371M785.455 367.931H814.545M785.455 388.371H814.545M814.545 0V20.4406M814.545 0H843.636M814.545 20.4406V40.8812M814.545 20.4406H843.636M814.545 40.8812V61.3218M814.545 40.8812H843.636M814.545 61.3218V81.7624M814.545 61.3218H843.636M814.545 81.7624V102.203M814.545 81.7624H843.636M814.545 102.203V122.644M814.545 102.203H843.636M814.545 122.644V143.084M814.545 122.644H843.636M814.545 143.084V163.525M814.545 143.084H843.636M814.545 163.525V183.965M814.545 163.525H843.636M814.545 183.965V204.406M814.545 183.965H843.636M814.545 204.406V224.847M814.545 204.406H843.636M814.545 224.847V245.287M814.545 224.847H843.636M814.545 245.287V265.728M814.545 245.287H843.636M814.545 265.728V286.168M814.545 265.728H843.636M814.545 286.168V306.609M814.545 286.168H843.636M814.545 306.609V327.05M814.545 306.609H843.636M814.545 327.05V347.49M814.545 327.05H843.636M814.545 347.49V367.931M814.545 347.49H843.636M814.545 367.931V388.371M814.545 367.931H843.636M814.545 388.371H843.636M843.636 0V20.4406M843.636 0H872.727M843.636 20.4406V40.8812M843.636 20.4406H872.727M843.636 40.8812V61.3218M843.636 40.8812H872.727M843.636 61.3218V81.7624M843.636 61.3218H872.727M843.636 81.7624V102.203M843.636 81.7624H872.727M843.636 102.203V122.644M843.636 102.203H872.727M843.636 122.644V143.084M843.636 122.644H872.727M843.636 143.084V163.525M843.636 143.084H872.727M843.636 163.525V183.965M843.636 163.525H872.727M843.636 183.965V204.406M843.636 183.965H872.727M843.636 204.406V224.847M843.636 204.406H872.727M843.636 224.847V245.287M843.636 224.847H872.727M843.636 245.287V265.728M843.636 245.287H872.727M843.636 265.728V286.168M843.636 265.728H872.727M843.636 286.168V306.609M843.636 286.168H872.727M843.636 306.609V327.05M843.636 306.609H872.727M843.636 327.05V347.49M843.636 327.05H872.727M843.636 347.49V367.931M843.636 347.49H872.727M843.636 367.931V388.371M843.636 367.931H872.727M843.636 388.371H872.727M872.727 0V20.4406M872.727 0H901.818M872.727 20.4406V40.8812M872.727 20.4406H901.818M872.727 40.8812V61.3218M872.727 40.8812H901.818M872.727 61.3218V81.7624M872.727 61.3218H901.818M872.727 81.7624V102.203M872.727 81.7624H901.818M872.727 102.203V122.644M872.727 102.203H901.818M872.727 122.644V143.084M872.727 122.644H901.818M872.727 143.084V163.525M872.727 143.084H901.818M872.727 163.525V183.965M872.727 163.525H901.818M872.727 183.965V204.406M872.727 183.965H901.818M872.727 204.406V224.847M872.727 204.406H901.818M872.727 224.847V245.287M872.727 224.847H901.818M872.727 245.287V265.728M872.727 245.287H901.818M872.727 265.728V286.168M872.727 265.728H901.818M872.727 286.168V306.609M872.727 286.168H901.818M872.727 306.609V327.05M872.727 306.609H901.818M872.727 327.05V347.49M872.727 327.05H901.818M872.727 347.49V367.931M872.727 347.49H901.818M872.727 367.931V388.371M872.727 367.931H901.818M872.727 388.371H901.818M901.818 0V20.4406M901.818 0H930.909M901.818 20.4406V40.8812M901.818 20.4406H930.909M901.818 40.8812V61.3218M901.818 40.8812H930.909M901.818 61.3218V81.7624M901.818 61.3218H930.909M901.818 81.7624V102.203M901.818 81.7624H930.909M901.818 102.203V122.644M901.818 102.203H930.909M901.818 122.644V143.084M901.818 122.644H930.909M901.818 143.084V163.525M901.818 143.084H930.909M901.818 163.525V183.965M901.818 163.525H930.909M901.818 183.965V204.406M901.818 183.965H930.909M901.818 204.406V224.847M901.818 204.406H930.909M901.818 224.847V245.287M901.818 224.847H930.909M901.818 245.287V265.728M901.818 245.287H930.909M901.818 265.728V286.168M901.818 265.728H930.909M901.818 286.168V306.609M901.818 286.168H930.909M901.818 306.609V327.05M901.818 306.609H930.909M901.818 327.05V347.49M901.818 327.05H930.909M901.818 347.49V367.931M901.818 347.49H930.909M901.818 367.931V388.371M901.818 367.931H930.909M901.818 388.371H930.909M930.909 0V20.4406M930.909 0H960M930.909 20.4406V40.8812M930.909 20.4406H960M930.909 40.8812V61.3218M930.909 40.8812H960M930.909 61.3218V81.7624M930.909 61.3218H960M930.909 81.7624V102.203M930.909 81.7624H960M930.909 102.203V122.644M930.909 102.203H960M930.909 122.644V143.084M930.909 122.644H960M930.909 143.084V163.525M930.909 143.084H960M930.909 163.525V183.965M930.909 163.525H960M930.909 183.965V204.406M930.909 183.965H960M930.909 204.406V224.847M930.909 204.406H960M930.909 224.847V245.287M930.909 224.847H960M930.909 245.287V265.728M930.909 245.287H960M930.909 265.728V286.168M930.909 265.728H960M930.909 286.168V306.609M930.909 286.168H960M930.909 306.609V327.05M930.909 306.609H960M930.909 327.05V347.49M930.909 327.05H960M930.909 347.49V367.931M930.909 347.49H960M930.909 367.931V388.371M930.909 367.931H960M930.909 388.371H960M960 0V20.4406M960 0H989.091M960 20.4406V40.8812M960 20.4406H989.091M960 40.8812V61.3218M960 40.8812H989.091M960 61.3218V81.7624M960 61.3218H989.091M960 81.7624V102.203M960 81.7624H989.091M960 102.203V122.644M960 102.203H989.091M960 122.644V143.084M960 122.644H989.091M960 143.084V163.525M960 143.084H989.091M960 163.525V183.965M960 163.525H989.091M960 183.965V204.406M960 183.965H989.091M960 204.406V224.847M960 204.406H989.091M960 224.847V245.287M960 224.847H989.091M960 245.287V265.728M960 245.287H989.091M960 265.728V286.168M960 265.728H989.091M960 286.168V306.609M960 286.168H989.091M960 306.609V327.05M960 306.609H989.091M960 327.05V347.49M960 327.05H989.091M960 347.49V367.931M960 347.49H989.091M960 367.931V388.371M960 367.931H989.091M960 388.371H989.091M989.091 0V20.4406M989.091 0H1018.18M989.091 20.4406V40.8812M989.091 20.4406H1018.18M989.091 40.8812V61.3218M989.091 40.8812H1018.18M989.091 61.3218V81.7624M989.091 61.3218H1018.18M989.091 81.7624V102.203M989.091 81.7624H1018.18M989.091 102.203V122.644M989.091 102.203H1018.18M989.091 122.644V143.084M989.091 122.644H1018.18M989.091 143.084V163.525M989.091 143.084H1018.18M989.091 163.525V183.965M989.091 163.525H1018.18M989.091 183.965V204.406M989.091 183.965H1018.18M989.091 204.406V224.847M989.091 204.406H1018.18M989.091 224.847V245.287M989.091 224.847H1018.18M989.091 245.287V265.728M989.091 245.287H1018.18M989.091 265.728V286.168M989.091 265.728H1018.18M989.091 286.168V306.609M989.091 286.168H1018.18M989.091 306.609V327.05M989.091 306.609H1018.18M989.091 327.05V347.49M989.091 327.05H1018.18M989.091 347.49V367.931M989.091 347.49H1018.18M989.091 367.931V388.371M989.091 367.931H1018.18M989.091 388.371H1018.18M1018.18 0V20.4406M1018.18 0H1047.27M1018.18 20.4406V40.8812M1018.18 20.4406H1047.27M1018.18 40.8812V61.3218M1018.18 40.8812H1047.27M1018.18 61.3218V81.7624M1018.18 61.3218H1047.27M1018.18 81.7624V102.203M1018.18 81.7624H1047.27M1018.18 102.203V122.644M1018.18 102.203H1047.27M1018.18 122.644V143.084M1018.18 122.644H1047.27M1018.18 143.084V163.525M1018.18 143.084H1047.27M1018.18 163.525V183.965M1018.18 163.525H1047.27M1018.18 183.965V204.406M1018.18 183.965H1047.27M1018.18 204.406V224.847M1018.18 204.406H1047.27M1018.18 224.847V245.287M1018.18 224.847H1047.27M1018.18 245.287V265.728M1018.18 245.287H1047.27M1018.18 265.728V286.168M1018.18 265.728H1047.27M1018.18 286.168V306.609M1018.18 286.168H1047.27M1018.18 306.609V327.05M1018.18 306.609H1047.27M1018.18 327.05V347.49M1018.18 327.05H1047.27M1018.18 347.49V367.931M1018.18 347.49H1047.27M1018.18 367.931V388.371M1018.18 367.931H1047.27M1018.18 388.371H1047.27M1047.27 0V20.4406M1047.27 0H1076.36M1047.27 20.4406V40.8812M1047.27 20.4406H1076.36M1047.27 40.8812V61.3218M1047.27 40.8812H1076.36M1047.27 61.3218V81.7624M1047.27 61.3218H1076.36M1047.27 81.7624V102.203M1047.27 81.7624H1076.36M1047.27 102.203V122.644M1047.27 102.203H1076.36M1047.27 122.644V143.084M1047.27 122.644H1076.36M1047.27 143.084V163.525M1047.27 143.084H1076.36M1047.27 163.525V183.965M1047.27 163.525H1076.36M1047.27 183.965V204.406M1047.27 183.965H1076.36M1047.27 204.406V224.847M1047.27 204.406H1076.36M1047.27 224.847V245.287M1047.27 224.847H1076.36M1047.27 245.287V265.728M1047.27 245.287H1076.36M1047.27 265.728V286.168M1047.27 265.728H1076.36M1047.27 286.168V306.609M1047.27 286.168H1076.36M1047.27 306.609V327.05M1047.27 306.609H1076.36M1047.27 327.05V347.49M1047.27 327.05H1076.36M1047.27 347.49V367.931M1047.27 347.49H1076.36M1047.27 367.931V388.371M1047.27 367.931H1076.36M1047.27 388.371H1076.36M1076.36 0V20.4406M1076.36 0H1105.45M1076.36 20.4406V40.8812M1076.36 20.4406H1105.45M1076.36 40.8812V61.3218M1076.36 40.8812H1105.45M1076.36 61.3218V81.7624M1076.36 61.3218H1105.45M1076.36 81.7624V102.203M1076.36 81.7624H1105.45M1076.36 102.203V122.644M1076.36 102.203H1105.45M1076.36 122.644V143.084M1076.36 122.644H1105.45M1076.36 143.084V163.525M1076.36 143.084H1105.45M1076.36 163.525V183.965M1076.36 163.525H1105.45M1076.36 183.965V204.406M1076.36 183.965H1105.45M1076.36 204.406V224.847M1076.36 204.406H1105.45M1076.36 224.847V245.287M1076.36 224.847H1105.45M1076.36 245.287V265.728M1076.36 245.287H1105.45M1076.36 265.728V286.168M1076.36 265.728H1105.45M1076.36 286.168V306.609M1076.36 286.168H1105.45M1076.36 306.609V327.05M1076.36 306.609H1105.45M1076.36 327.05V347.49M1076.36 327.05H1105.45M1076.36 347.49V367.931M1076.36 347.49H1105.45M1076.36 367.931V388.371M1076.36 367.931H1105.45M1076.36 388.371H1105.45M1105.45 0V20.4406M1105.45 0H1134.55M1105.45 20.4406V40.8812M1105.45 20.4406H1134.55M1105.45 40.8812V61.3218M1105.45 40.8812H1134.55M1105.45 61.3218V81.7624M1105.45 61.3218H1134.55M1105.45 81.7624V102.203M1105.45 81.7624H1134.55M1105.45 102.203V122.644M1105.45 102.203H1134.55M1105.45 122.644V143.084M1105.45 122.644H1134.55M1105.45 143.084V163.525M1105.45 143.084H1134.55M1105.45 163.525V183.965M1105.45 163.525H1134.55M1105.45 183.965V204.406M1105.45 183.965H1134.55M1105.45 204.406V224.847M1105.45 204.406H1134.55M1105.45 224.847V245.287M1105.45 224.847H1134.55M1105.45 245.287V265.728M1105.45 245.287H1134.55M1105.45 265.728V286.168M1105.45 265.728H1134.55M1105.45 286.168V306.609M1105.45 286.168H1134.55M1105.45 306.609V327.05M1105.45 306.609H1134.55M1105.45 327.05V347.49M1105.45 327.05H1134.55M1105.45 347.49V367.931M1105.45 347.49H1134.55M1105.45 367.931V388.371M1105.45 367.931H1134.55M1105.45 388.371H1134.55M1134.55 0V20.4406M1134.55 0H1163.64M1134.55 20.4406V40.8812M1134.55 20.4406H1163.64M1134.55 40.8812V61.3218M1134.55 40.8812H1163.64M1134.55 61.3218V81.7624M1134.55 61.3218H1163.64M1134.55 81.7624V102.203M1134.55 81.7624H1163.64M1134.55 102.203V122.644M1134.55 102.203H1163.64M1134.55 122.644V143.084M1134.55 122.644H1163.64M1134.55 143.084V163.525M1134.55 143.084H1163.64M1134.55 163.525V183.965M1134.55 163.525H1163.64M1134.55 183.965V204.406M1134.55 183.965H1163.64M1134.55 204.406V224.847M1134.55 204.406H1163.64M1134.55 224.847V245.287M1134.55 224.847H1163.64M1134.55 245.287V265.728M1134.55 245.287H1163.64M1134.55 265.728V286.168M1134.55 265.728H1163.64M1134.55 286.168V306.609M1134.55 286.168H1163.64M1134.55 306.609V327.05M1134.55 306.609H1163.64M1134.55 327.05V347.49M1134.55 327.05H1163.64M1134.55 347.49V367.931M1134.55 347.49H1163.64M1134.55 367.931V388.371M1134.55 367.931H1163.64M1134.55 388.371H1163.64M1163.64 0V20.4406M1163.64 0H1192.73M1163.64 20.4406V40.8812M1163.64 20.4406H1192.73M1163.64 40.8812V61.3218M1163.64 40.8812H1192.73M1163.64 61.3218V81.7624M1163.64 61.3218H1192.73M1163.64 81.7624V102.203M1163.64 81.7624H1192.73M1163.64 102.203V122.644M1163.64 102.203H1192.73M1163.64 122.644V143.084M1163.64 122.644H1192.73M1163.64 143.084V163.525M1163.64 143.084H1192.73M1163.64 163.525V183.965M1163.64 163.525H1192.73M1163.64 183.965V204.406M1163.64 183.965H1192.73M1163.64 204.406V224.847M1163.64 204.406H1192.73M1163.64 224.847V245.287M1163.64 224.847H1192.73M1163.64 245.287V265.728M1163.64 245.287H1192.73M1163.64 265.728V286.168M1163.64 265.728H1192.73M1163.64 286.168V306.609M1163.64 286.168H1192.73M1163.64 306.609V327.05M1163.64 306.609H1192.73M1163.64 327.05V347.49M1163.64 327.05H1192.73M1163.64 347.49V367.931M1163.64 347.49H1192.73M1163.64 367.931V388.371M1163.64 367.931H1192.73M1163.64 388.371H1192.73M1192.73 0V20.4406M1192.73 0H1221.82M1192.73 20.4406V40.8812M1192.73 20.4406H1221.82M1192.73 40.8812V61.3218M1192.73 40.8812H1221.82M1192.73 61.3218V81.7624M1192.73 61.3218H1221.82M1192.73 81.7624V102.203M1192.73 81.7624H1221.82M1192.73 102.203V122.644M1192.73 102.203H1221.82M1192.73 122.644V143.084M1192.73 122.644H1221.82M1192.73 143.084V163.525M1192.73 143.084H1221.82M1192.73 163.525V183.965M1192.73 163.525H1221.82M1192.73 183.965V204.406M1192.73 183.965H1221.82M1192.73 204.406V224.847M1192.73 204.406H1221.82M1192.73 224.847V245.287M1192.73 224.847H1221.82M1192.73 245.287V265.728M1192.73 245.287H1221.82M1192.73 265.728V286.168M1192.73 265.728H1221.82M1192.73 286.168V306.609M1192.73 286.168H1221.82M1192.73 306.609V327.05M1192.73 306.609H1221.82M1192.73 327.05V347.49M1192.73 327.05H1221.82M1192.73 347.49V367.931M1192.73 347.49H1221.82M1192.73 367.931V388.371M1192.73 367.931H1221.82M1192.73 388.371H1221.82M1221.82 0V20.4406M1221.82 0H1250.91M1221.82 20.4406V40.8812M1221.82 20.4406H1250.91M1221.82 40.8812V61.3218M1221.82 40.8812H1250.91M1221.82 61.3218V81.7624M1221.82 61.3218H1250.91M1221.82 81.7624V102.203M1221.82 81.7624H1250.91M1221.82 102.203V122.644M1221.82 102.203H1250.91M1221.82 122.644V143.084M1221.82 122.644H1250.91M1221.82 143.084V163.525M1221.82 143.084H1250.91M1221.82 163.525V183.965M1221.82 163.525H1250.91M1221.82 183.965V204.406M1221.82 183.965H1250.91M1221.82 204.406V224.847M1221.82 204.406H1250.91M1221.82 224.847V245.287M1221.82 224.847H1250.91M1221.82 245.287V265.728M1221.82 245.287H1250.91M1221.82 265.728V286.168M1221.82 265.728H1250.91M1221.82 286.168V306.609M1221.82 286.168H1250.91M1221.82 306.609V327.05M1221.82 306.609H1250.91M1221.82 327.05V347.49M1221.82 327.05H1250.91M1221.82 347.49V367.931M1221.82 347.49H1250.91M1221.82 367.931V388.371M1221.82 367.931H1250.91M1221.82 388.371H1250.91M1250.91 0V20.4406M1250.91 0H1280V20.4406M1250.91 20.4406V40.8812M1250.91 20.4406H1280M1250.91 40.8812V61.3218M1250.91 40.8812H1280M1250.91 61.3218V81.7624M1250.91 61.3218H1280M1250.91 81.7624V102.203M1250.91 81.7624H1280M1250.91 102.203V122.644M1250.91 102.203H1280M1250.91 122.644V143.084M1250.91 122.644H1280M1250.91 143.084V163.525M1250.91 143.084H1280M1250.91 163.525V183.965M1250.91 163.525H1280M1250.91 183.965V204.406M1250.91 183.965H1280M1250.91 204.406V224.847M1250.91 204.406H1280M1250.91 224.847V245.287M1250.91 224.847H1280M1250.91 245.287V265.728M1250.91 245.287H1280M1250.91 265.728V286.168M1250.91 265.728H1280M1250.91 286.168V306.609M1250.91 286.168H1280M1250.91 306.609V327.05M1250.91 306.609H1280M1250.91 327.05V347.49M1250.91 327.05H1280M1250.91 347.49V367.931M1250.91 347.49H1280M1250.91 367.931V388.371M1250.91 367.931H1280M1250.91 388.371H1280V367.931M1280 20.4406V40.8812M1280 40.8812V61.3218M1280 61.3218V81.7624M1280 81.7624V102.203M1280 102.203V122.644M1280 122.644V143.084M1280 143.084V163.525M1280 163.525V183.965M1280 183.965V204.406M1280 204.406V224.847M1280 224.847V245.287M1280 245.287V265.728M1280 265.728V286.168M1280 286.168V306.609M1280 306.609V327.05M1280 327.05V347.49M1280 347.49V367.931" stroke="url(#paint0_radial_3_135)" stroke-width="0.900718"/>
</g>
<defs>
<radialGradient id="paint0_radial_3_135" cx="0" cy="0" r="1" gradientUnits="userSpaceOnUse" gradientTransform="translate(640 194.186) rotate(90) scale(194.186 516.811)">
<stop stop-color="white"/>
<stop offset="0.855" stop-color="white" stop-opacity="0.2"/>
</radialGradient>
</defs>
</svg>
