<svg width="1280" height="659" viewBox="0 0 1280 659" fill="none" xmlns="http://www.w3.org/2000/svg">
<g style="mix-blend-mode:soft-light" opacity="1">
<path d="M37.3095 9.59711H8.60992V41.5874M37.3095 9.59711V41.5874M37.3095 9.59711H66.009M37.3095 41.5874H8.60992M37.3095 41.5874V73.5777M37.3095 41.5874H66.009M8.60992 41.5874V73.5777M37.3095 73.5777H8.60992M37.3095 73.5777V105.568M37.3095 73.5777H66.009M8.60992 73.5777V105.568M37.3095 105.568H8.60992M37.3095 105.568V137.558M37.3095 105.568H66.009M8.60992 105.568V137.558M37.3095 137.558H8.60992M37.3095 137.558V169.549M37.3095 137.558H66.009M8.60992 137.558V169.549M37.3095 169.549H8.60992M37.3095 169.549V201.539M37.3095 169.549H66.009M8.60992 169.549V201.539M37.3095 201.539H8.60992M37.3095 201.539V233.529M37.3095 201.539H66.009M8.60992 201.539V233.529M37.3095 233.529H8.60992M37.3095 233.529V265.519M37.3095 233.529H66.009M8.60992 233.529V265.519M37.3095 265.519H8.60992M37.3095 265.519V297.51M37.3095 265.519H66.009M8.60992 265.519V297.51M37.3095 297.51H8.60992M37.3095 297.51V329.5M37.3095 297.51H66.009M8.60992 297.51V329.5M37.3095 329.5H8.60992M37.3095 329.5V361.49M37.3095 329.5H66.009M8.60992 329.5V361.49M37.3095 361.49H8.60992M37.3095 361.49V393.481M37.3095 361.49H66.009M8.60992 361.49V393.481M37.3095 393.481H8.60992M37.3095 393.481V425.471M37.3095 393.481H66.009M8.60992 393.481V425.471M37.3095 425.471H8.60992M37.3095 425.471V457.461M37.3095 425.471H66.009M8.60992 425.471V457.461M37.3095 457.461H8.60992M37.3095 457.461V489.452M37.3095 457.461H66.009M8.60992 457.461V489.452M37.3095 489.452H8.60992M37.3095 489.452V521.442M37.3095 489.452H66.009M8.60992 489.452V521.442M37.3095 521.442H8.60992M37.3095 521.442V553.432M37.3095 521.442H66.009M8.60992 521.442V553.432M37.3095 553.432H8.60992M37.3095 553.432V585.422M37.3095 553.432H66.009M8.60992 553.432V585.422M37.3095 585.422H8.60992M37.3095 585.422V617.413M37.3095 585.422H66.009M8.60992 585.422V617.413M37.3095 617.413H8.60992M37.3095 617.413V649.403M37.3095 617.413H66.009M8.60992 617.413V649.403H37.3095M37.3095 649.403H66.009M66.009 9.59711V41.5874M66.009 9.59711H94.7086M66.009 41.5874V73.5777M66.009 41.5874H94.7086M66.009 73.5777V105.568M66.009 73.5777H94.7086M66.009 105.568V137.558M66.009 105.568H94.7086M66.009 137.558V169.549M66.009 137.558H94.7086M66.009 169.549V201.539M66.009 169.549H94.7086M66.009 201.539V233.529M66.009 201.539H94.7086M66.009 233.529V265.519M66.009 233.529H94.7086M66.009 265.519V297.51M66.009 265.519H94.7086M66.009 297.51V329.5M66.009 297.51H94.7086M66.009 329.5V361.49M66.009 329.5H94.7086M66.009 361.49V393.481M66.009 361.49H94.7086M66.009 393.481V425.471M66.009 393.481H94.7086M66.009 425.471V457.461M66.009 425.471H94.7086M66.009 457.461V489.452M66.009 457.461H94.7086M66.009 489.452V521.442M66.009 489.452H94.7086M66.009 521.442V553.432M66.009 521.442H94.7086M66.009 553.432V585.422M66.009 553.432H94.7086M66.009 585.422V617.413M66.009 585.422H94.7086M66.009 617.413V649.403M66.009 617.413H94.7086M66.009 649.403H94.7086M94.7086 9.59711V41.5874M94.7086 9.59711H123.408M94.7086 41.5874V73.5777M94.7086 41.5874H123.408M94.7086 73.5777V105.568M94.7086 73.5777H123.408M94.7086 105.568V137.558M94.7086 105.568H123.408M94.7086 137.558V169.549M94.7086 137.558H123.408M94.7086 169.549V201.539M94.7086 169.549H123.408M94.7086 201.539V233.529M94.7086 201.539H123.408M94.7086 233.529V265.519M94.7086 233.529H123.408M94.7086 265.519V297.51M94.7086 265.519H123.408M94.7086 297.51V329.5M94.7086 297.51H123.408M94.7086 329.5V361.49M94.7086 329.5H123.408M94.7086 361.49V393.481M94.7086 361.49H123.408M94.7086 393.481V425.471M94.7086 393.481H123.408M94.7086 425.471V457.461M94.7086 425.471H123.408M94.7086 457.461V489.452M94.7086 457.461H123.408M94.7086 489.452V521.442M94.7086 489.452H123.408M94.7086 521.442V553.432M94.7086 521.442H123.408M94.7086 553.432V585.422M94.7086 553.432H123.408M94.7086 585.422V617.413M94.7086 585.422H123.408M94.7086 617.413V649.403M94.7086 617.413H123.408M94.7086 649.403H123.408M123.408 9.59711V41.5874M123.408 9.59711H152.108M123.408 41.5874V73.5777M123.408 41.5874H152.108M123.408 73.5777V105.568M123.408 73.5777H152.108M123.408 105.568V137.558M123.408 105.568H152.108M123.408 137.558V169.549M123.408 137.558H152.108M123.408 169.549V201.539M123.408 169.549H152.108M123.408 201.539V233.529M123.408 201.539H152.108M123.408 233.529V265.519M123.408 233.529H152.108M123.408 265.519V297.51M123.408 265.519H152.108M123.408 297.51V329.5M123.408 297.51H152.108M123.408 329.5V361.49M123.408 329.5H152.108M123.408 361.49V393.481M123.408 361.49H152.108M123.408 393.481V425.471M123.408 393.481H152.108M123.408 425.471V457.461M123.408 425.471H152.108M123.408 457.461V489.452M123.408 457.461H152.108M123.408 489.452V521.442M123.408 489.452H152.108M123.408 521.442V553.432M123.408 521.442H152.108M123.408 553.432V585.422M123.408 553.432H152.108M123.408 585.422V617.413M123.408 585.422H152.108M123.408 617.413V649.403M123.408 617.413H152.108M123.408 649.403H152.108M152.108 9.59711V41.5874M152.108 9.59711H180.807M152.108 41.5874V73.5777M152.108 41.5874H180.807M152.108 73.5777V105.568M152.108 73.5777H180.807M152.108 105.568V137.558M152.108 105.568H180.807M152.108 137.558V169.549M152.108 137.558H180.807M152.108 169.549V201.539M152.108 169.549H180.807M152.108 201.539V233.529M152.108 201.539H180.807M152.108 233.529V265.519M152.108 233.529H180.807M152.108 265.519V297.51M152.108 265.519H180.807M152.108 297.51V329.5M152.108 297.51H180.807M152.108 329.5V361.49M152.108 329.5H180.807M152.108 361.49V393.481M152.108 361.49H180.807M152.108 393.481V425.471M152.108 393.481H180.807M152.108 425.471V457.461M152.108 425.471H180.807M152.108 457.461V489.452M152.108 457.461H180.807M152.108 489.452V521.442M152.108 489.452H180.807M152.108 521.442V553.432M152.108 521.442H180.807M152.108 553.432V585.422M152.108 553.432H180.807M152.108 585.422V617.413M152.108 585.422H180.807M152.108 617.413V649.403M152.108 617.413H180.807M152.108 649.403H180.807M180.807 9.59711V41.5874M180.807 9.59711H209.507M180.807 41.5874V73.5777M180.807 41.5874H209.507M180.807 73.5777V105.568M180.807 73.5777H209.507M180.807 105.568V137.558M180.807 105.568H209.507M180.807 137.558V169.549M180.807 137.558H209.507M180.807 169.549V201.539M180.807 169.549H209.507M180.807 201.539V233.529M180.807 201.539H209.507M180.807 233.529V265.519M180.807 233.529H209.507M180.807 265.519V297.51M180.807 265.519H209.507M180.807 297.51V329.5M180.807 297.51H209.507M180.807 329.5V361.49M180.807 329.5H209.507M180.807 361.49V393.481M180.807 361.49H209.507M180.807 393.481V425.471M180.807 393.481H209.507M180.807 425.471V457.461M180.807 425.471H209.507M180.807 457.461V489.452M180.807 457.461H209.507M180.807 489.452V521.442M180.807 489.452H209.507M180.807 521.442V553.432M180.807 521.442H209.507M180.807 553.432V585.422M180.807 553.432H209.507M180.807 585.422V617.413M180.807 585.422H209.507M180.807 617.413V649.403M180.807 617.413H209.507M180.807 649.403H209.507M209.507 9.59711V41.5874M209.507 9.59711H238.206M209.507 41.5874V73.5777M209.507 41.5874H238.206M209.507 73.5777V105.568M209.507 73.5777H238.206M209.507 105.568V137.558M209.507 105.568H238.206M209.507 137.558V169.549M209.507 137.558H238.206M209.507 169.549V201.539M209.507 169.549H238.206M209.507 201.539V233.529M209.507 201.539H238.206M209.507 233.529V265.519M209.507 233.529H238.206M209.507 265.519V297.51M209.507 265.519H238.206M209.507 297.51V329.5M209.507 297.51H238.206M209.507 329.5V361.49M209.507 329.5H238.206M209.507 361.49V393.481M209.507 361.49H238.206M209.507 393.481V425.471M209.507 393.481H238.206M209.507 425.471V457.461M209.507 425.471H238.206M209.507 457.461V489.452M209.507 457.461H238.206M209.507 489.452V521.442M209.507 489.452H238.206M209.507 521.442V553.432M209.507 521.442H238.206M209.507 553.432V585.422M209.507 553.432H238.206M209.507 585.422V617.413M209.507 585.422H238.206M209.507 617.413V649.403M209.507 617.413H238.206M209.507 649.403H238.206M238.206 9.59711V41.5874M238.206 9.59711H266.906M238.206 41.5874V73.5777M238.206 41.5874H266.906M238.206 73.5777V105.568M238.206 73.5777H266.906M238.206 105.568V137.558M238.206 105.568H266.906M238.206 137.558V169.549M238.206 137.558H266.906M238.206 169.549V201.539M238.206 169.549H266.906M238.206 201.539V233.529M238.206 201.539H266.906M238.206 233.529V265.519M238.206 233.529H266.906M238.206 265.519V297.51M238.206 265.519H266.906M238.206 297.51V329.5M238.206 297.51H266.906M238.206 329.5V361.49M238.206 329.5H266.906M238.206 361.49V393.481M238.206 361.49H266.906M238.206 393.481V425.471M238.206 393.481H266.906M238.206 425.471V457.461M238.206 425.471H266.906M238.206 457.461V489.452M238.206 457.461H266.906M238.206 489.452V521.442M238.206 489.452H266.906M238.206 521.442V553.432M238.206 521.442H266.906M238.206 553.432V585.422M238.206 553.432H266.906M238.206 585.422V617.413M238.206 585.422H266.906M238.206 617.413V649.403M238.206 617.413H266.906M238.206 649.403H266.906M266.906 9.59711V41.5874M266.906 9.59711H295.605M266.906 41.5874V73.5777M266.906 41.5874H295.605M266.906 73.5777V105.568M266.906 73.5777H295.605M266.906 105.568V137.558M266.906 105.568H295.605M266.906 137.558V169.549M266.906 137.558H295.605M266.906 169.549V201.539M266.906 169.549H295.605M266.906 201.539V233.529M266.906 201.539H295.605M266.906 233.529V265.519M266.906 233.529H295.605M266.906 265.519V297.51M266.906 265.519H295.605M266.906 297.51V329.5M266.906 297.51H295.605M266.906 329.5V361.49M266.906 329.5H295.605M266.906 361.49V393.481M266.906 361.49H295.605M266.906 393.481V425.471M266.906 393.481H295.605M266.906 425.471V457.461M266.906 425.471H295.605M266.906 457.461V489.452M266.906 457.461H295.605M266.906 489.452V521.442M266.906 489.452H295.605M266.906 521.442V553.432M266.906 521.442H295.605M266.906 553.432V585.422M266.906 553.432H295.605M266.906 585.422V617.413M266.906 585.422H295.605M266.906 617.413V649.403M266.906 617.413H295.605M266.906 649.403H295.605M295.605 9.59711V41.5874M295.605 9.59711H324.305M295.605 41.5874V73.5777M295.605 41.5874H324.305M295.605 73.5777V105.568M295.605 73.5777H324.305M295.605 105.568V137.558M295.605 105.568H324.305M295.605 137.558V169.549M295.605 137.558H324.305M295.605 169.549V201.539M295.605 169.549H324.305M295.605 201.539V233.529M295.605 201.539H324.305M295.605 233.529V265.519M295.605 233.529H324.305M295.605 265.519V297.51M295.605 265.519H324.305M295.605 297.51V329.5M295.605 297.51H324.305M295.605 329.5V361.49M295.605 329.5H324.305M295.605 361.49V393.481M295.605 361.49H324.305M295.605 393.481V425.471M295.605 393.481H324.305M295.605 425.471V457.461M295.605 425.471H324.305M295.605 457.461V489.452M295.605 457.461H324.305M295.605 489.452V521.442M295.605 489.452H324.305M295.605 521.442V553.432M295.605 521.442H324.305M295.605 553.432V585.422M295.605 553.432H324.305M295.605 585.422V617.413M295.605 585.422H324.305M295.605 617.413V649.403M295.605 617.413H324.305M295.605 649.403H324.305M324.305 9.59711V41.5874M324.305 9.59711H353.005M324.305 41.5874V73.5777M324.305 41.5874H353.005M324.305 73.5777V105.568M324.305 73.5777H353.005M324.305 105.568V137.558M324.305 105.568H353.005M324.305 137.558V169.549M324.305 137.558H353.005M324.305 169.549V201.539M324.305 169.549H353.005M324.305 201.539V233.529M324.305 201.539H353.005M324.305 233.529V265.519M324.305 233.529H353.005M324.305 265.519V297.51M324.305 265.519H353.005M324.305 297.51V329.5M324.305 297.51H353.005M324.305 329.5V361.49M324.305 329.5H353.005M324.305 361.49V393.481M324.305 361.49H353.005M324.305 393.481V425.471M324.305 393.481H353.005M324.305 425.471V457.461M324.305 425.471H353.005M324.305 457.461V489.452M324.305 457.461H353.005M324.305 489.452V521.442M324.305 489.452H353.005M324.305 521.442V553.432M324.305 521.442H353.005M324.305 553.432V585.422M324.305 553.432H353.005M324.305 585.422V617.413M324.305 585.422H353.005M324.305 617.413V649.403M324.305 617.413H353.005M324.305 649.403H353.005M353.005 9.59711V41.5874M353.005 9.59711H381.704M353.005 41.5874V73.5777M353.005 41.5874H381.704M353.005 73.5777V105.568M353.005 73.5777H381.704M353.005 105.568V137.558M353.005 105.568H381.704M353.005 137.558V169.549M353.005 137.558H381.704M353.005 169.549V201.539M353.005 169.549H381.704M353.005 201.539V233.529M353.005 201.539H381.704M353.005 233.529V265.519M353.005 233.529H381.704M353.005 265.519V297.51M353.005 265.519H381.704M353.005 297.51V329.5M353.005 297.51H381.704M353.005 329.5V361.49M353.005 329.5H381.704M353.005 361.49V393.481M353.005 361.49H381.704M353.005 393.481V425.471M353.005 393.481H381.704M353.005 425.471V457.461M353.005 425.471H381.704M353.005 457.461V489.452M353.005 457.461H381.704M353.005 489.452V521.442M353.005 489.452H381.704M353.005 521.442V553.432M353.005 521.442H381.704M353.005 553.432V585.422M353.005 553.432H381.704M353.005 585.422V617.413M353.005 585.422H381.704M353.005 617.413V649.403M353.005 617.413H381.704M353.005 649.403H381.704M381.704 9.59711V41.5874M381.704 9.59711H410.404M381.704 41.5874V73.5777M381.704 41.5874H410.404M381.704 73.5777V105.568M381.704 73.5777H410.404M381.704 105.568V137.558M381.704 105.568H410.404M381.704 137.558V169.549M381.704 137.558H410.404M381.704 169.549V201.539M381.704 169.549H410.404M381.704 201.539V233.529M381.704 201.539H410.404M381.704 233.529V265.519M381.704 233.529H410.404M381.704 265.519V297.51M381.704 265.519H410.404M381.704 297.51V329.5M381.704 297.51H410.404M381.704 329.5V361.49M381.704 329.5H410.404M381.704 361.49V393.481M381.704 361.49H410.404M381.704 393.481V425.471M381.704 393.481H410.404M381.704 425.471V457.461M381.704 425.471H410.404M381.704 457.461V489.452M381.704 457.461H410.404M381.704 489.452V521.442M381.704 489.452H410.404M381.704 521.442V553.432M381.704 521.442H410.404M381.704 553.432V585.422M381.704 553.432H410.404M381.704 585.422V617.413M381.704 585.422H410.404M381.704 617.413V649.403M381.704 617.413H410.404M381.704 649.403H410.404M410.404 9.59711V41.5874M410.404 9.59711H439.103M410.404 41.5874V73.5777M410.404 41.5874H439.103M410.404 73.5777V105.568M410.404 73.5777H439.103M410.404 105.568V137.558M410.404 105.568H439.103M410.404 137.558V169.549M410.404 137.558H439.103M410.404 169.549V201.539M410.404 169.549H439.103M410.404 201.539V233.529M410.404 201.539H439.103M410.404 233.529V265.519M410.404 233.529H439.103M410.404 265.519V297.51M410.404 265.519H439.103M410.404 297.51V329.5M410.404 297.51H439.103M410.404 329.5V361.49M410.404 329.5H439.103M410.404 361.49V393.481M410.404 361.49H439.103M410.404 393.481V425.471M410.404 393.481H439.103M410.404 425.471V457.461M410.404 425.471H439.103M410.404 457.461V489.452M410.404 457.461H439.103M410.404 489.452V521.442M410.404 489.452H439.103M410.404 521.442V553.432M410.404 521.442H439.103M410.404 553.432V585.422M410.404 553.432H439.103M410.404 585.422V617.413M410.404 585.422H439.103M410.404 617.413V649.403M410.404 617.413H439.103M410.404 649.403H439.103M439.103 9.59711V41.5874M439.103 9.59711H467.803M439.103 41.5874V73.5777M439.103 41.5874H467.803M439.103 73.5777V105.568M439.103 73.5777H467.803M439.103 105.568V137.558M439.103 105.568H467.803M439.103 137.558V169.549M439.103 137.558H467.803M439.103 169.549V201.539M439.103 169.549H467.803M439.103 201.539V233.529M439.103 201.539H467.803M439.103 233.529V265.519M439.103 233.529H467.803M439.103 265.519V297.51M439.103 265.519H467.803M439.103 297.51V329.5M439.103 297.51H467.803M439.103 329.5V361.49M439.103 329.5H467.803M439.103 361.49V393.481M439.103 361.49H467.803M439.103 393.481V425.471M439.103 393.481H467.803M439.103 425.471V457.461M439.103 425.471H467.803M439.103 457.461V489.452M439.103 457.461H467.803M439.103 489.452V521.442M439.103 489.452H467.803M439.103 521.442V553.432M439.103 521.442H467.803M439.103 553.432V585.422M439.103 553.432H467.803M439.103 585.422V617.413M439.103 585.422H467.803M439.103 617.413V649.403M439.103 617.413H467.803M439.103 649.403H467.803M467.803 9.59711V41.5874M467.803 9.59711H496.502M467.803 41.5874V73.5777M467.803 41.5874H496.502M467.803 73.5777V105.568M467.803 73.5777H496.502M467.803 105.568V137.558M467.803 105.568H496.502M467.803 137.558V169.549M467.803 137.558H496.502M467.803 169.549V201.539M467.803 169.549H496.502M467.803 201.539V233.529M467.803 201.539H496.502M467.803 233.529V265.519M467.803 233.529H496.502M467.803 265.519V297.51M467.803 265.519H496.502M467.803 297.51V329.5M467.803 297.51H496.502M467.803 329.5V361.49M467.803 329.5H496.502M467.803 361.49V393.481M467.803 361.49H496.502M467.803 393.481V425.471M467.803 393.481H496.502M467.803 425.471V457.461M467.803 425.471H496.502M467.803 457.461V489.452M467.803 457.461H496.502M467.803 489.452V521.442M467.803 489.452H496.502M467.803 521.442V553.432M467.803 521.442H496.502M467.803 553.432V585.422M467.803 553.432H496.502M467.803 585.422V617.413M467.803 585.422H496.502M467.803 617.413V649.403M467.803 617.413H496.502M467.803 649.403H496.502M496.502 9.59711V41.5874M496.502 9.59711H525.202M496.502 41.5874V73.5777M496.502 41.5874H525.202M496.502 73.5777V105.568M496.502 73.5777H525.202M496.502 105.568V137.558M496.502 105.568H525.202M496.502 137.558V169.549M496.502 137.558H525.202M496.502 169.549V201.539M496.502 169.549H525.202M496.502 201.539V233.529M496.502 201.539H525.202M496.502 233.529V265.519M496.502 233.529H525.202M496.502 265.519V297.51M496.502 265.519H525.202M496.502 297.51V329.5M496.502 297.51H525.202M496.502 329.5V361.49M496.502 329.5H525.202M496.502 361.49V393.481M496.502 361.49H525.202M496.502 393.481V425.471M496.502 393.481H525.202M496.502 425.471V457.461M496.502 425.471H525.202M496.502 457.461V489.452M496.502 457.461H525.202M496.502 489.452V521.442M496.502 489.452H525.202M496.502 521.442V553.432M496.502 521.442H525.202M496.502 553.432V585.422M496.502 553.432H525.202M496.502 585.422V617.413M496.502 585.422H525.202M496.502 617.413V649.403M496.502 617.413H525.202M496.502 649.403H525.202M525.202 9.59711V41.5874M525.202 9.59711H553.901M525.202 41.5874V73.5777M525.202 41.5874H553.901M525.202 73.5777V105.568M525.202 73.5777H553.901M525.202 105.568V137.558M525.202 105.568H553.901M525.202 137.558V169.549M525.202 137.558H553.901M525.202 169.549V201.539M525.202 169.549H553.901M525.202 201.539V233.529M525.202 201.539H553.901M525.202 233.529V265.519M525.202 233.529H553.901M525.202 265.519V297.51M525.202 265.519H553.901M525.202 297.51V329.5M525.202 297.51H553.901M525.202 329.5V361.49M525.202 329.5H553.901M525.202 361.49V393.481M525.202 361.49H553.901M525.202 393.481V425.471M525.202 393.481H553.901M525.202 425.471V457.461M525.202 425.471H553.901M525.202 457.461V489.452M525.202 457.461H553.901M525.202 489.452V521.442M525.202 489.452H553.901M525.202 521.442V553.432M525.202 521.442H553.901M525.202 553.432V585.422M525.202 553.432H553.901M525.202 585.422V617.413M525.202 585.422H553.901M525.202 617.413V649.403M525.202 617.413H553.901M525.202 649.403H553.901M553.901 9.59711V41.5874M553.901 9.59711H582.601M553.901 41.5874V73.5777M553.901 41.5874H582.601M553.901 73.5777V105.568M553.901 73.5777H582.601M553.901 105.568V137.558M553.901 105.568H582.601M553.901 137.558V169.549M553.901 137.558H582.601M553.901 169.549V201.539M553.901 169.549H582.601M553.901 201.539V233.529M553.901 201.539H582.601M553.901 233.529V265.519M553.901 233.529H582.601M553.901 265.519V297.51M553.901 265.519H582.601M553.901 297.51V329.5M553.901 297.51H582.601M553.901 329.5V361.49M553.901 329.5H582.601M553.901 361.49V393.481M553.901 361.49H582.601M553.901 393.481V425.471M553.901 393.481H582.601M553.901 425.471V457.461M553.901 425.471H582.601M553.901 457.461V489.452M553.901 457.461H582.601M553.901 489.452V521.442M553.901 489.452H582.601M553.901 521.442V553.432M553.901 521.442H582.601M553.901 553.432V585.422M553.901 553.432H582.601M553.901 585.422V617.413M553.901 585.422H582.601M553.901 617.413V649.403M553.901 617.413H582.601M553.901 649.403H582.601M582.601 9.59711V41.5874M582.601 9.59711H611.3M582.601 41.5874V73.5777M582.601 41.5874H611.3M582.601 73.5777V105.568M582.601 73.5777H611.3M582.601 105.568V137.558M582.601 105.568H611.3M582.601 137.558V169.549M582.601 137.558H611.3M582.601 169.549V201.539M582.601 169.549H611.3M582.601 201.539V233.529M582.601 201.539H611.3M582.601 233.529V265.519M582.601 233.529H611.3M582.601 265.519V297.51M582.601 265.519H611.3M582.601 297.51V329.5M582.601 297.51H611.3M582.601 329.5V361.49M582.601 329.5H611.3M582.601 361.49V393.481M582.601 361.49H611.3M582.601 393.481V425.471M582.601 393.481H611.3M582.601 425.471V457.461M582.601 425.471H611.3M582.601 457.461V489.452M582.601 457.461H611.3M582.601 489.452V521.442M582.601 489.452H611.3M582.601 521.442V553.432M582.601 521.442H611.3M582.601 553.432V585.422M582.601 553.432H611.3M582.601 585.422V617.413M582.601 585.422H611.3M582.601 617.413V649.403M582.601 617.413H611.3M582.601 649.403H611.3M611.3 9.59711V41.5874M611.3 9.59711H640M611.3 41.5874V73.5777M611.3 41.5874H640M611.3 73.5777V105.568M611.3 73.5777H640M611.3 105.568V137.558M611.3 105.568H640M611.3 137.558V169.549M611.3 137.558H640M611.3 169.549V201.539M611.3 169.549H640M611.3 201.539V233.529M611.3 201.539H640M611.3 233.529V265.519M611.3 233.529H640M611.3 265.519V297.51M611.3 265.519H640M611.3 297.51V329.5M611.3 297.51H640M611.3 329.5V361.49M611.3 329.5H640M611.3 361.49V393.481M611.3 361.49H640M611.3 393.481V425.471M611.3 393.481H640M611.3 425.471V457.461M611.3 425.471H640M611.3 457.461V489.452M611.3 457.461H640M611.3 489.452V521.442M611.3 489.452H640M611.3 521.442V553.432M611.3 521.442H640M611.3 553.432V585.422M611.3 553.432H640M611.3 585.422V617.413M611.3 585.422H640M611.3 617.413V649.403M611.3 617.413H640M611.3 649.403H640M640 9.59711V41.5874M640 9.59711H668.7M640 41.5874V73.5777M640 41.5874H668.7M640 73.5777V105.568M640 73.5777H668.7M640 105.568V137.558M640 105.568H668.7M640 137.558V169.549M640 137.558H668.7M640 169.549V201.539M640 169.549H668.7M640 201.539V233.529M640 201.539H668.7M640 233.529V265.519M640 233.529H668.7M640 265.519V297.51M640 265.519H668.7M640 297.51V329.5M640 297.51H668.7M640 329.5V361.49M640 329.5H668.7M640 361.49V393.481M640 361.49H668.7M640 393.481V425.471M640 393.481H668.7M640 425.471V457.461M640 425.471H668.7M640 457.461V489.452M640 457.461H668.7M640 489.452V521.442M640 489.452H668.7M640 521.442V553.432M640 521.442H668.7M640 553.432V585.422M640 553.432H668.7M640 585.422V617.413M640 585.422H668.7M640 617.413V649.403M640 617.413H668.7M640 649.403H668.7M668.7 9.59711V41.5874M668.7 9.59711H697.399M668.7 41.5874V73.5777M668.7 41.5874H697.399M668.7 73.5777V105.568M668.7 73.5777H697.399M668.7 105.568V137.558M668.7 105.568H697.399M668.7 137.558V169.549M668.7 137.558H697.399M668.7 169.549V201.539M668.7 169.549H697.399M668.7 201.539V233.529M668.7 201.539H697.399M668.7 233.529V265.519M668.7 233.529H697.399M668.7 265.519V297.51M668.7 265.519H697.399M668.7 297.51V329.5M668.7 297.51H697.399M668.7 329.5V361.49M668.7 329.5H697.399M668.7 361.49V393.481M668.7 361.49H697.399M668.7 393.481V425.471M668.7 393.481H697.399M668.7 425.471V457.461M668.7 425.471H697.399M668.7 457.461V489.452M668.7 457.461H697.399M668.7 489.452V521.442M668.7 489.452H697.399M668.7 521.442V553.432M668.7 521.442H697.399M668.7 553.432V585.422M668.7 553.432H697.399M668.7 585.422V617.413M668.7 585.422H697.399M668.7 617.413V649.403M668.7 617.413H697.399M668.7 649.403H697.399M697.399 9.59711V41.5874M697.399 9.59711H726.099M697.399 41.5874V73.5777M697.399 41.5874H726.099M697.399 73.5777V105.568M697.399 73.5777H726.099M697.399 105.568V137.558M697.399 105.568H726.099M697.399 137.558V169.549M697.399 137.558H726.099M697.399 169.549V201.539M697.399 169.549H726.099M697.399 201.539V233.529M697.399 201.539H726.099M697.399 233.529V265.519M697.399 233.529H726.099M697.399 265.519V297.51M697.399 265.519H726.099M697.399 297.51V329.5M697.399 297.51H726.099M697.399 329.5V361.49M697.399 329.5H726.099M697.399 361.49V393.481M697.399 361.49H726.099M697.399 393.481V425.471M697.399 393.481H726.099M697.399 425.471V457.461M697.399 425.471H726.099M697.399 457.461V489.452M697.399 457.461H726.099M697.399 489.452V521.442M697.399 489.452H726.099M697.399 521.442V553.432M697.399 521.442H726.099M697.399 553.432V585.422M697.399 553.432H726.099M697.399 585.422V617.413M697.399 585.422H726.099M697.399 617.413V649.403M697.399 617.413H726.099M697.399 649.403H726.099M726.099 9.59711V41.5874M726.099 9.59711H754.798M726.099 41.5874V73.5777M726.099 41.5874H754.798M726.099 73.5777V105.568M726.099 73.5777H754.798M726.099 105.568V137.558M726.099 105.568H754.798M726.099 137.558V169.549M726.099 137.558H754.798M726.099 169.549V201.539M726.099 169.549H754.798M726.099 201.539V233.529M726.099 201.539H754.798M726.099 233.529V265.519M726.099 233.529H754.798M726.099 265.519V297.51M726.099 265.519H754.798M726.099 297.51V329.5M726.099 297.51H754.798M726.099 329.5V361.49M726.099 329.5H754.798M726.099 361.49V393.481M726.099 361.49H754.798M726.099 393.481V425.471M726.099 393.481H754.798M726.099 425.471V457.461M726.099 425.471H754.798M726.099 457.461V489.452M726.099 457.461H754.798M726.099 489.452V521.442M726.099 489.452H754.798M726.099 521.442V553.432M726.099 521.442H754.798M726.099 553.432V585.422M726.099 553.432H754.798M726.099 585.422V617.413M726.099 585.422H754.798M726.099 617.413V649.403M726.099 617.413H754.798M726.099 649.403H754.798M754.798 9.59711V41.5874M754.798 9.59711H783.498M754.798 41.5874V73.5777M754.798 41.5874H783.498M754.798 73.5777V105.568M754.798 73.5777H783.498M754.798 105.568V137.558M754.798 105.568H783.498M754.798 137.558V169.549M754.798 137.558H783.498M754.798 169.549V201.539M754.798 169.549H783.498M754.798 201.539V233.529M754.798 201.539H783.498M754.798 233.529V265.519M754.798 233.529H783.498M754.798 265.519V297.51M754.798 265.519H783.498M754.798 297.51V329.5M754.798 297.51H783.498M754.798 329.5V361.49M754.798 329.5H783.498M754.798 361.49V393.481M754.798 361.49H783.498M754.798 393.481V425.471M754.798 393.481H783.498M754.798 425.471V457.461M754.798 425.471H783.498M754.798 457.461V489.452M754.798 457.461H783.498M754.798 489.452V521.442M754.798 489.452H783.498M754.798 521.442V553.432M754.798 521.442H783.498M754.798 553.432V585.422M754.798 553.432H783.498M754.798 585.422V617.413M754.798 585.422H783.498M754.798 617.413V649.403M754.798 617.413H783.498M754.798 649.403H783.498M783.498 9.59711V41.5874M783.498 9.59711H812.197M783.498 41.5874V73.5777M783.498 41.5874H812.197M783.498 73.5777V105.568M783.498 73.5777H812.197M783.498 105.568V137.558M783.498 105.568H812.197M783.498 137.558V169.549M783.498 137.558H812.197M783.498 169.549V201.539M783.498 169.549H812.197M783.498 201.539V233.529M783.498 201.539H812.197M783.498 233.529V265.519M783.498 233.529H812.197M783.498 265.519V297.51M783.498 265.519H812.197M783.498 297.51V329.5M783.498 297.51H812.197M783.498 329.5V361.49M783.498 329.5H812.197M783.498 361.49V393.481M783.498 361.49H812.197M783.498 393.481V425.471M783.498 393.481H812.197M783.498 425.471V457.461M783.498 425.471H812.197M783.498 457.461V489.452M783.498 457.461H812.197M783.498 489.452V521.442M783.498 489.452H812.197M783.498 521.442V553.432M783.498 521.442H812.197M783.498 553.432V585.422M783.498 553.432H812.197M783.498 585.422V617.413M783.498 585.422H812.197M783.498 617.413V649.403M783.498 617.413H812.197M783.498 649.403H812.197M812.197 9.59711V41.5874M812.197 9.59711H840.897M812.197 41.5874V73.5777M812.197 41.5874H840.897M812.197 73.5777V105.568M812.197 73.5777H840.897M812.197 105.568V137.558M812.197 105.568H840.897M812.197 137.558V169.549M812.197 137.558H840.897M812.197 169.549V201.539M812.197 169.549H840.897M812.197 201.539V233.529M812.197 201.539H840.897M812.197 233.529V265.519M812.197 233.529H840.897M812.197 265.519V297.51M812.197 265.519H840.897M812.197 297.51V329.5M812.197 297.51H840.897M812.197 329.5V361.49M812.197 329.5H840.897M812.197 361.49V393.481M812.197 361.49H840.897M812.197 393.481V425.471M812.197 393.481H840.897M812.197 425.471V457.461M812.197 425.471H840.897M812.197 457.461V489.452M812.197 457.461H840.897M812.197 489.452V521.442M812.197 489.452H840.897M812.197 521.442V553.432M812.197 521.442H840.897M812.197 553.432V585.422M812.197 553.432H840.897M812.197 585.422V617.413M812.197 585.422H840.897M812.197 617.413V649.403M812.197 617.413H840.897M812.197 649.403H840.897M840.897 9.59711V41.5874M840.897 9.59711H869.596M840.897 41.5874V73.5777M840.897 41.5874H869.596M840.897 73.5777V105.568M840.897 73.5777H869.596M840.897 105.568V137.558M840.897 105.568H869.596M840.897 137.558V169.549M840.897 137.558H869.596M840.897 169.549V201.539M840.897 169.549H869.596M840.897 201.539V233.529M840.897 201.539H869.596M840.897 233.529V265.519M840.897 233.529H869.596M840.897 265.519V297.51M840.897 265.519H869.596M840.897 297.51V329.5M840.897 297.51H869.596M840.897 329.5V361.49M840.897 329.5H869.596M840.897 361.49V393.481M840.897 361.49H869.596M840.897 393.481V425.471M840.897 393.481H869.596M840.897 425.471V457.461M840.897 425.471H869.596M840.897 457.461V489.452M840.897 457.461H869.596M840.897 489.452V521.442M840.897 489.452H869.596M840.897 521.442V553.432M840.897 521.442H869.596M840.897 553.432V585.422M840.897 553.432H869.596M840.897 585.422V617.413M840.897 585.422H869.596M840.897 617.413V649.403M840.897 617.413H869.596M840.897 649.403H869.596M869.596 9.59711V41.5874M869.596 9.59711H898.296M869.596 41.5874V73.5777M869.596 41.5874H898.296M869.596 73.5777V105.568M869.596 73.5777H898.296M869.596 105.568V137.558M869.596 105.568H898.296M869.596 137.558V169.549M869.596 137.558H898.296M869.596 169.549V201.539M869.596 169.549H898.296M869.596 201.539V233.529M869.596 201.539H898.296M869.596 233.529V265.519M869.596 233.529H898.296M869.596 265.519V297.51M869.596 265.519H898.296M869.596 297.51V329.5M869.596 297.51H898.296M869.596 329.5V361.49M869.596 329.5H898.296M869.596 361.49V393.481M869.596 361.49H898.296M869.596 393.481V425.471M869.596 393.481H898.296M869.596 425.471V457.461M869.596 425.471H898.296M869.596 457.461V489.452M869.596 457.461H898.296M869.596 489.452V521.442M869.596 489.452H898.296M869.596 521.442V553.432M869.596 521.442H898.296M869.596 553.432V585.422M869.596 553.432H898.296M869.596 585.422V617.413M869.596 585.422H898.296M869.596 617.413V649.403M869.596 617.413H898.296M869.596 649.403H898.296M898.296 9.59711V41.5874M898.296 9.59711H926.995M898.296 41.5874V73.5777M898.296 41.5874H926.995M898.296 73.5777V105.568M898.296 73.5777H926.995M898.296 105.568V137.558M898.296 105.568H926.995M898.296 137.558V169.549M898.296 137.558H926.995M898.296 169.549V201.539M898.296 169.549H926.995M898.296 201.539V233.529M898.296 201.539H926.995M898.296 233.529V265.519M898.296 233.529H926.995M898.296 265.519V297.51M898.296 265.519H926.995M898.296 297.51V329.5M898.296 297.51H926.995M898.296 329.5V361.49M898.296 329.5H926.995M898.296 361.49V393.481M898.296 361.49H926.995M898.296 393.481V425.471M898.296 393.481H926.995M898.296 425.471V457.461M898.296 425.471H926.995M898.296 457.461V489.452M898.296 457.461H926.995M898.296 489.452V521.442M898.296 489.452H926.995M898.296 521.442V553.432M898.296 521.442H926.995M898.296 553.432V585.422M898.296 553.432H926.995M898.296 585.422V617.413M898.296 585.422H926.995M898.296 617.413V649.403M898.296 617.413H926.995M898.296 649.403H926.995M926.995 9.59711V41.5874M926.995 9.59711H955.695M926.995 41.5874V73.5777M926.995 41.5874H955.695M926.995 73.5777V105.568M926.995 73.5777H955.695M926.995 105.568V137.558M926.995 105.568H955.695M926.995 137.558V169.549M926.995 137.558H955.695M926.995 169.549V201.539M926.995 169.549H955.695M926.995 201.539V233.529M926.995 201.539H955.695M926.995 233.529V265.519M926.995 233.529H955.695M926.995 265.519V297.51M926.995 265.519H955.695M926.995 297.51V329.5M926.995 297.51H955.695M926.995 329.5V361.49M926.995 329.5H955.695M926.995 361.49V393.481M926.995 361.49H955.695M926.995 393.481V425.471M926.995 393.481H955.695M926.995 425.471V457.461M926.995 425.471H955.695M926.995 457.461V489.452M926.995 457.461H955.695M926.995 489.452V521.442M926.995 489.452H955.695M926.995 521.442V553.432M926.995 521.442H955.695M926.995 553.432V585.422M926.995 553.432H955.695M926.995 585.422V617.413M926.995 585.422H955.695M926.995 617.413V649.403M926.995 617.413H955.695M926.995 649.403H955.695M955.695 9.59711V41.5874M955.695 9.59711H984.395M955.695 41.5874V73.5777M955.695 41.5874H984.395M955.695 73.5777V105.568M955.695 73.5777H984.395M955.695 105.568V137.558M955.695 105.568H984.395M955.695 137.558V169.549M955.695 137.558H984.395M955.695 169.549V201.539M955.695 169.549H984.395M955.695 201.539V233.529M955.695 201.539H984.395M955.695 233.529V265.519M955.695 233.529H984.395M955.695 265.519V297.51M955.695 265.519H984.395M955.695 297.51V329.5M955.695 297.51H984.395M955.695 329.5V361.49M955.695 329.5H984.395M955.695 361.49V393.481M955.695 361.49H984.395M955.695 393.481V425.471M955.695 393.481H984.395M955.695 425.471V457.461M955.695 425.471H984.395M955.695 457.461V489.452M955.695 457.461H984.395M955.695 489.452V521.442M955.695 489.452H984.395M955.695 521.442V553.432M955.695 521.442H984.395M955.695 553.432V585.422M955.695 553.432H984.395M955.695 585.422V617.413M955.695 585.422H984.395M955.695 617.413V649.403M955.695 617.413H984.395M955.695 649.403H984.395M984.395 9.59711V41.5874M984.395 9.59711H1013.09M984.395 41.5874V73.5777M984.395 41.5874H1013.09M984.395 73.5777V105.568M984.395 73.5777H1013.09M984.395 105.568V137.558M984.395 105.568H1013.09M984.395 137.558V169.549M984.395 137.558H1013.09M984.395 169.549V201.539M984.395 169.549H1013.09M984.395 201.539V233.529M984.395 201.539H1013.09M984.395 233.529V265.519M984.395 233.529H1013.09M984.395 265.519V297.51M984.395 265.519H1013.09M984.395 297.51V329.5M984.395 297.51H1013.09M984.395 329.5V361.49M984.395 329.5H1013.09M984.395 361.49V393.481M984.395 361.49H1013.09M984.395 393.481V425.471M984.395 393.481H1013.09M984.395 425.471V457.461M984.395 425.471H1013.09M984.395 457.461V489.452M984.395 457.461H1013.09M984.395 489.452V521.442M984.395 489.452H1013.09M984.395 521.442V553.432M984.395 521.442H1013.09M984.395 553.432V585.422M984.395 553.432H1013.09M984.395 585.422V617.413M984.395 585.422H1013.09M984.395 617.413V649.403M984.395 617.413H1013.09M984.395 649.403H1013.09M1013.09 9.59711V41.5874M1013.09 9.59711H1041.79M1013.09 41.5874V73.5777M1013.09 41.5874H1041.79M1013.09 73.5777V105.568M1013.09 73.5777H1041.79M1013.09 105.568V137.558M1013.09 105.568H1041.79M1013.09 137.558V169.549M1013.09 137.558H1041.79M1013.09 169.549V201.539M1013.09 169.549H1041.79M1013.09 201.539V233.529M1013.09 201.539H1041.79M1013.09 233.529V265.519M1013.09 233.529H1041.79M1013.09 265.519V297.51M1013.09 265.519H1041.79M1013.09 297.51V329.5M1013.09 297.51H1041.79M1013.09 329.5V361.49M1013.09 329.5H1041.79M1013.09 361.49V393.481M1013.09 361.49H1041.79M1013.09 393.481V425.471M1013.09 393.481H1041.79M1013.09 425.471V457.461M1013.09 425.471H1041.79M1013.09 457.461V489.452M1013.09 457.461H1041.79M1013.09 489.452V521.442M1013.09 489.452H1041.79M1013.09 521.442V553.432M1013.09 521.442H1041.79M1013.09 553.432V585.422M1013.09 553.432H1041.79M1013.09 585.422V617.413M1013.09 585.422H1041.79M1013.09 617.413V649.403M1013.09 617.413H1041.79M1013.09 649.403H1041.79M1041.79 9.59711V41.5874M1041.79 9.59711H1070.49M1041.79 41.5874V73.5777M1041.79 41.5874H1070.49M1041.79 73.5777V105.568M1041.79 73.5777H1070.49M1041.79 105.568V137.558M1041.79 105.568H1070.49M1041.79 137.558V169.549M1041.79 137.558H1070.49M1041.79 169.549V201.539M1041.79 169.549H1070.49M1041.79 201.539V233.529M1041.79 201.539H1070.49M1041.79 233.529V265.519M1041.79 233.529H1070.49M1041.79 265.519V297.51M1041.79 265.519H1070.49M1041.79 297.51V329.5M1041.79 297.51H1070.49M1041.79 329.5V361.49M1041.79 329.5H1070.49M1041.79 361.49V393.481M1041.79 361.49H1070.49M1041.79 393.481V425.471M1041.79 393.481H1070.49M1041.79 425.471V457.461M1041.79 425.471H1070.49M1041.79 457.461V489.452M1041.79 457.461H1070.49M1041.79 489.452V521.442M1041.79 489.452H1070.49M1041.79 521.442V553.432M1041.79 521.442H1070.49M1041.79 553.432V585.422M1041.79 553.432H1070.49M1041.79 585.422V617.413M1041.79 585.422H1070.49M1041.79 617.413V649.403M1041.79 617.413H1070.49M1041.79 649.403H1070.49M1070.49 9.59711V41.5874M1070.49 9.59711H1099.19M1070.49 41.5874V73.5777M1070.49 41.5874H1099.19M1070.49 73.5777V105.568M1070.49 73.5777H1099.19M1070.49 105.568V137.558M1070.49 105.568H1099.19M1070.49 137.558V169.549M1070.49 137.558H1099.19M1070.49 169.549V201.539M1070.49 169.549H1099.19M1070.49 201.539V233.529M1070.49 201.539H1099.19M1070.49 233.529V265.519M1070.49 233.529H1099.19M1070.49 265.519V297.51M1070.49 265.519H1099.19M1070.49 297.51V329.5M1070.49 297.51H1099.19M1070.49 329.5V361.49M1070.49 329.5H1099.19M1070.49 361.49V393.481M1070.49 361.49H1099.19M1070.49 393.481V425.471M1070.49 393.481H1099.19M1070.49 425.471V457.461M1070.49 425.471H1099.19M1070.49 457.461V489.452M1070.49 457.461H1099.19M1070.49 489.452V521.442M1070.49 489.452H1099.19M1070.49 521.442V553.432M1070.49 521.442H1099.19M1070.49 553.432V585.422M1070.49 553.432H1099.19M1070.49 585.422V617.413M1070.49 585.422H1099.19M1070.49 617.413V649.403M1070.49 617.413H1099.19M1070.49 649.403H1099.19M1099.19 9.59711V41.5874M1099.19 9.59711H1127.89M1099.19 41.5874V73.5777M1099.19 41.5874H1127.89M1099.19 73.5777V105.568M1099.19 73.5777H1127.89M1099.19 105.568V137.558M1099.19 105.568H1127.89M1099.19 137.558V169.549M1099.19 137.558H1127.89M1099.19 169.549V201.539M1099.19 169.549H1127.89M1099.19 201.539V233.529M1099.19 201.539H1127.89M1099.19 233.529V265.519M1099.19 233.529H1127.89M1099.19 265.519V297.51M1099.19 265.519H1127.89M1099.19 297.51V329.5M1099.19 297.51H1127.89M1099.19 329.5V361.49M1099.19 329.5H1127.89M1099.19 361.49V393.481M1099.19 361.49H1127.89M1099.19 393.481V425.471M1099.19 393.481H1127.89M1099.19 425.471V457.461M1099.19 425.471H1127.89M1099.19 457.461V489.452M1099.19 457.461H1127.89M1099.19 489.452V521.442M1099.19 489.452H1127.89M1099.19 521.442V553.432M1099.19 521.442H1127.89M1099.19 553.432V585.422M1099.19 553.432H1127.89M1099.19 585.422V617.413M1099.19 585.422H1127.89M1099.19 617.413V649.403M1099.19 617.413H1127.89M1099.19 649.403H1127.89M1127.89 9.59711V41.5874M1127.89 9.59711H1156.59M1127.89 41.5874V73.5777M1127.89 41.5874H1156.59M1127.89 73.5777V105.568M1127.89 73.5777H1156.59M1127.89 105.568V137.558M1127.89 105.568H1156.59M1127.89 137.558V169.549M1127.89 137.558H1156.59M1127.89 169.549V201.539M1127.89 169.549H1156.59M1127.89 201.539V233.529M1127.89 201.539H1156.59M1127.89 233.529V265.519M1127.89 233.529H1156.59M1127.89 265.519V297.51M1127.89 265.519H1156.59M1127.89 297.51V329.5M1127.89 297.51H1156.59M1127.89 329.5V361.49M1127.89 329.5H1156.59M1127.89 361.49V393.481M1127.89 361.49H1156.59M1127.89 393.481V425.471M1127.89 393.481H1156.59M1127.89 425.471V457.461M1127.89 425.471H1156.59M1127.89 457.461V489.452M1127.89 457.461H1156.59M1127.89 489.452V521.442M1127.89 489.452H1156.59M1127.89 521.442V553.432M1127.89 521.442H1156.59M1127.89 553.432V585.422M1127.89 553.432H1156.59M1127.89 585.422V617.413M1127.89 585.422H1156.59M1127.89 617.413V649.403M1127.89 617.413H1156.59M1127.89 649.403H1156.59M1156.59 9.59711V41.5874M1156.59 9.59711H1185.29M1156.59 41.5874V73.5777M1156.59 41.5874H1185.29M1156.59 73.5777V105.568M1156.59 73.5777H1185.29M1156.59 105.568V137.558M1156.59 105.568H1185.29M1156.59 137.558V169.549M1156.59 137.558H1185.29M1156.59 169.549V201.539M1156.59 169.549H1185.29M1156.59 201.539V233.529M1156.59 201.539H1185.29M1156.59 233.529V265.519M1156.59 233.529H1185.29M1156.59 265.519V297.51M1156.59 265.519H1185.29M1156.59 297.51V329.5M1156.59 297.51H1185.29M1156.59 329.5V361.49M1156.59 329.5H1185.29M1156.59 361.49V393.481M1156.59 361.49H1185.29M1156.59 393.481V425.471M1156.59 393.481H1185.29M1156.59 425.471V457.461M1156.59 425.471H1185.29M1156.59 457.461V489.452M1156.59 457.461H1185.29M1156.59 489.452V521.442M1156.59 489.452H1185.29M1156.59 521.442V553.432M1156.59 521.442H1185.29M1156.59 553.432V585.422M1156.59 553.432H1185.29M1156.59 585.422V617.413M1156.59 585.422H1185.29M1156.59 617.413V649.403M1156.59 617.413H1185.29M1156.59 649.403H1185.29M1185.29 9.59711V41.5874M1185.29 9.59711H1213.99M1185.29 41.5874V73.5777M1185.29 41.5874H1213.99M1185.29 73.5777V105.568M1185.29 73.5777H1213.99M1185.29 105.568V137.558M1185.29 105.568H1213.99M1185.29 137.558V169.549M1185.29 137.558H1213.99M1185.29 169.549V201.539M1185.29 169.549H1213.99M1185.29 201.539V233.529M1185.29 201.539H1213.99M1185.29 233.529V265.519M1185.29 233.529H1213.99M1185.29 265.519V297.51M1185.29 265.519H1213.99M1185.29 297.51V329.5M1185.29 297.51H1213.99M1185.29 329.5V361.49M1185.29 329.5H1213.99M1185.29 361.49V393.481M1185.29 361.49H1213.99M1185.29 393.481V425.471M1185.29 393.481H1213.99M1185.29 425.471V457.461M1185.29 425.471H1213.99M1185.29 457.461V489.452M1185.29 457.461H1213.99M1185.29 489.452V521.442M1185.29 489.452H1213.99M1185.29 521.442V553.432M1185.29 521.442H1213.99M1185.29 553.432V585.422M1185.29 553.432H1213.99M1185.29 585.422V617.413M1185.29 585.422H1213.99M1185.29 617.413V649.403M1185.29 617.413H1213.99M1185.29 649.403H1213.99M1213.99 9.59711V41.5874M1213.99 9.59711H1242.69M1213.99 41.5874V73.5777M1213.99 41.5874H1242.69M1213.99 73.5777V105.568M1213.99 73.5777H1242.69M1213.99 105.568V137.558M1213.99 105.568H1242.69M1213.99 137.558V169.549M1213.99 137.558H1242.69M1213.99 169.549V201.539M1213.99 169.549H1242.69M1213.99 201.539V233.529M1213.99 201.539H1242.69M1213.99 233.529V265.519M1213.99 233.529H1242.69M1213.99 265.519V297.51M1213.99 265.519H1242.69M1213.99 297.51V329.5M1213.99 297.51H1242.69M1213.99 329.5V361.49M1213.99 329.5H1242.69M1213.99 361.49V393.481M1213.99 361.49H1242.69M1213.99 393.481V425.471M1213.99 393.481H1242.69M1213.99 425.471V457.461M1213.99 425.471H1242.69M1213.99 457.461V489.452M1213.99 457.461H1242.69M1213.99 489.452V521.442M1213.99 489.452H1242.69M1213.99 521.442V553.432M1213.99 521.442H1242.69M1213.99 553.432V585.422M1213.99 553.432H1242.69M1213.99 585.422V617.413M1213.99 585.422H1242.69M1213.99 617.413V649.403M1213.99 617.413H1242.69M1213.99 649.403H1242.69M1242.69 9.59711V41.5874M1242.69 9.59711H1271.39V41.5874M1242.69 41.5874V73.5777M1242.69 41.5874H1271.39M1242.69 73.5777V105.568M1242.69 73.5777H1271.39M1242.69 105.568V137.558M1242.69 105.568H1271.39M1242.69 137.558V169.549M1242.69 137.558H1271.39M1242.69 169.549V201.539M1242.69 169.549H1271.39M1242.69 201.539V233.529M1242.69 201.539H1271.39M1242.69 233.529V265.519M1242.69 233.529H1271.39M1242.69 265.519V297.51M1242.69 265.519H1271.39M1242.69 297.51V329.5M1242.69 297.51H1271.39M1242.69 329.5V361.49M1242.69 329.5H1271.39M1242.69 361.49V393.481M1242.69 361.49H1271.39M1242.69 393.481V425.471M1242.69 393.481H1271.39M1242.69 425.471V457.461M1242.69 425.471H1271.39M1242.69 457.461V489.452M1242.69 457.461H1271.39M1242.69 489.452V521.442M1242.69 489.452H1271.39M1242.69 521.442V553.432M1242.69 521.442H1271.39M1242.69 553.432V585.422M1242.69 553.432H1271.39M1242.69 585.422V617.413M1242.69 585.422H1271.39M1242.69 617.413V649.403M1242.69 617.413H1271.39M1242.69 649.403H1271.39V617.413M1271.39 41.5874V73.5777M1271.39 73.5777V105.568M1271.39 105.568V137.558M1271.39 137.558V169.549M1271.39 169.549V201.539M1271.39 201.539V233.529M1271.39 233.529V265.519M1271.39 265.519V297.51M1271.39 297.51V329.5M1271.39 329.5V361.49M1271.39 361.49V393.481M1271.39 393.481V425.471M1271.39 425.471V457.461M1271.39 457.461V489.452M1271.39 489.452V521.442M1271.39 521.442V553.432M1271.39 553.432V585.422M1271.39 585.422V617.413" stroke="url(#paint0_radial_20_65)" stroke-width="0.805493"/>
</g>
<g style="mix-blend-mode:soft-light" opacity="1">
<path d="M123.408 127.961V137.558M123.408 137.558V147.155M123.408 137.558H114.798M123.408 137.558H132.018M123.408 383.883V393.481M123.408 393.481V403.078M123.408 393.481H114.798M123.408 393.481H132.018M123.408 639.806V649.403M123.408 649.403V659M123.408 649.403H114.798M123.408 649.403H132.018M353.005 127.961V137.558M353.005 137.558V147.155M353.005 137.558H344.395M353.005 137.558H361.614M353.005 383.883V393.481M353.005 393.481V403.078M353.005 393.481H344.395M353.005 393.481H361.614M353.005 639.806V649.403M353.005 649.403V659M353.005 649.403H344.395M353.005 649.403H361.614M582.601 127.961V137.558M582.601 137.558V147.155M582.601 137.558H573.991M582.601 137.558H591.211M582.601 383.883V393.481M582.601 393.481V403.078M582.601 393.481H573.991M582.601 393.481H591.211M582.601 639.806V649.403M582.601 649.403V659M582.601 649.403H573.991M582.601 649.403H591.211M812.197 127.961V137.558M812.197 137.558V147.155M812.197 137.558H803.588M812.197 137.558H820.807M812.197 383.883V393.481M812.197 393.481V403.078M812.197 393.481H803.588M812.197 393.481H820.807M812.197 639.806V649.403M812.197 649.403V659M812.197 649.403H803.588M812.197 649.403H820.807M1041.79 127.961V137.558M1041.79 137.558V147.155M1041.79 137.558H1033.18M1041.79 137.558H1050.4M1041.79 383.883V393.481M1041.79 393.481V403.078M1041.79 393.481H1033.18M1041.79 393.481H1050.4M1041.79 639.806V649.403M1041.79 649.403V659M1041.79 649.403H1033.18M1041.79 649.403H1050.4M1271.39 127.961V137.558M1271.39 137.558V147.155M1271.39 137.558H1262.78M1271.39 137.558H1280M1271.39 383.883V393.481M1271.39 393.481V403.078M1271.39 393.481H1262.78M1271.39 393.481H1280M1271.39 639.806V649.403M1271.39 649.403V659M1271.39 649.403H1262.78M1271.39 649.403H1280M123.408 -6.10352e-05V9.59703M123.408 9.59703V19.1941M123.408 9.59703H114.798M123.408 9.59703H132.018M123.408 255.922V265.519M123.408 265.519V275.117M123.408 265.519H114.798M123.408 265.519H132.018M123.408 511.845V521.442M123.408 521.442V531.039M123.408 521.442H114.798M123.408 521.442H132.018M353.005 -6.10352e-05V9.59703M353.005 9.59703V19.1941M353.005 9.59703H344.395M353.005 9.59703H361.614M353.005 255.922V265.519M353.005 265.519V275.117M353.005 265.519H344.395M353.005 265.519H361.614M353.005 511.845V521.442M353.005 521.442V531.039M353.005 521.442H344.395M353.005 521.442H361.614M582.601 -6.10352e-05V9.59703M582.601 9.59703V19.1941M582.601 9.59703H573.991M582.601 9.59703H591.211M582.601 255.922V265.519M582.601 265.519V275.117M582.601 265.519H573.991M582.601 265.519H591.211M582.601 511.845V521.442M582.601 521.442V531.039M582.601 521.442H573.991M582.601 521.442H591.211M812.197 -6.10352e-05V9.59703M812.197 9.59703V19.1941M812.197 9.59703H803.588M812.197 9.59703H820.807M812.197 255.922V265.519M812.197 265.519V275.117M812.197 265.519H803.588M812.197 265.519H820.807M812.197 511.845V521.442M812.197 521.442V531.039M812.197 521.442H803.588M812.197 521.442H820.807M1041.79 -6.10352e-05V9.59703M1041.79 9.59703V19.1941M1041.79 9.59703H1033.18M1041.79 9.59703H1050.4M1041.79 255.922V265.519M1041.79 265.519V275.117M1041.79 265.519H1033.18M1041.79 265.519H1050.4M1041.79 511.845V521.442M1041.79 521.442V531.039M1041.79 521.442H1033.18M1041.79 521.442H1050.4M1271.39 -6.10352e-05V9.59703M1271.39 9.59703V19.1941M1271.39 9.59703H1262.78M1271.39 9.59703H1280M1271.39 255.922V265.519M1271.39 265.519V275.117M1271.39 265.519H1262.78M1271.39 265.519H1280M1271.39 511.845V521.442M1271.39 521.442V531.039M1271.39 521.442H1262.78M1271.39 521.442H1280M8.60987 127.961V137.558M8.60987 137.558V147.155M8.60987 137.558H0M8.60987 137.558H17.2197M8.60987 383.883V393.481M8.60987 393.481V403.078M8.60987 393.481H0M8.60987 393.481H17.2197M8.60987 639.806V649.403M8.60987 649.403V659M8.60987 649.403H0M8.60987 649.403H17.2197M238.206 127.961V137.558M238.206 137.558V147.155M238.206 137.558H229.596M238.206 137.558H246.816M238.206 383.883V393.481M238.206 393.481V403.078M238.206 393.481H229.596M238.206 393.481H246.816M238.206 639.806V649.403M238.206 649.403V659M238.206 649.403H229.596M238.206 649.403H246.816M467.803 127.961V137.558M467.803 137.558V147.155M467.803 137.558H459.193M467.803 137.558H476.413M467.803 383.883V393.481M467.803 393.481V403.078M467.803 393.481H459.193M467.803 393.481H476.413M467.803 639.806V649.403M467.803 649.403V659M467.803 649.403H459.193M467.803 649.403H476.413M697.399 127.961V137.558M697.399 137.558V147.155M697.399 137.558H688.789M697.399 137.558H706.009M697.399 383.883V393.481M697.399 393.481V403.078M697.399 393.481H688.789M697.399 393.481H706.009M697.399 639.806V649.403M697.399 649.403V659M697.399 649.403H688.789M697.399 649.403H706.009M926.996 127.961V137.558M926.996 137.558V147.155M926.996 137.558H918.386M926.996 137.558H935.605M926.996 383.883V393.481M926.996 393.481V403.078M926.996 393.481H918.386M926.996 393.481H935.605M926.996 639.806V649.403M926.996 649.403V659M926.996 649.403H918.386M926.996 649.403H935.605M1156.59 127.961V137.558M1156.59 137.558V147.155M1156.59 137.558H1147.98M1156.59 137.558H1165.2M1156.59 383.883V393.481M1156.59 393.481V403.078M1156.59 393.481H1147.98M1156.59 393.481H1165.2M1156.59 639.806V649.403M1156.59 649.403V659M1156.59 649.403H1147.98M1156.59 649.403H1165.2M8.60987 -1.38558e-05V9.59708M8.60987 9.59708V19.1942M8.60987 9.59708H0M8.60987 9.59708H17.2197M8.60987 255.922V265.519M8.60987 265.519V275.117M8.60987 265.519H0M8.60987 265.519H17.2197M8.60987 511.845V521.442M8.60987 521.442V531.039M8.60987 521.442H0M8.60987 521.442H17.2197M238.206 -6.10352e-05V9.59703M238.206 9.59703V19.1941M238.206 9.59703H229.596M238.206 9.59703H246.816M238.206 255.922V265.519M238.206 265.519V275.117M238.206 265.519H229.596M238.206 265.519H246.816M238.206 511.845V521.442M238.206 521.442V531.039M238.206 521.442H229.596M238.206 521.442H246.816M467.803 -6.10352e-05V9.59703M467.803 9.59703V19.1941M467.803 9.59703H459.193M467.803 9.59703H476.413M467.803 255.922V265.519M467.803 265.519V275.117M467.803 265.519H459.193M467.803 265.519H476.413M467.803 511.845V521.442M467.803 521.442V531.039M467.803 521.442H459.193M467.803 521.442H476.413M697.399 -6.10352e-05V9.59703M697.399 9.59703V19.1941M697.399 9.59703H688.789M697.399 9.59703H706.009M697.399 255.922V265.519M697.399 265.519V275.117M697.399 265.519H688.789M697.399 265.519H706.009M697.399 511.845V521.442M697.399 521.442V531.039M697.399 521.442H688.789M697.399 521.442H706.009M926.996 -6.10352e-05V9.59703M926.996 9.59703V19.1941M926.996 9.59703H918.386M926.996 9.59703H935.605M926.996 255.922V265.519M926.996 265.519V275.117M926.996 265.519H918.386M926.996 265.519H935.605M926.996 511.845V521.442M926.996 521.442V531.039M926.996 521.442H918.386M926.996 521.442H935.605M1156.59 -6.10352e-05V9.59703M1156.59 9.59703V19.1941M1156.59 9.59703H1147.98M1156.59 9.59703H1165.2M1156.59 255.922V265.519M1156.59 265.519V275.117M1156.59 265.519H1147.98M1156.59 265.519H1165.2M1156.59 511.845V521.442M1156.59 521.442V531.039M1156.59 521.442H1147.98M1156.59 521.442H1165.2" stroke="url(#paint1_radial_20_65)" stroke-width="1.61099"/>
</g>
<defs>
<radialGradient id="paint0_radial_20_65" cx="0" cy="0" r="1" gradientUnits="userSpaceOnUse" gradientTransform="translate(640 329.5) rotate(90) scale(319.903 631.39)">
<stop stop-color="#ffffff"/>
<stop offset="1" stop-color="white" stop-opacity="0"/>
</radialGradient>
<radialGradient id="paint1_radial_20_65" cx="0" cy="0" r="1" gradientUnits="userSpaceOnUse" gradientTransform="translate(640 329.5) rotate(90) scale(329.5 640)">
<stop stop-color="#ffffff"/>
<stop offset="1" stop-color="white" stop-opacity="0"/>
</radialGradient>
</defs>
</svg>
