<svg width="81" height="80" viewBox="0 0 81 80" fill="none" xmlns="http://www.w3.org/2000/svg">
<g clip-path="url(#clip0_12_92)">
<path d="M17.4171 61C19.3506 61 20.9171 59.4334 20.9171 57.5C20.9171 55.5665 19.3506 54 17.4171 54C15.4836 54 13.9171 55.5665 13.9171 57.5C13.9171 59.4334 15.4836 61 17.4171 61ZM17.4171 56.3332C18.062 56.3332 18.5837 56.8551 18.5837 57.4998C18.5837 58.1447 18.0619 58.6665 17.4171 58.6665C16.7723 58.6665 16.2505 58.1446 16.2505 57.4998C16.2503 56.8551 16.7722 56.3332 17.4171 56.3332Z" fill="#69B4FF"/>
<path d="M26.7503 61C28.6837 61 30.2503 59.4334 30.2503 57.5C30.2503 55.5665 28.6837 54 26.7503 54C24.8168 54 23.2503 55.5665 23.2503 57.5C23.2503 59.4334 24.8168 61 26.7503 61ZM26.7503 56.3332C27.395 56.3332 27.9169 56.8551 27.9169 57.4998C27.9169 58.1447 27.395 58.6665 26.7503 58.6665C26.1054 58.6665 25.5837 58.1446 25.5837 57.4998C25.5837 56.8551 26.1055 56.3332 26.7503 56.3332Z" fill="#69B4FF"/>
<path d="M36.0836 61C38.0171 61 39.5836 59.4334 39.5836 57.5C39.5836 55.5665 38.0171 54 36.0836 54C34.1501 54 32.5836 55.5665 32.5836 57.5C32.5836 59.4334 34.1501 61 36.0836 61ZM36.0836 56.3332C36.7284 56.3332 37.2502 56.8551 37.2502 57.4998C37.2502 58.1447 36.7284 58.6665 36.0836 58.6665C35.4387 58.6665 34.917 58.1446 34.917 57.4998C34.917 56.8551 35.4388 56.3332 36.0836 56.3332Z" fill="#69B4FF"/>
<path d="M45.4169 61C47.3504 61 48.9169 59.4334 48.9169 57.5C48.9169 55.5665 47.3504 54 45.4169 54C43.4835 54 41.917 55.5665 41.917 57.5C41.917 59.4334 43.4835 61 45.4169 61ZM45.4169 56.3332C46.0617 56.3332 46.5836 56.8551 46.5836 57.4998C46.5836 58.1447 46.0617 58.6665 45.4169 58.6665C44.7722 58.6665 44.2503 58.1446 44.2503 57.4998C44.2502 56.8551 44.772 56.3332 45.4169 56.3332Z" fill="#69B4FF"/>
<path d="M54.7501 61C56.6836 61 58.2501 59.4334 58.2501 57.5C58.2501 55.5665 56.6836 54 54.7501 54C52.8167 54 51.2502 55.5665 51.2502 57.5C51.2502 59.4334 52.8167 61 54.7501 61ZM54.7501 56.3332C55.3949 56.3332 55.9167 56.8551 55.9167 57.4998C55.9167 58.1447 55.3949 58.6665 54.7501 58.6665C54.1054 58.6665 53.5835 58.1446 53.5835 57.4998C53.5835 56.8551 54.1054 56.3332 54.7501 56.3332Z" fill="#69B4FF"/>
<path d="M64.0834 61C66.0169 61 67.5834 59.4334 67.5834 57.5C67.5834 55.5665 66.0169 54 64.0834 54C62.15 54 60.5835 55.5665 60.5835 57.5C60.5835 59.4334 62.15 61 64.0834 61ZM64.0834 56.3332C64.7282 56.3332 65.2501 56.8551 65.2501 57.4998C65.2501 58.1447 64.7282 58.6665 64.0834 58.6665C63.4387 58.6665 62.9168 58.1446 62.9168 57.4998C62.9168 56.8551 63.4387 56.3332 64.0834 56.3332Z" fill="#69B4FF"/>
<path d="M74.5834 72.6666H72.25V65.6666H72.9869C74.513 65.6666 75.7496 64.4295 75.7496 62.904V52.096C75.7496 50.7171 74.738 49.577 73.4168 49.3701V45.2267C73.4168 43.821 72.413 42.6498 71.0834 42.3888V11.2139C71.0834 9.71563 69.8681 8.50021 68.3697 8.50021H64.4637C62.9654 8.50021 61.7499 9.7155 61.7499 11.2139V15.5002H47.75V10.8336C47.75 10.1892 47.2278 9.66696 46.5834 9.66696H41.9168V6.16698C41.9168 5.52263 41.3946 5.00037 40.7502 5.00037H15.0837C14.4394 5.00037 13.9171 5.52263 13.9171 6.16698V8.50035H13.1309C11.6326 8.50035 10.4171 9.71563 10.4171 11.2141V42.3889C9.0877 42.65 8.08378 43.8212 8.08378 45.2269V49.3703C6.7624 49.5773 5.75 50.7172 5.75 52.096V62.904C5.75 64.4295 6.98784 65.6666 8.51375 65.6666H9.25039V72.6666H6.91716C6.27281 72.6666 5.75055 73.1889 5.75055 73.8332C5.75055 74.4776 6.27281 74.9998 6.91716 74.9998H10.4171H17.4171H64.0834H71.0834H74.5834C75.2277 74.9998 75.75 74.4776 75.75 73.8332C75.75 73.1889 75.2277 72.6666 74.5834 72.6666ZM64.0834 11.2139C64.0834 11.0042 64.2541 10.8336 64.4638 10.8336H68.3698C68.5796 10.8336 68.7502 11.0042 68.7502 11.2139V42.3334H64.0834V22.5003V16.6669V11.2139ZM35.8887 27.4462C36.2896 26.8427 36.7922 26.3267 37.3668 25.9163C37.3746 25.9108 37.3823 25.9052 37.3901 25.8998C37.4825 25.8344 37.5766 25.7715 37.6725 25.7118C37.6734 25.7114 37.6741 25.7108 37.6749 25.7103C37.8723 25.5875 38.0771 25.4769 38.2881 25.3785C38.299 25.3733 38.3102 25.3685 38.3213 25.3634C38.4127 25.3214 38.5054 25.2819 38.5991 25.2447C38.6162 25.2379 38.6333 25.2311 38.6504 25.2245C38.7474 25.187 38.8454 25.1519 38.9447 25.1196C38.953 25.1169 38.9611 25.1139 38.9695 25.1113C39.1864 25.0417 39.4085 24.9853 39.6342 24.9414C39.6597 24.9364 39.6854 24.9322 39.7111 24.9277C39.7952 24.9125 39.8799 24.8993 39.965 24.8876C39.9987 24.8831 40.0324 24.8787 40.0662 24.8748C40.1478 24.8652 40.2299 24.8578 40.3122 24.8517C40.3446 24.8492 40.3768 24.8462 40.4094 24.8443C40.5223 24.8377 40.6359 24.8336 40.7501 24.8336C40.8642 24.8336 40.9778 24.8377 41.0908 24.8443C41.1233 24.8462 41.1556 24.8492 41.188 24.8517C41.2703 24.8578 41.3524 24.8652 41.4339 24.8748C41.4677 24.8787 41.5015 24.8831 41.5351 24.8876C41.6203 24.8991 41.7049 24.9125 41.789 24.9277C41.8146 24.9323 41.8404 24.9364 41.866 24.9414C42.0918 24.9853 42.3138 25.0417 42.5308 25.1113C42.5392 25.1139 42.5472 25.117 42.5556 25.1196C42.6548 25.1519 42.7528 25.187 42.8499 25.2245C42.867 25.2311 42.8841 25.2379 42.9012 25.2447C42.995 25.2819 43.0877 25.3214 43.1791 25.3634C43.1902 25.3685 43.2013 25.3733 43.2124 25.3785C43.4233 25.4769 43.6281 25.5875 43.8255 25.7103C43.8264 25.7107 43.827 25.7112 43.8279 25.7118C43.9238 25.7715 44.0179 25.8344 44.1103 25.8998C44.1181 25.9052 44.1259 25.9108 44.1336 25.9163C44.7083 26.3267 45.2109 26.8427 45.6118 27.4462C45.6168 27.4538 45.6224 27.4605 45.6275 27.4679C46.2312 28.3865 46.5834 29.4853 46.5834 30.6668C46.5834 33.8889 43.9721 36.5002 40.7501 36.5002C37.528 36.5002 34.9167 33.8889 34.9167 30.6668C34.9167 29.4852 35.269 28.3865 35.8728 27.4678C35.8781 27.4604 35.8837 27.4537 35.8887 27.4462ZM33.7502 21.3335H19.7503V17.8335H33.7502V21.3335ZM19.7503 23.6669H33.7502V26.4591C33.0099 27.688 32.5836 29.1275 32.5836 30.6668C32.5836 35.1774 36.2396 38.8334 40.7502 38.8334C45.2608 38.8334 48.9168 35.1774 48.9168 30.6668C48.9168 29.1275 48.4904 27.688 47.7502 26.4591V23.6669H61.7501V42.3334H19.7503V23.6669ZM61.7501 17.8335V21.3335H47.7502V17.8335H61.7501ZM45.4169 12.0003V16.6669V22.5003V23.9656C45.4109 23.9614 45.4046 23.9575 45.3986 23.9533C45.3335 23.9082 45.2678 23.8643 45.2013 23.8211C45.1725 23.8024 45.1435 23.7839 45.1145 23.7655C45.0472 23.7228 44.9797 23.6807 44.9111 23.6399C44.8918 23.6285 44.8721 23.6177 44.8527 23.6063C44.7003 23.5176 44.5451 23.4334 44.3866 23.3545C44.3772 23.3498 44.3679 23.3448 44.3585 23.34C44.2864 23.3044 44.2134 23.2708 44.1403 23.2373C44.1084 23.2228 44.0767 23.2082 44.0447 23.1941C43.9735 23.1627 43.9018 23.132 43.8295 23.1026C43.7972 23.0895 43.7647 23.0771 43.7323 23.0644C43.4988 22.9726 43.2601 22.8916 43.0166 22.8213C42.9721 22.8084 42.9277 22.7954 42.883 22.7833C42.8177 22.7656 42.7519 22.749 42.6857 22.7328C42.6323 22.7198 42.5785 22.7077 42.5247 22.6956C42.4637 22.6821 42.4027 22.6683 42.3412 22.6561C42.2495 22.6379 42.1572 22.6218 42.0645 22.6068C42.0079 22.5976 41.951 22.5894 41.894 22.5815C41.8105 22.5697 41.7268 22.5588 41.6427 22.5495C41.5961 22.5444 41.5493 22.5402 41.5026 22.5359C41.4188 22.5283 41.3347 22.5219 41.2503 22.5168C41.2093 22.5143 41.1684 22.5115 41.1271 22.5097C41.002 22.504 40.8765 22.5001 40.7503 22.5001C40.6241 22.5001 40.4986 22.504 40.3735 22.5097C40.3324 22.5116 40.2914 22.5143 40.2504 22.5168C40.166 22.522 40.0819 22.5283 39.9981 22.5359C39.9514 22.5402 39.9046 22.5444 39.858 22.5495C39.7739 22.5586 39.6901 22.5697 39.6067 22.5815C39.5497 22.5894 39.4927 22.5976 39.4361 22.6068C39.3435 22.6218 39.2512 22.6379 39.1595 22.6561C39.0978 22.6683 39.037 22.6821 38.9759 22.6956C38.9221 22.7075 38.8684 22.7197 38.815 22.7328C38.7488 22.749 38.683 22.7656 38.6175 22.7833C38.5728 22.7953 38.5285 22.8083 38.4842 22.8211C38.2407 22.8914 38.0019 22.9725 37.7682 23.0642C37.7358 23.0769 37.7033 23.0894 37.671 23.1025C37.5987 23.132 37.5269 23.1627 37.4557 23.1941C37.4239 23.2082 37.3921 23.2227 37.3604 23.2372C37.2871 23.2707 37.214 23.3044 37.1419 23.34C37.1328 23.3445 37.1238 23.3494 37.1146 23.3539C36.9557 23.4331 36.8 23.5176 36.6472 23.6065C36.628 23.6177 36.6085 23.6283 36.5895 23.6397C36.5207 23.6804 36.453 23.7227 36.3856 23.7655C36.3568 23.7838 36.3279 23.8021 36.2992 23.8208C36.2328 23.8642 36.1667 23.9081 36.1017 23.9533C36.0956 23.9574 36.0895 23.9614 36.0835 23.9655V22.5001V16.6669V12.0003H45.4169ZM16.2503 7.3336H39.5836V9.66696H34.917C34.2726 9.66696 33.7504 10.1892 33.7504 10.8336V15.5002H19.7505V11.2139C19.7505 9.71563 18.5352 8.50021 17.0367 8.50021H16.2505L16.2503 7.3336ZM12.7504 11.2139C12.7504 11.0042 12.921 10.8336 13.1307 10.8336H17.0367C17.2465 10.8336 17.4171 11.0042 17.4171 11.2139V16.6669V22.5003V42.3335H12.7504V11.2139ZM10.4171 45.2267C10.4171 44.9179 10.6683 44.6668 10.9771 44.6668H19.7505H61.7502H70.5235C70.8324 44.6668 71.0835 44.9179 71.0835 45.2267V49.3334H10.4171V45.2267ZM8.08337 62.904V52.096C8.08337 51.8595 8.27627 51.6667 8.51389 51.6667H9.25053H72.2502H72.9871C73.2241 51.6667 73.4164 51.8589 73.4164 52.096V62.904C73.4164 63.141 73.2241 63.3333 72.9871 63.3333H71.0834H64.0834H17.4171H10.4171H8.51375C8.27614 63.3333 8.08337 63.1405 8.08337 62.904ZM62.9168 65.6666V72.6666H18.5837V65.6666H62.9168ZM11.5838 72.6666V65.6666H16.2503V72.6666H11.5838ZM65.2501 72.6666V65.6666H69.9167V72.6666H65.2501Z" fill="#69B4FF"/>
<path d="M40.7502 34.1668C42.6837 34.1668 44.2502 32.6003 44.2502 30.6669C44.2502 28.7334 42.6837 27.1669 40.7502 27.1669C38.8167 27.1669 37.2502 28.7334 37.2502 30.6669C37.2502 32.6003 38.8167 34.1668 40.7502 34.1668ZM40.7502 29.5002C41.395 29.5002 41.9168 30.0221 41.9168 30.6669C41.9168 31.3116 41.395 31.8335 40.7502 31.8335C40.1054 31.8335 39.5836 31.3116 39.5836 30.6669C39.5836 30.0221 40.1054 29.5002 40.7502 29.5002Z" fill="#69B4FF"/>
</g>
<defs>
<clipPath id="clip0_12_92">
<rect width="70" height="70" fill="white" transform="translate(5.75 5)"/>
</clipPath>
</defs>
</svg>
