<svg width="1280" height="575" viewBox="0 0 1280 575" fill="none" xmlns="http://www.w3.org/2000/svg">
<g style="mix-blend-mode:overlay">
<path d="M1258.79 5.18735L1248.84 1M1258.79 5.18735H1229.32M1258.79 5.18735L1269.06 9.513M1258.79 5.18735H1279.66M1248.84 1L1252.46 1.00163L1256.04 1.0107L1259.55 1.03619L1262.95 1.0864L1266.19 1.16787L1269.26 1.29051L1272.11 1.46087L1274.75 1.67812L1277.02 1.97853L1279.09 2.32666L1279.66 2.44859V5.18735M1248.84 1H1219.85M1219.85 1H1190.86M1219.85 1L1229.32 5.18735M1190.86 1H1161.87M1190.86 1L1199.86 5.18735M1161.87 1H1132.87M1161.87 1L1170.39 5.18735M1132.87 1H1103.88M1132.87 1L1140.92 5.18735M1103.88 1H1074.89M1103.88 1L1111.46 5.18735M1074.89 1H1045.9M1074.89 1L1081.99 5.18735M1045.9 1H1016.9M1045.9 1L1052.53 5.18735M1016.9 1H987.911M1016.9 1L1023.06 5.18735M987.911 1H958.918M987.911 1L993.593 5.18735M958.918 1H929.926M958.918 1L964.127 5.18735M929.926 1H900.934M929.926 1L934.661 5.18735M900.934 1H871.941M900.934 1L901.986 2.03449L903.581 3.60065L905.195 5.18735M871.941 1H842.948M871.941 1L872.876 2.03449L875.728 5.18735M842.948 1H813.956M842.948 1L846.262 5.18735M813.956 1H784.963M813.956 1L815.01 2.55461L816.078 4.12735L816.436 4.65654L816.797 5.18735M784.963 1H755.97M784.963 1L785.841 2.55461L786.137 3.07639L786.434 3.60065L787.331 5.18735M755.97 1H726.978M755.97 1L757.865 5.18735M726.978 1L727.153 1.516L727.328 2.03449L728.218 4.65654L728.398 5.18735M726.978 1H697.986M697.986 1H668.992M697.986 1L698.932 5.18735M668.992 1H640M668.992 1L669.168 2.55461L669.466 5.18735M640 1H611.008M640 1V5.18735M611.008 1H582.015M611.008 1L610.832 2.55461L610.534 5.18735M582.015 1H553.022M582.015 1L581.068 5.18735M553.022 1L552.847 1.516L552.672 2.03449L551.782 4.65654L551.602 5.18735M553.022 1H524.03M524.03 1H495.037M524.03 1L522.376 4.65654L522.136 5.18735M495.037 1H466.044M495.037 1L494.159 2.55461L493.863 3.07639L493.268 4.12735L492.97 4.65654L492.669 5.18735M466.044 1H437.052M466.044 1L464.99 2.55461L463.922 4.12735L463.564 4.65654L463.203 5.18735M437.052 1H408.06M437.052 1L433.738 5.18735M408.06 1H379.067M408.06 1L407.124 2.03449L404.272 5.18735M379.067 1H350.074M379.067 1L374.805 5.18735M350.074 1H321.082M350.074 1L345.339 5.18735M321.082 1H292.089M321.082 1L315.873 5.18735M292.089 1H263.096M292.089 1L286.407 5.18735M263.096 1H234.104M263.096 1L256.941 5.18735M234.104 1H205.112M234.104 1L227.475 5.18735M205.112 1H176.119M205.112 1L198.009 5.18735M176.119 1H147.126M176.119 1L168.543 5.18735M147.126 1H118.134M147.126 1L139.076 5.18735M118.134 1H89.1407M118.134 1L109.61 5.18735M89.1407 1H60.1483M89.1407 1L80.1449 5.18735M60.1483 1H31.1559M60.1483 1L50.6787 5.18735M31.1559 1L27.5378 1.00163L23.9571 1.0107L20.451 1.03619L17.0548 1.0864L13.8059 1.16787L10.7389 1.29051L7.89042 1.46087L5.24651 1.67812L2.97773 1.97853L0.912178 2.32666L0.344485 2.44862V5.18735M31.1559 1L21.2126 5.18735M80.1449 5.18735H109.61M80.1449 5.18735H50.6787M80.1449 5.18735L70.8492 9.513M109.61 5.18735L100.804 9.513M109.61 5.18735H139.076M198.009 5.18735H227.475M198.009 5.18735H168.543M198.009 5.18735L196.197 6.2556L190.671 9.513M227.475 5.18735L220.626 9.513M227.475 5.18735H256.941M315.873 5.18735H345.339M315.873 5.18735H286.407M315.873 5.18735L314.545 6.2556L313.876 6.79219L310.491 9.513M345.339 5.18735L344.736 5.71983L344.131 6.2556L340.447 9.513M345.339 5.18735H374.805M433.738 5.18735L433.315 5.71983L430.313 9.513M433.738 5.18735H463.203M433.738 5.18735H404.272M463.203 5.18735L462.479 6.2556L462.114 6.79219L461.748 7.33208L460.268 9.513M463.203 5.18735H492.669M551.602 5.18735H581.068M551.602 5.18735H522.136M551.602 5.18735L550.134 9.513M581.068 5.18735L580.947 5.71983L580.827 6.2556L580.705 6.79219L580.337 8.4176L580.09 9.513M581.068 5.18735H610.534M669.466 5.18735H698.932M669.466 5.18735H640M669.466 5.18735L669.955 9.513M698.932 5.18735L699.053 5.71983L699.173 6.2556L699.295 6.79219L699.91 9.513M698.932 5.18735H728.398M787.331 5.18735H816.797M787.331 5.18735H757.865M787.331 5.18735L787.934 6.2556L789.158 8.4176L789.466 8.96407L789.777 9.513M816.797 5.18735L817.521 6.2556L817.886 6.79219L818.252 7.33208L819.732 9.513M816.797 5.18735H846.262M905.195 5.18735H934.661M905.195 5.18735H875.728M905.195 5.18735L906.282 6.2556L906.829 6.79219L909.598 9.513M934.661 5.18735L935.264 5.71983L935.869 6.2556L939.553 9.513M934.661 5.18735H964.127M1023.06 5.18735H1052.53M1023.06 5.18735H993.593M1023.06 5.18735L1024.63 6.2556L1025.42 6.79219L1029.42 9.513M1052.53 5.18735L1059.37 9.513M1052.53 5.18735H1081.99M1140.92 5.18735H1170.39M1140.92 5.18735H1111.46M1140.92 5.18735L1149.24 9.513M1170.39 5.18735L1179.2 9.513M1170.39 5.18735H1199.86M0.241208 44.3452H0.344485M29.8992 44.3452L41.1492 38.8188M29.8992 44.3452L18.2182 50.0831M29.8992 44.3452H63.7937M29.8992 44.3452H0.344485M41.1492 38.8188H7.87976M41.1492 38.8188L51.992 33.4924M41.1492 38.8188H74.4186M7.87976 38.8188L19.3249 33.4924M7.87976 38.8188H0.344485M7.87976 38.8188L0.344485 42.3248M41.0146 23.3977H72.5403M41.0146 23.3977L51.301 18.6103M41.0146 23.3977H9.48956M41.0146 23.3977L30.3623 28.3553M72.5403 23.3977L82.2857 18.6103M72.5403 23.3977L62.449 28.3553M72.5403 23.3977H104.066M51.301 18.6103H82.2857M51.301 18.6103L61.2404 13.9851M51.301 18.6103H20.3171M82.2857 18.6103H113.27M82.2857 18.6103L91.7013 13.9851M0.0199935 131.574H0.344485M27.3693 131.574L41.8761 122.411M27.3693 131.574L12.1415 141.192M27.3693 131.574H71.129M27.3693 131.574H0.344485M41.8761 122.411L55.712 113.673M41.8761 122.411H84.5991M41.8761 122.411H0.344485M13.9771 113.673H55.712M13.9771 113.673L28.1309 105.33M13.9771 113.673H0.344485M13.9771 113.673L0.344485 121.709M41.6582 97.3547H81.5474M41.6582 97.3547L54.6006 89.7256M41.6582 97.3547H1.76905M41.6582 97.3547L28.1309 105.33M81.5474 97.3547L93.6276 89.7256M81.5474 97.3547L68.9216 105.33M81.5474 97.3547H121.437M54.6006 89.7256H93.6276M54.6006 89.7256H15.5743M54.6006 89.7256L66.9953 82.4192M93.6276 89.7256L105.195 82.4192M93.6276 89.7256H132.654M90.2734 68.6966H126.922M90.2734 68.6966L101.218 62.2452M90.2734 68.6966H53.6251M90.2734 68.6966L78.8755 75.4155M126.922 68.6966L137.136 62.2452M126.922 68.6966L116.284 75.4155M126.922 68.6966H163.571M101.218 62.2452H137.136M101.218 62.2452H65.2988M101.218 62.2452L111.735 56.0456M137.136 62.2452L146.952 56.0456M137.136 62.2452H173.055M131.582 44.3452H165.477M131.582 44.3452L140.957 38.8188M131.582 44.3452H97.6881M131.582 44.3452L121.848 50.0831M165.477 44.3452L174.227 38.8188M165.477 44.3452L156.392 50.0831M165.477 44.3452H199.371M140.957 38.8188H174.227M140.957 38.8188H107.688M140.957 38.8188L149.993 33.4924M174.227 38.8188L182.66 33.4924M174.227 38.8188H207.496M167.117 23.3977H198.642M167.117 23.3977L175.238 18.6103M167.117 23.3977H135.592M167.117 23.3977L158.707 28.3553M198.642 23.3977L206.222 18.6103M198.642 23.3977L190.793 28.3553M198.642 23.3977H230.168M175.238 18.6103H206.222M175.238 18.6103L183.085 13.9851M175.238 18.6103H144.254M206.222 18.6103H237.206M206.222 18.6103L213.546 13.9851M22.7637 290.422L43.1808 272.368M22.7637 290.422L0.89952 309.755M22.7637 290.422H84.4872M22.7637 290.422H0.344485M43.1808 272.368L62.2911 255.471M43.1808 272.368H102.863M43.1808 272.368H0.344485M42.7663 224.725H97.0604M42.7663 224.725L60.2136 210.701M42.7663 224.725L24.2363 239.622M42.7663 224.725H0.344485M97.0604 224.725L112.921 210.701M97.0604 224.725L80.2148 239.622M97.0604 224.725H151.354M60.2136 210.701H112.921M60.2136 210.701H7.50596M60.2136 210.701L76.6707 197.471M112.921 210.701L127.882 197.471M112.921 210.701H165.629M106.932 173.145H155.393M106.932 173.145L120.876 161.937M106.932 173.145H58.4712M106.932 173.145L92.219 184.973M155.393 173.145L168.069 161.937M155.393 173.145L142.017 184.973M155.393 173.145H203.854M120.876 161.937H168.069M120.876 161.937H73.6823M120.876 161.937L134.108 151.3M168.069 161.937L180.098 151.3M168.069 161.937H215.261M158.647 131.574H202.407M158.647 131.574L170.046 122.411M158.647 131.574H114.888M158.647 131.574L146.683 141.192M202.407 131.574L212.769 122.411M202.407 131.574L191.53 141.192M202.407 131.574H246.166M170.046 122.411H212.769M170.046 122.411H127.323M170.046 122.411L180.917 113.673M212.769 122.411L222.651 113.673M212.769 122.411H255.492M201.216 97.3547H241.105M201.216 97.3547L210.707 89.7256M201.216 97.3547H161.326M201.216 97.3547L191.296 105.33M241.105 97.3547L249.734 89.7256M241.105 97.3547L232.087 105.33M241.105 97.3547H280.995M210.707 89.7256H249.734M210.707 89.7256H171.681M210.707 89.7256L219.796 82.4192M249.734 89.7256L257.997 82.4192M249.734 89.7256H288.761M236.867 68.6966H273.515M236.867 68.6966L244.893 62.2452M236.867 68.6966H200.219M236.867 68.6966L228.509 75.4155M273.515 68.6966L274.444 67.8761L280.811 62.2452M273.515 68.6966L265.917 75.4155M273.515 68.6966H310.164M244.893 62.2452H280.811M244.893 62.2452H208.974M244.893 62.2452L252.605 56.0456M280.811 62.2452L287.823 56.0456M280.811 62.2452H316.731M267.16 44.3452H301.055M267.16 44.3452L274.036 38.8188M267.16 44.3452H233.266M267.16 44.3452L260.022 50.0831M301.055 44.3452L307.305 38.8188M301.055 44.3452L298.651 46.4718L294.565 50.0831M301.055 44.3452H334.95M274.036 38.8188H307.305M274.036 38.8188H240.766M274.036 38.8188L280.662 33.4924M307.305 38.8188L313.329 33.4924M307.305 38.8188H340.575M293.219 23.3977H324.744M293.219 23.3977L299.174 18.6103M293.219 23.3977H261.694M293.219 23.3977L287.052 28.3553M324.744 23.3977L328.823 19.7921L329.492 19.1996L330.159 18.6103M324.744 23.3977L319.138 28.3553M324.744 23.3977H356.27M299.174 18.6103H330.159M299.174 18.6103L304.928 13.9851M299.174 18.6103H268.19M330.159 18.6103H361.143M330.159 18.6103L335.389 13.9851M45.127 496.081H130.109M45.127 496.081L71.886 462.279M45.127 496.081L15.7229 533.225M45.127 496.081L0.344485 496.081M130.109 496.081L153.046 462.279M130.109 496.081L104.906 533.225M130.109 496.081H215.091M71.886 462.279H153.046M71.886 462.279L96.3415 431.387M71.886 462.279H0.344485M153.046 462.279L174.007 431.387M153.046 462.279H234.205M139.436 376.95H210.946M139.436 376.95L158.519 352.844M139.436 376.95H67.9274M139.436 376.95L118.778 403.045M210.946 376.95L227.302 352.844M210.946 376.95L193.239 403.045M210.946 376.95H282.455M158.519 352.844H227.302M158.519 352.844H89.7363M158.519 352.844L176.201 330.508M227.302 352.844L242.458 330.508M227.302 352.844H296.085M207.935 290.422H269.658M207.935 290.422L222.227 272.368M207.935 290.422H146.211M207.935 290.422L192.63 309.755M269.658 290.422L281.909 272.368M269.658 290.422L256.54 309.755M269.658 290.422H331.382M222.227 272.368H281.909M222.227 272.368H162.544M222.227 272.368L235.604 255.471M281.909 272.368L293.375 255.471M281.909 272.368H341.591M259.942 224.725H314.236M259.942 224.725L271.045 210.701M259.942 224.725H205.649M259.942 224.725L248.15 239.622M314.236 224.725L323.753 210.701M314.236 224.725L304.129 239.622M314.236 224.725H368.53M271.045 210.701H323.753M271.045 210.701H218.337M271.045 210.701L281.518 197.471M323.753 210.701L332.729 197.471M323.753 210.701H376.461M300.775 173.145H349.236M300.775 173.145L309.648 161.937M300.775 173.145H252.314M300.775 173.145L291.412 184.973M349.236 173.145L356.841 161.937M349.236 173.145L341.21 184.973M349.236 173.145H397.697M309.648 161.937H356.841M309.648 161.937H262.455M309.648 161.937L318.069 151.3M356.841 161.937L364.059 151.3M356.841 161.937H404.034M333.685 131.574H377.444M333.685 131.574L340.938 122.411M333.685 131.574H289.925M333.685 131.574L326.071 141.192M377.444 131.574L383.661 122.411M377.444 131.574L370.918 141.192M377.444 131.574H421.203M340.938 122.411H383.661M340.938 122.411H298.215M340.938 122.411L347.856 113.673M383.661 122.411L389.591 113.673M383.661 122.411H426.384M360.774 97.3547H400.664M360.774 97.3547L366.814 89.7256M360.774 97.3547H320.885M360.774 97.3547L354.461 105.33M400.664 97.3547L405.84 89.7256M400.664 97.3547L395.253 105.33M400.664 97.3547H440.553M366.814 89.7256H405.84M366.814 89.7256H327.787M366.814 89.7256L372.598 82.4192M405.84 89.7256L410.798 82.4192M405.84 89.7256H444.867M383.461 68.6966H420.11M383.461 68.6966L388.568 62.2452M383.461 68.6966H346.813M383.461 68.6966L378.142 75.4155M420.11 68.6966L419.549 69.5213L415.55 75.4155M420.11 68.6966L424.487 62.2452M420.11 68.6966H456.758M388.568 62.2452H424.487M388.568 62.2452H352.649M388.568 62.2452L393.476 56.0456M424.487 62.2452L428.694 56.0456M424.487 62.2452H460.406M402.738 44.3452H436.633M402.738 44.3452L407.113 38.8188M402.738 44.3452H368.844M402.738 44.3452L398.196 50.0831M436.633 44.3452L440.383 38.8188M436.633 44.3452L435.19 46.4718L434.217 47.9063L432.74 50.0831M436.633 44.3452H470.527M407.113 38.8188H440.383M407.113 38.8188H373.844M407.113 38.8188L411.33 33.4924M440.383 38.8188L441.754 36.7984L442.658 35.4668L443.998 33.4924M440.383 38.8188H473.652M419.322 23.3977H450.847M419.322 23.3977L422.176 19.7921L423.111 18.6103M419.322 23.3977H387.796M419.322 23.3977L415.895 27.7258L415.397 28.3553M450.847 23.3977L453.294 19.7921L453.695 19.1996L454.095 18.6103M450.847 23.3977L449.179 25.8543L447.483 28.3553M450.847 23.3977H482.372M423.111 18.6103H454.095M423.111 18.6103L426.773 13.9851M423.111 18.6103H392.127M454.095 18.6103H485.079M454.095 18.6103L457.234 13.9851M385.055 496.081H470.036M385.055 496.081L396.522 462.279M385.055 496.081H300.073M385.055 496.081L372.453 533.225M470.036 496.081L477.682 462.279M470.036 496.081L461.635 533.225M470.036 496.081H555.018M396.522 462.279H477.682M396.522 462.279H315.363M396.522 462.279L407.004 431.387M477.682 462.279L484.669 431.387M477.682 462.279H558.841M425.473 376.95H496.982M425.473 376.95L433.651 352.844M425.473 376.95H353.963M425.473 376.95L416.619 403.045M496.982 376.95L502.434 352.844M496.982 376.95L491.08 403.045M496.982 376.95H568.491M433.651 352.844H502.434M433.651 352.844H364.868M433.651 352.844L441.229 330.508M502.434 352.844L507.486 330.508M502.434 352.844H571.217M454.829 290.422H516.553M454.829 290.422L460.954 272.368M454.829 290.422H393.106M454.829 290.422L448.27 309.755M516.553 290.422L520.636 272.368M516.553 290.422L512.18 309.755M516.553 290.422H578.277M460.954 272.368H520.636M460.954 272.368H401.273M460.954 272.368L466.687 255.471M520.636 272.368L524.458 255.471M520.636 272.368H580.318M477.118 224.725H531.412M477.118 224.725L481.877 210.701M477.118 224.725H422.824M477.118 224.725L472.064 239.622M531.412 224.725L534.584 210.701M531.412 224.725L528.043 239.622M531.412 224.725H585.706M481.877 210.701H534.584M481.877 210.701H429.169M481.877 210.701L486.365 197.471M534.584 210.701L537.577 197.471M534.584 210.701H587.292M494.618 173.145H543.079M494.618 173.145L498.42 161.937M494.618 173.145H446.157M494.618 173.145L490.605 184.973M543.079 173.145L545.614 161.937M543.079 173.145L540.404 184.973M543.079 173.145H591.539M498.42 161.937H545.614M498.42 161.937H451.228M498.42 161.937L502.03 151.3M545.614 161.937L548.02 151.3M545.614 161.937H592.807M508.722 131.574H552.481M508.722 131.574L511.83 122.411M508.722 131.574H464.963M508.722 131.574L505.459 141.192M552.481 131.574L554.554 122.411M552.481 131.574L550.306 141.192M552.481 131.574H596.241M511.83 122.411H554.554M511.83 122.411H469.107M511.83 122.411L512.959 119.087L514.795 113.673M554.554 122.411L556.53 113.673M554.554 122.411H597.277M520.332 97.3547H560.221M520.332 97.3547L522.92 89.7256M520.332 97.3547H480.442M520.332 97.3547L518.314 103.303L517.626 105.33M560.221 97.3547L560.877 94.4545L561.947 89.7256M560.221 97.3547L558.417 105.33M560.221 97.3547H600.111M522.92 89.7256L523.236 88.7948L525.399 82.4192M522.92 89.7256H561.947M522.92 89.7256H483.893M561.947 89.7256L562.575 86.9489L562.782 86.0329L562.988 85.1227L563.599 82.4192M561.947 89.7256H600.974M530.055 68.6966H566.703M530.055 68.6966L531.16 65.4384L531.433 64.6343L531.704 63.8336L531.975 63.0377L532.243 62.2452M530.055 68.6966H493.406M530.055 68.6966L527.775 75.4155M566.703 68.6966L567.803 63.8336L567.983 63.0377L568.162 62.2452M566.703 68.6966L565.184 75.4155M566.703 68.6966H603.352M532.243 62.2452H568.162M532.243 62.2452H496.325M532.243 62.2452L533.568 58.3418L533.829 57.5723L534.347 56.0456M568.162 62.2452L569.045 58.3418L569.219 57.5723L569.392 56.8069L569.565 56.0456M568.162 62.2452H604.081M538.317 44.3452H572.211M538.317 44.3452L540.192 38.8188M538.317 44.3452H504.422M538.317 44.3452L537.836 45.7591L537.108 47.9063L536.37 50.0831M572.211 44.3452L572.051 45.0505L571.078 49.3539L570.913 50.0831M572.211 44.3452L573.461 38.8188M572.211 44.3452H606.106M540.192 38.8188H573.461M540.192 38.8188H506.922M540.192 38.8188L541.999 33.4924M573.461 38.8188L573.918 36.7984L574.069 36.1309L574.219 35.4668L574.666 33.4924M573.461 38.8188H606.731M545.424 23.3977H576.949M545.424 23.3977L546.647 19.7921L547.047 18.6103M545.424 23.3977H513.898M545.424 23.3977L544.799 25.2362L544.59 25.8543L544.379 26.4756L543.741 28.3553M576.949 23.3977L577.087 22.7903L577.359 21.5829L577.63 20.3863L578.031 18.6103M576.949 23.3977L576.393 25.8543L576.253 26.4756L575.97 27.7258L575.828 28.3553M576.949 23.3977H608.474M547.047 18.6103H578.031M547.047 18.6103L548.423 14.5546L548.617 13.9851M547.047 18.6103H516.063M578.031 18.6103L578.165 18.0235L578.297 17.4392L578.429 16.8573L578.559 16.278L578.949 14.5546L579.078 13.9851M578.031 18.6103H609.016M724.982 496.081H809.964M724.982 496.081L721.159 462.279M724.982 496.081H640M724.982 496.081L729.183 533.225M809.964 496.081L802.319 462.279M809.964 496.081L818.365 533.225M809.964 496.081H894.945M721.159 462.279H802.319M721.159 462.279H640M721.159 462.279L717.666 431.387M802.319 462.279L795.331 431.387M802.319 462.279H883.478M711.509 376.95H783.018M711.509 376.95L708.783 352.844M711.509 376.95H640M711.509 376.95L714.461 403.045M783.018 376.95L777.566 352.844M783.018 376.95L788.92 403.045M783.018 376.95H854.527M708.783 352.844H777.566M708.783 352.844H640M708.783 352.844L706.257 330.508M777.566 352.844L772.514 330.508M777.566 352.844H846.349M701.723 290.422H763.448M701.723 290.422L699.682 272.368M701.723 290.422H640M701.723 290.422L703.91 309.755M763.448 290.422L759.364 272.368M763.448 290.422L767.82 309.755M763.448 290.422H825.171M699.682 272.368H759.364M699.682 272.368H640M699.682 272.368L697.771 255.471M759.364 272.368L755.542 255.471M759.364 272.368H819.046M694.294 224.725H748.588M694.294 224.725L692.708 210.701M694.294 224.725H640M694.294 224.725L695.978 239.622M748.588 224.725L745.416 210.701M748.588 224.725L751.957 239.622M748.588 224.725H802.882M692.708 210.701H745.416M692.708 210.701H640M692.708 210.701L691.212 197.471M745.416 210.701L742.424 197.471M745.416 210.701H798.124M688.461 173.145H736.921M688.461 173.145L687.193 161.937M688.461 173.145H640M688.461 173.145L689.799 184.973M736.921 173.145L734.387 161.937M736.921 173.145L739.596 184.973M736.921 173.145H785.382M687.193 161.937H734.387M687.193 161.937H640M687.193 161.937L685.99 151.3M734.387 161.937L731.981 151.3M734.387 161.937H781.58M683.759 131.574H727.519M683.759 131.574L682.723 122.411M683.759 131.574H640M683.759 131.574L684.847 141.192M727.519 131.574L725.446 122.411M727.519 131.574L729.694 141.192M727.519 131.574H771.278M682.723 122.411H725.446M682.723 122.411H640M682.723 122.411L681.735 113.673M725.446 122.411L723.47 113.673M725.446 122.411H768.17M679.889 97.3547H719.779M679.889 97.3547L679.026 89.7256M679.889 97.3547H640M679.889 97.3547L680.791 105.33M719.779 97.3547L718.265 90.6614L718.053 89.7256M719.779 97.3547L721.583 105.33M719.779 97.3547H759.668M679.026 89.7256L678.922 88.7948L678.2 82.4192M679.026 89.7256H718.053M679.026 89.7256H640M718.053 89.7256L717.425 86.9489L717.218 86.0329L717.012 85.1227L716.401 82.4192M718.053 89.7256H757.08M676.648 68.6966H713.297M676.648 68.6966L675.919 62.2452M676.648 68.6966H640M676.648 68.6966L676.93 71.1837L677.025 72.0215L677.119 72.8634L677.311 74.5604L677.409 75.4155M713.297 68.6966L712.197 63.8336L711.837 62.2452M713.297 68.6966L714.816 75.4155M713.297 68.6966H749.945M675.919 62.2452H711.837M675.919 62.2452H640M675.919 62.2452L675.218 56.0456M711.837 62.2452L710.955 58.3418L710.781 57.5723L710.608 56.8069L710.435 56.0456M711.837 62.2452H747.757M673.894 44.3452H707.789M673.894 44.3452L673.269 38.8188M673.894 44.3452H640M673.894 44.3452L674.543 50.0831M707.789 44.3452L707.949 45.0505L708.922 49.3539L709.087 50.0831M707.789 44.3452L706.539 38.8188M707.789 44.3452H741.683M673.269 38.8188H706.539M673.269 38.8188H640M673.269 38.8188L672.667 33.4924M706.539 38.8188L706.082 36.7984L705.931 36.1309L705.781 35.4668L705.334 33.4924M706.539 38.8188H739.808M671.526 23.3977H703.051M671.526 23.3977L670.984 18.6103M671.526 23.3977H640M671.526 23.3977L672.086 28.3553M703.051 23.3977L702.913 22.7903L702.64 21.5829L702.505 20.983L702.235 19.7921L702.102 19.1996L701.968 18.6103M703.051 23.3977L703.607 25.8543L703.747 26.4756L704.03 27.7258L704.172 28.3553M703.051 23.3977H734.576M670.984 18.6103L670.918 18.0235L670.851 17.4392L670.786 16.8573L670.461 13.9851M670.984 18.6103H701.968M670.984 18.6103H640M701.968 18.6103H732.953M701.968 18.6103L701.703 17.4392L701.572 16.8573L701.441 16.278L701.051 14.5546L700.922 13.9851M1064.91 496.081H1149.89M1064.91 496.081L1045.8 462.279M1064.91 496.081H979.928M1064.91 496.081L1085.91 533.225M1149.89 496.081L1126.95 462.279M1149.89 496.081L1175.09 533.225M1149.89 496.081H1234.87M1045.8 462.279H1126.95M1045.8 462.279H964.637M1045.8 462.279L1028.33 431.387M1126.95 462.279L1105.99 431.387M1126.95 462.279H1208.11M997.546 376.95H1069.05M997.546 376.95L983.915 352.844M997.546 376.95H926.037M997.546 376.95L1012.3 403.045M1069.05 376.95L1052.7 352.844M1069.05 376.95L1086.76 403.045M1069.05 376.95H1140.56M983.915 352.844H1052.7M983.915 352.844H915.132M983.915 352.844L971.285 330.508M1052.7 352.844L1037.54 330.508M1052.7 352.844H1121.48M948.618 290.422H1010.34M948.618 290.422L938.409 272.368M948.618 290.422H886.894M948.618 290.422L959.551 309.755M1010.34 290.422L998.092 272.368M1010.34 290.422L1023.46 309.755M1010.34 290.422H1072.07M938.409 272.368H998.092M938.409 272.368H878.727M938.409 272.368L928.854 255.471M998.092 272.368L986.625 255.471M998.092 272.368H1057.77M911.47 224.725H965.764M911.47 224.725L903.539 210.701M911.47 224.725H857.176M911.47 224.725L919.893 239.622M965.764 224.725L956.247 210.701M965.764 224.725L975.871 239.622M965.764 224.725H1020.06M903.539 210.701H956.247M903.539 210.701H850.831M903.539 210.701L896.059 197.471M956.247 210.701L947.271 197.471M956.247 210.701H1008.95M882.304 173.145H930.764M882.304 173.145L875.966 161.937M882.304 173.145H833.843M882.304 173.145L888.991 184.973M930.764 173.145L923.159 161.937M930.764 173.145L938.79 184.973M930.764 173.145H979.225M875.966 161.937H923.159M875.966 161.937H828.772M875.966 161.937L869.951 151.3M923.159 161.937L915.941 151.3M923.159 161.937H970.352M858.797 131.574H902.556M858.797 131.574L853.616 122.411M858.797 131.574H815.037M858.797 131.574L864.235 141.192M902.556 131.574L896.339 122.411M902.556 131.574L909.082 141.192M902.556 131.574H946.315M853.616 122.411H896.339M853.616 122.411H810.893M853.616 122.411L848.674 113.673M896.339 122.411L890.409 113.673M896.339 122.411H939.062M839.447 97.3547L840 98.3325L840.556 99.3151L843.956 105.33M839.447 97.3547H879.336M839.447 97.3547L835.133 89.7256M839.447 97.3547H799.558M879.336 97.3547L874.16 89.7256M879.336 97.3547L884.748 105.33M879.336 97.3547H919.226M835.133 89.7256H874.16M835.133 89.7256H796.107M835.133 89.7256L831.002 82.4192M874.16 89.7256L869.202 82.4192M874.16 89.7256H913.186M823.242 68.6966H859.891M823.242 68.6966L819.594 62.2452M823.242 68.6966H786.594M823.242 68.6966L827.041 75.4155M859.891 68.6966L857.134 64.6343L855.513 62.2452M859.891 68.6966L864.45 75.4155M859.891 68.6966H896.539M819.594 62.2452H855.513M819.594 62.2452H783.675M819.594 62.2452L816.52 56.8069L816.089 56.0456M855.513 62.2452L851.306 56.0456M855.513 62.2452H891.432M809.473 44.3452H843.367M809.473 44.3452L808.681 42.9436L806.348 38.8188M809.473 44.3452H775.578M809.473 44.3452L810.272 45.7591L811.895 48.628L812.717 50.0831M843.367 44.3452L839.617 38.8188M843.367 44.3452L844.81 46.4718L845.783 47.9063L847.26 50.0831M843.367 44.3452H877.262M806.348 38.8188H839.617M806.348 38.8188H773.078M806.348 38.8188L804.078 34.8051L803.335 33.4924M839.617 38.8188L838.246 36.7984L837.342 35.4668L836.002 33.4924M839.617 38.8188H872.887M797.628 23.3977H829.154M797.628 23.3977L795.925 20.3863L794.921 18.6103M797.628 23.3977H766.102M797.628 23.3977L800.431 28.3553M829.154 23.3977L826.706 19.7921L826.305 19.1996L825.905 18.6103M829.154 23.3977L830.821 25.8543L832.517 28.3553M829.154 23.3977H860.679M794.921 18.6103H825.905M794.921 18.6103L793.602 16.278L792.951 15.1266L792.627 14.5546L792.305 13.9851M794.921 18.6103H763.937M825.905 18.6103H856.889M825.905 18.6103L822.766 13.9851M1259.05 352.844H1190.26M1259.05 352.844L1236.31 330.508M1259.05 352.844H1279.66M1259.05 352.844L1279.66 373.092M1195.51 290.422H1257.24M1195.51 290.422L1177.14 272.368M1195.51 290.422H1133.79M1195.51 290.422L1215.19 309.755M1257.24 290.422L1236.82 272.368M1257.24 290.422L1279.1 309.755M1257.24 290.422H1279.66M1177.14 272.368H1236.82M1177.14 272.368H1117.46M1177.14 272.368L1159.94 255.471M1236.82 272.368L1217.71 255.471M1236.82 272.368H1279.66M1128.65 224.725H1182.94M1128.65 224.725L1114.37 210.701M1128.65 224.725H1074.35M1128.65 224.725L1143.81 239.622M1182.94 224.725L1167.08 210.701M1182.94 224.725L1199.79 239.622M1182.94 224.725H1237.23M1114.37 210.701H1167.08M1114.37 210.701H1061.66M1114.37 210.701L1100.91 197.471M1167.08 210.701L1152.12 197.471M1167.08 210.701H1219.79M1076.15 173.145H1124.61M1076.15 173.145L1064.74 161.937M1076.15 173.145H1027.69M1076.15 173.145L1088.18 184.973M1124.61 173.145L1111.93 161.937M1124.61 173.145L1137.98 184.973M1124.61 173.145H1173.07M1064.74 161.937H1111.93M1064.74 161.937H1017.55M1064.74 161.937L1053.91 151.3M1111.93 161.937L1099.9 151.3M1111.93 161.937H1159.12M1033.83 131.574H1077.59M1033.83 131.574L1024.51 122.411M1033.83 131.574H990.075M1033.83 131.574L1043.62 141.192M1077.59 131.574L1067.23 122.411M1077.59 131.574L1088.47 141.192M1077.59 131.574H1121.35M1024.51 122.411H1067.23M1024.51 122.411H981.785M1024.51 122.411L1015.61 113.673M1067.23 122.411L1057.35 113.673M1067.23 122.411H1109.95M999.005 97.3547H1038.89M999.005 97.3547L991.24 89.7256M999.005 97.3547H959.116M999.005 97.3547L1007.12 105.33M1038.89 97.3547L1030.27 89.7256M1038.89 97.3547L1047.91 105.33M1038.89 97.3547H1078.78M991.24 89.7256H1030.27M991.24 89.7256H952.213M991.24 89.7256L983.803 82.4192M1030.27 89.7256L1022 82.4192M1030.27 89.7256H1069.29M969.836 68.6966H1006.48M969.836 68.6966L963.269 62.2452M969.836 68.6966H933.187M969.836 68.6966L976.675 75.4155M1006.48 68.6966L999.189 62.2452M1006.48 68.6966L1014.08 75.4155M1006.48 68.6966H1043.13M963.269 62.2452H999.189M963.269 62.2452H927.351M963.269 62.2452L956.959 56.0456M999.189 62.2452L992.177 56.0456M999.189 62.2452H1035.11M945.05 44.3452H978.945M945.05 44.3452L939.425 38.8188M945.05 44.3452H911.156M945.05 44.3452L946.49 45.7591L947.215 46.4718L950.891 50.0831M978.945 44.3452L972.695 38.8188M978.945 44.3452L985.435 50.0831M978.945 44.3452H1012.84M939.425 38.8188H972.695M939.425 38.8188H906.156M939.425 38.8188L934.004 33.4924M972.695 38.8188L966.671 33.4924M972.695 38.8188H1005.96M923.73 23.3977H955.256M923.73 23.3977L918.857 18.6103M923.73 23.3977H892.204M923.73 23.3977L928.776 28.3553M955.256 23.3977L951.177 19.7921L950.508 19.1996L949.841 18.6103M955.256 23.3977L960.862 28.3553M955.256 23.3977H986.781M918.857 18.6103H949.841M918.857 18.6103L914.729 14.5546L914.149 13.9851M918.857 18.6103H887.873M949.841 18.6103H980.826M949.841 18.6103L944.611 13.9851M1269.99 173.145L1253.51 161.937M1269.99 173.145H1221.53M1269.99 173.145L1279.66 179.72M1269.99 173.145H1279.66M1253.51 161.937H1206.32M1253.51 161.937L1237.87 151.3M1253.51 161.937H1279.66M1208.87 131.574H1252.63M1208.87 131.574L1195.4 122.411M1208.87 131.574H1165.11M1208.87 131.574L1223.01 141.192M1252.63 131.574L1238.12 122.411M1252.63 131.574L1267.86 141.192M1252.63 131.574H1279.66M1195.4 122.411H1238.12M1195.4 122.411H1152.68M1195.4 122.411L1182.55 113.673M1238.12 122.411L1224.29 113.673M1238.12 122.411H1279.66M1158.56 97.3547H1198.45M1158.56 97.3547L1147.35 89.7256M1158.56 97.3547H1118.67M1158.56 97.3547L1170.29 105.33M1198.45 97.3547L1186.37 89.7256M1198.45 97.3547L1211.08 105.33M1198.45 97.3547H1238.34M1147.35 89.7256H1186.37M1147.35 89.7256H1108.32M1147.35 89.7256L1136.6 82.4192M1186.37 89.7256L1174.8 82.4192M1186.37 89.7256H1225.4M1116.43 68.6966H1153.08M1116.43 68.6966L1106.94 62.2452M1116.43 68.6966H1079.78M1116.43 68.6966L1126.31 75.4155M1153.08 68.6966L1142.86 62.2452M1153.08 68.6966L1163.72 75.4155M1153.08 68.6966H1189.73M1106.94 62.2452H1142.86M1106.94 62.2452H1071.03M1106.94 62.2452L1097.83 56.0456M1142.86 62.2452L1133.05 56.0456M1142.86 62.2452H1178.78M1080.63 44.3452H1114.52M1080.63 44.3452L1072.5 38.8188M1080.63 44.3452H1046.73M1080.63 44.3452L1089.06 50.0831M1114.52 44.3452L1105.77 38.8188M1114.52 44.3452L1123.61 50.0831M1114.52 44.3452H1148.42M1072.5 38.8188H1105.77M1072.5 38.8188H1039.23M1072.5 38.8188L1064.67 33.4924M1105.77 38.8188L1097.34 33.4924M1105.77 38.8188H1139.04M1049.83 23.3977H1081.36M1049.83 23.3977L1042.79 18.6103M1049.83 23.3977H1018.31M1049.83 23.3977L1057.12 28.3553M1081.36 23.3977L1073.78 18.6103M1081.36 23.3977L1089.21 28.3553M1081.36 23.3977H1112.88M1042.79 18.6103H1073.78M1042.79 18.6103L1035.99 13.9851M1042.79 18.6103H1011.81M1073.78 18.6103H1104.76M1073.78 18.6103L1066.45 13.9851M1263.02 68.6966L1250.62 62.2452M1263.02 68.6966H1226.37M1263.02 68.6966L1275.94 75.4155M1263.02 68.6966H1279.66M1250.62 62.2452H1214.7M1250.62 62.2452L1238.7 56.0456M1250.62 62.2452H1279.66M1216.21 44.3452H1250.1M1216.21 44.3452L1205.58 38.8188M1216.21 44.3452H1182.31M1216.21 44.3452L1227.24 50.0831M1250.1 44.3452L1238.85 38.8188M1250.1 44.3452L1261.78 50.0831M1250.1 44.3452H1279.66M1205.58 38.8188H1238.85M1205.58 38.8188H1172.31M1205.58 38.8188L1195.34 33.4924M1238.85 38.8188L1228.01 33.4924M1238.85 38.8188H1272.12M1175.93 23.3977H1207.46M1175.93 23.3977L1166.73 18.6103M1175.93 23.3977H1144.41M1175.93 23.3977L1185.46 28.3553M1207.46 23.3977L1197.71 18.6103M1207.46 23.3977L1217.55 28.3553M1207.46 23.3977H1238.99M1166.73 18.6103H1197.71M1166.73 18.6103L1157.84 13.9851M1166.73 18.6103H1135.75M1197.71 18.6103H1228.7M1197.71 18.6103L1188.3 13.9851M1217.55 28.3553L1228.01 33.4924M1217.55 28.3553H1249.64M1217.55 28.3553H1185.46M1238.99 23.3977L1228.7 18.6103M1238.99 23.3977L1249.64 28.3553M1238.99 23.3977H1270.51M1228.7 18.6103H1259.68M1228.7 18.6103L1218.76 13.9851M1188.3 13.9851H1157.84M1188.3 13.9851H1218.76M1188.3 13.9851L1179.2 9.513M1249.64 28.3553L1260.68 33.4924M1249.64 28.3553H1279.66M1270.51 23.3977L1259.68 18.6103M1270.51 23.3977L1279.66 27.4406M1270.51 23.3977H1279.66M1259.68 18.6103L1249.22 13.9851M1259.68 18.6103H1279.66M1218.76 13.9851H1249.22M1218.76 13.9851L1209.15 9.513M1249.22 13.9851L1239.11 9.513M1249.22 13.9851H1279.66M1228.01 33.4924H1260.68M1228.01 33.4924H1195.34M1272.12 38.8188L1260.68 33.4924M1272.12 38.8188L1279.66 42.3248M1272.12 38.8188H1279.66M1260.68 33.4924H1279.66M1195.34 33.4924H1162.67M1195.34 33.4924L1185.46 28.3553M1185.46 28.3553H1153.38M1261.78 50.0831L1273.92 56.0456M1261.78 50.0831H1227.24M1261.78 50.0831H1279.66M1279.76 44.3452H1279.66M1273.92 56.0456H1238.7M1273.92 56.0456L1279.66 58.8635M1273.92 56.0456H1279.66M1238.7 56.0456H1203.48M1238.7 56.0456L1227.24 50.0831M1227.24 50.0831H1192.7M1089.21 28.3553L1097.34 33.4924M1089.21 28.3553H1121.29M1089.21 28.3553H1057.12M1112.88 23.3977L1104.76 18.6103M1112.88 23.3977L1121.29 28.3553M1112.88 23.3977H1144.41M1104.76 18.6103H1135.75M1104.76 18.6103L1096.92 13.9851M1066.45 13.9851H1096.92M1066.45 13.9851L1059.37 9.513M1066.45 13.9851H1035.99M1121.29 28.3553L1130.01 33.4924M1121.29 28.3553H1153.38M1144.41 23.3977L1135.75 18.6103M1144.41 23.3977L1153.38 28.3553M1135.75 18.6103L1127.38 13.9851M1096.92 13.9851H1127.38M1096.92 13.9851L1089.33 9.513M1153.38 28.3553L1162.67 33.4924M1157.84 13.9851H1127.38M1157.84 13.9851L1149.24 9.513M1127.38 13.9851L1119.28 9.513M1097.34 33.4924H1130.01M1097.34 33.4924H1064.67M1139.04 38.8188L1130.01 33.4924M1139.04 38.8188L1148.42 44.3452M1139.04 38.8188H1172.31M1130.01 33.4924H1162.67M1064.67 33.4924H1032.01M1064.67 33.4924L1057.12 28.3553M1162.67 33.4924L1172.31 38.8188M1057.12 28.3553H1025.03M1148.42 44.3452L1158.15 50.0831M1148.42 44.3452H1182.31M1172.31 38.8188L1182.31 44.3452M1182.31 44.3452L1192.7 50.0831M1123.61 50.0831L1133.05 56.0456M1123.61 50.0831H1158.15M1123.61 50.0831H1089.06M1158.15 50.0831L1168.27 56.0456M1158.15 50.0831H1192.7M1192.7 50.0831L1203.48 56.0456M1133.05 56.0456H1168.27M1133.05 56.0456H1097.83M1178.78 62.2452L1168.27 56.0456M1178.78 62.2452L1189.73 68.6966M1178.78 62.2452H1214.7M1168.27 56.0456H1203.48M1097.83 56.0456H1062.61M1097.83 56.0456L1089.06 50.0831M1203.48 56.0456L1214.7 62.2452M1089.06 50.0831H1054.52M1189.73 68.6966L1201.12 75.4155M1189.73 68.6966H1226.37M1214.7 62.2452L1226.37 68.6966M1226.37 68.6966L1238.53 75.4155M1163.72 75.4155L1174.8 82.4192M1163.72 75.4155H1201.12M1163.72 75.4155H1126.31M1201.12 75.4155L1213 82.4192M1201.12 75.4155H1238.53M1238.53 75.4155L1251.2 82.4192M1238.53 75.4155H1275.94M1275.94 75.4155H1279.66M1275.94 75.4155L1279.66 77.3473M1174.8 82.4192H1213M1174.8 82.4192H1136.6M1225.4 89.7256L1213 82.4192M1225.4 89.7256L1238.34 97.3547M1225.4 89.7256H1264.43M1213 82.4192H1251.2M1136.6 82.4192H1098.4M1136.6 82.4192L1126.31 75.4155M1251.2 82.4192L1264.43 89.7256M1251.2 82.4192H1279.66M1126.31 75.4155H1088.9M1238.34 97.3547L1251.87 105.33M1238.34 97.3547H1278.23M1264.43 89.7256L1278.23 97.3547M1264.43 89.7256H1279.66M1279.86 82.4192H1279.66M1278.23 97.3547L1279.66 98.1421M1278.23 97.3547H1279.66M1211.08 105.33L1224.29 113.673M1211.08 105.33H1251.87M1211.08 105.33H1170.29M1251.87 105.33L1266.02 113.673M1251.87 105.33H1279.66M1280 98.3325L1279.66 98.1421M1224.29 113.673H1266.02M1224.29 113.673H1182.55M1266.02 113.673H1279.66M1266.02 113.673L1279.66 121.709M1182.55 113.673H1140.82M1182.55 113.673L1170.29 105.33M1170.29 105.33H1129.5M1267.86 141.192H1223.01M1267.86 141.192L1279.66 148.643M1267.86 141.192H1279.66M1279.98 131.574H1279.66M1223.01 141.192H1178.16M1223.01 141.192L1237.87 151.3M1279.79 148.725L1279.66 148.643M960.862 28.3553L966.671 33.4924M960.862 28.3553H992.948M960.862 28.3553H928.776M986.781 23.3977L980.826 18.6103M986.781 23.3977L992.948 28.3553M986.781 23.3977H1018.31M980.826 18.6103H1011.81M980.826 18.6103L975.072 13.9851M944.611 13.9851H975.072M944.611 13.9851L942.694 12.2906L939.553 9.513M944.611 13.9851H914.149M992.948 28.3553L999.338 33.4924M992.948 28.3553H1025.03M1018.31 23.3977L1011.81 18.6103M1018.31 23.3977L1025.03 28.3553M1011.81 18.6103L1005.53 13.9851M975.072 13.9851H1005.53M975.072 13.9851L969.509 9.513M1025.03 28.3553L1032.01 33.4924M1035.99 13.9851L1029.42 9.513M1035.99 13.9851H1005.53M1005.53 13.9851L1004.76 13.4172L1003.23 12.2906L999.464 9.513M966.671 33.4924H999.338M966.671 33.4924H934.004M1005.96 38.8188L999.338 33.4924M1005.96 38.8188L1012.84 44.3452M1005.96 38.8188H1039.23M999.338 33.4924H1032.01M934.004 33.4924H901.337M934.004 33.4924L928.776 28.3553M1032.01 33.4924L1039.23 38.8188M928.776 28.3553H896.689M1012.84 44.3452L1019.98 50.0831M1012.84 44.3452H1046.73M1039.23 38.8188L1040.16 39.4978L1046.73 44.3452M1046.73 44.3452L1054.52 50.0831M985.435 50.0831L986.263 50.8163L992.177 56.0456M985.435 50.0831H1019.98M985.435 50.0831H950.891M1019.98 50.0831L1027.39 56.0456M1019.98 50.0831H1054.52M1054.52 50.0831L1062.61 56.0456M992.177 56.0456H1027.39M992.177 56.0456H956.959M1035.11 62.2452L1027.39 56.0456M1035.11 62.2452L1043.13 68.6966M1035.11 62.2452H1071.03M1027.39 56.0456H1062.61M956.959 56.0456H921.742M956.959 56.0456L950.891 50.0831M1062.61 56.0456L1071.03 62.2452M950.891 50.0831H916.348M1043.13 68.6966L1051.49 75.4155M1043.13 68.6966H1079.78M1071.03 62.2452L1079.78 68.6966M1079.78 68.6966L1088.9 75.4155M1014.08 75.4155L1022 82.4192M1014.08 75.4155H1051.49M1014.08 75.4155H976.675M1051.49 75.4155L1060.2 82.4192M1051.49 75.4155H1088.9M1088.9 75.4155L1098.4 82.4192M1022 82.4192H1060.2M1022 82.4192H983.803M1069.29 89.7256L1060.2 82.4192M1069.29 89.7256L1078.78 97.3547M1069.29 89.7256H1108.32M1060.2 82.4192H1098.4M983.803 82.4192H945.603M983.803 82.4192L976.675 75.4155M1098.4 82.4192L1108.32 89.7256M976.675 75.4155H939.266M1078.78 97.3547L1088.7 105.33M1078.78 97.3547H1118.67M1108.32 89.7256L1118.67 97.3547M1118.67 97.3547L1129.5 105.33M1047.91 105.33L1057.35 113.673M1047.91 105.33H1088.7M1047.91 105.33H1007.12M1088.7 105.33L1099.08 113.673M1088.7 105.33H1129.5M1129.5 105.33L1140.82 113.673M1057.35 113.673H1099.08M1057.35 113.673H1015.61M1109.95 122.411L1099.08 113.673M1109.95 122.411L1121.35 131.574M1109.95 122.411H1152.68M1099.08 113.673H1140.82M1015.61 113.673H973.879M1015.61 113.673L1007.12 105.33M1140.82 113.673L1152.68 122.411M1007.12 105.33H966.33M1121.35 131.574L1133.32 141.192M1121.35 131.574H1165.11M1152.68 122.411L1165.11 131.574M1165.11 131.574L1178.16 141.192M1088.47 141.192L1099.9 151.3M1088.47 141.192H1133.32M1088.47 141.192H1043.62M1133.32 141.192L1145.89 151.3M1133.32 141.192H1178.16M1178.16 141.192L1191.88 151.3M1099.9 151.3H1145.89M1099.9 151.3H1053.91M1159.12 161.937L1145.89 151.3M1159.12 161.937L1173.07 173.145M1159.12 161.937H1206.32M1145.89 151.3H1191.88M1053.91 151.3H1007.92M1053.91 151.3L1043.62 141.192M1191.88 151.3L1206.32 161.937M1191.88 151.3H1237.87M1043.62 141.192H998.776M1173.07 173.145L1187.78 184.973M1173.07 173.145H1221.53M1206.32 161.937L1221.53 173.145M1237.87 151.3H1279.66M1221.53 173.145L1237.58 184.973M1137.98 184.973L1152.12 197.471M1137.98 184.973H1187.78M1137.98 184.973H1088.18M1187.78 184.973L1203.33 197.471M1187.78 184.973H1237.58M1237.58 184.973L1254.54 197.471M1237.58 184.973H1279.66M1152.12 197.471H1203.33M1152.12 197.471H1100.91M1219.79 210.701L1203.33 197.471M1219.79 210.701L1237.23 224.725M1219.79 210.701H1272.49M1203.33 197.471H1254.54M1100.91 197.471H1049.69M1100.91 197.471L1088.18 184.973M1254.54 197.471L1272.49 210.701M1254.54 197.471H1279.66M1088.18 184.973H1038.39M1237.23 224.725L1255.76 239.622M1237.23 224.725H1279.66M1272.49 210.701H1279.66M1272.49 210.701L1279.66 215.978M1199.79 239.622L1217.71 255.471M1199.79 239.622H1255.76M1199.79 239.622H1143.81M1255.76 239.622L1275.48 255.471M1255.76 239.622H1279.66M1217.71 255.471H1275.48M1217.71 255.471H1159.94M1275.48 255.471L1279.66 258.827M1275.48 255.471H1279.66M1159.94 255.471H1102.17M1159.94 255.471L1143.81 239.622M1143.81 239.622H1087.83M1279.1 309.755H1215.19M1279.1 309.755H1279.66M1279.1 309.755L1279.66 310.246M1215.19 309.755H1151.28M1215.19 309.755L1236.31 330.508M832.517 28.3553L833.81 30.2597L834.244 30.9008L836.002 33.4924M832.517 28.3553H864.603M832.517 28.3553H800.431M860.679 23.3977L857.824 19.7921L856.889 18.6103M860.679 23.3977L864.105 27.7258L864.603 28.3553M860.679 23.3977H892.204M856.889 18.6103H887.873M856.889 18.6103L853.227 13.9851M822.766 13.9851H853.227M822.766 13.9851L821.616 12.2906L819.732 9.513M822.766 13.9851H792.305M864.603 28.3553L865.607 29.6219L868.67 33.4924M864.603 28.3553H896.689M892.204 23.3977L887.873 18.6103M892.204 23.3977L896.689 28.3553M887.873 18.6103L884.721 15.1266L883.688 13.9851M853.227 13.9851H883.688M853.227 13.9851L849.687 9.513M896.689 28.3553L901.337 33.4924M914.149 13.9851L913.572 13.4172L909.598 9.513M914.149 13.9851H883.688M883.688 13.9851L882.155 12.2906L879.642 9.513M836.002 33.4924H868.67M836.002 33.4924H803.335M872.887 38.8188L868.67 33.4924M872.887 38.8188L877.262 44.3452M872.887 38.8188H906.156M868.67 33.4924H901.337M803.335 33.4924H770.668M803.335 33.4924L800.431 28.3553M901.337 33.4924L906.156 38.8188M800.431 28.3553H768.345M877.262 44.3452L880.08 47.9063L880.652 48.628L881.804 50.0831M877.262 44.3452H911.156M906.156 38.8188L911.156 44.3452M911.156 44.3452L916.348 50.0831M847.26 50.0831L851.306 56.0456M847.26 50.0831H881.804M847.26 50.0831H812.717M881.804 50.0831L886.524 56.0456M881.804 50.0831H916.348M916.348 50.0831L921.742 56.0456M851.306 56.0456H886.524M851.306 56.0456H816.089M891.432 62.2452L888.342 58.3418L887.733 57.5723L886.524 56.0456M891.432 62.2452L896.539 68.6966M891.432 62.2452H927.351M886.524 56.0456H921.742M816.089 56.0456H780.871M816.089 56.0456L812.717 50.0831M921.742 56.0456L927.351 62.2452M812.717 50.0831H778.174M896.539 68.6966L901.858 75.4155M896.539 68.6966H933.187M927.351 62.2452L933.187 68.6966M933.187 68.6966L939.266 75.4155M864.45 75.4155L866.801 78.8803L867.396 79.7584L869.202 82.4192M864.45 75.4155H901.858M864.45 75.4155H827.041M901.858 75.4155L907.402 82.4192M901.858 75.4155H939.266M939.266 75.4155L945.603 82.4192M869.202 82.4192H907.402M869.202 82.4192H831.002M913.186 89.7256L907.402 82.4192M913.186 89.7256L919.226 97.3547M913.186 89.7256H952.213M907.402 82.4192H945.603M831.002 82.4192H792.801M831.002 82.4192L829.996 80.6407L827.041 75.4155M945.603 82.4192L952.213 89.7256M827.041 75.4155H789.633M919.226 97.3547L925.539 105.33M919.226 97.3547H959.116M952.213 89.7256L959.116 97.3547M959.116 97.3547L966.33 105.33M884.748 105.33L890.409 113.673M884.748 105.33H925.539M884.748 105.33H843.956M925.539 105.33L932.144 113.673M925.539 105.33H966.33M966.33 105.33L973.879 113.673M890.409 113.673H932.144M890.409 113.673H848.674M939.062 122.411L932.144 113.673M939.062 122.411L946.315 131.574M939.062 122.411H981.785M932.144 113.673H973.879M848.674 113.673H806.939M848.674 113.673L843.956 105.33M973.879 113.673L981.785 122.411M843.956 105.33H803.165M946.315 131.574L953.929 141.192M946.315 131.574H990.075M981.785 122.411L990.075 131.574M990.075 131.574L998.776 141.192M909.082 141.192L915.941 151.3M909.082 141.192H953.929M909.082 141.192H864.235M953.929 141.192L961.931 151.3M953.929 141.192H998.776M998.776 141.192L1007.92 151.3M915.941 151.3H961.931M915.941 151.3H869.951M970.352 161.937L961.931 151.3M970.352 161.937L979.225 173.145M970.352 161.937H1017.55M961.931 151.3H1007.92M869.951 151.3H823.961M869.951 151.3L864.235 141.192M1007.92 151.3L1017.55 161.937M864.235 141.192H819.388M979.225 173.145L988.588 184.973M979.225 173.145H1027.69M1017.55 161.937L1027.69 173.145M1027.69 173.145L1038.39 184.973M938.79 184.973L947.271 197.471M938.79 184.973H988.588M938.79 184.973H888.991M988.588 184.973L998.482 197.471M988.588 184.973H1038.39M1038.39 184.973L1049.69 197.471M947.271 197.471H998.482M947.271 197.471H896.059M1008.95 210.701L998.482 197.471M1008.95 210.701L1020.06 224.725M1008.95 210.701H1061.66M998.482 197.471H1049.69M896.059 197.471H844.847M896.059 197.471L888.991 184.973M1049.69 197.471L1061.66 210.701M888.991 184.973H839.193M1020.06 224.725L1031.85 239.622M1020.06 224.725H1074.35M1061.66 210.701L1074.35 224.725M1074.35 224.725L1087.83 239.622M975.871 239.622L986.625 255.471M975.871 239.622H1031.85M975.871 239.622H919.893M1031.85 239.622L1044.4 255.471M1031.85 239.622H1087.83M1087.83 239.622L1102.17 255.471M986.625 255.471H1044.4M986.625 255.471H928.854M1057.77 272.368L1044.4 255.471M1057.77 272.368L1072.07 290.422M1057.77 272.368H1117.46M1044.4 255.471H1102.17M928.854 255.471H871.084M928.854 255.471L919.893 239.622M1102.17 255.471L1117.46 272.368M919.893 239.622H863.914M1072.07 290.422L1087.37 309.755M1072.07 290.422H1133.79M1117.46 272.368L1133.79 290.422M1133.79 290.422L1151.28 309.755M1023.46 309.755L1037.54 330.508M1023.46 309.755H1087.37M1023.46 309.755H959.551M1087.37 309.755L1103.8 330.508M1087.37 309.755H1151.28M1151.28 309.755L1170.06 330.508M1037.54 330.508H1103.8M1037.54 330.508H971.285M1121.48 352.844L1103.8 330.508M1121.48 352.844L1140.56 376.95M1121.48 352.844H1190.26M1103.8 330.508H1170.06M971.285 330.508H905.028M971.285 330.508L959.551 309.755M1170.06 330.508L1190.26 352.844M1170.06 330.508H1236.31M959.551 309.755H895.64M1140.56 376.95L1161.22 403.045M1140.56 376.95H1212.07M1190.26 352.844L1212.07 376.95M1236.31 330.508H1279.66M1212.07 376.95L1235.68 403.045M1212.07 376.95H1279.66M1086.76 403.045L1105.99 431.387M1086.76 403.045H1161.22M1086.76 403.045H1012.3M1161.22 403.045L1183.66 431.387M1161.22 403.045H1235.68M1235.68 403.045L1261.32 431.387M1235.68 403.045H1279.66M1105.99 431.387H1183.66M1105.99 431.387H1028.33M1208.11 462.279L1183.66 431.387M1208.11 462.279L1234.87 496.081M1208.11 462.279H1279.66M1183.66 431.387H1261.32M1028.33 431.387H950.662M1028.33 431.387L1012.3 403.045M1261.32 431.387H1279.66M1261.32 431.387L1279.66 451.649M1012.3 403.045H937.841M1234.87 496.081L1264.28 533.225M1234.87 496.081H1279.66M1175.09 533.225L1202.92 574.232M1175.09 533.225H1264.28M1175.09 533.225H1085.91M1264.28 533.225L1279.66 552.651M1264.28 533.225H1279.66M1202.92 574.232H1109.1M1202.92 574.232L1279.66 574.231M1109.1 574.232H1015.28M1109.1 574.232L1085.91 533.225M1085.91 533.225H996.73M704.172 28.3553L704.315 28.9874L704.459 29.6219L704.603 30.2597L704.748 30.9008L705.187 32.8398L705.334 33.4924M704.172 28.3553H736.259M704.172 28.3553H672.086M734.576 23.3977L733.353 19.7921L732.953 18.6103M734.576 23.3977L735.621 26.4756L736.259 28.3553M734.576 23.3977H766.102M732.953 18.6103H763.937M732.953 18.6103L731.771 15.1266L731.383 13.9851M700.922 13.9851L700.794 13.4172L700.286 11.1721L699.91 9.513M700.922 13.9851H731.383M700.922 13.9851H670.461M736.259 28.3553L736.473 28.9874L736.689 29.6219L736.905 30.2597L737.122 30.9008L738.001 33.4924M736.259 28.3553H768.345M766.102 23.3977L764.471 19.7921L763.937 18.6103M766.102 23.3977L768.345 28.3553M763.937 18.6103L762.881 16.278L762.102 14.5546L761.844 13.9851M731.383 13.9851L731.191 13.4172L730.808 12.2906L730.429 11.1721L730.241 10.6166L729.866 9.513M731.383 13.9851H761.844M768.345 28.3553L770.08 32.1905L770.668 33.4924M792.305 13.9851L790.401 10.6166L789.777 9.513M792.305 13.9851H761.844M761.844 13.9851L760.071 10.0636L759.821 9.513M705.334 33.4924H738.001M705.334 33.4924H672.667M739.808 38.8188L738.001 33.4924M739.808 38.8188L741.683 44.3452M739.808 38.8188H773.078M738.001 33.4924H770.668M672.667 33.4924H640M672.667 33.4924L672.086 28.3553M770.668 33.4924L773.078 38.8188M672.086 28.3553H640M741.683 44.3452L742.164 45.7591L742.892 47.9063L743.63 50.0831M741.683 44.3452H775.578M773.078 38.8188L773.386 39.4978L775.578 44.3452M775.578 44.3452L775.897 45.0505L776.218 45.7591L776.54 46.4718L778.174 50.0831M709.087 50.0831L710.435 56.0456M709.087 50.0831H743.63M709.087 50.0831H674.543M743.63 50.0831L745.653 56.0456M743.63 50.0831H778.174M778.174 50.0831L780.186 54.533L780.528 55.2877L780.871 56.0456M710.435 56.0456H745.653M710.435 56.0456H675.218M747.757 62.2452L748.025 63.0377L748.296 63.8336L748.567 64.6343L749.945 68.6966M747.757 62.2452L746.695 59.1146L746.432 58.3418L746.172 57.5723L745.653 56.0456M747.757 62.2452H783.675M745.653 56.0456H780.871M675.218 56.0456H640M675.218 56.0456L674.543 50.0831M780.871 56.0456L783.675 62.2452M674.543 50.0831H640M749.945 68.6966L751.935 74.5604L752.225 75.4155M749.945 68.6966H786.594M783.675 62.2452L784.394 63.8336L786.594 68.6966M786.594 68.6966L787.719 71.1837L789.633 75.4155M714.816 75.4155L715.601 78.8803L715.799 79.7584L716.401 82.4192M714.816 75.4155H752.225M714.816 75.4155H677.409M752.225 75.4155L754.601 82.4192M752.225 75.4155H789.633M789.633 75.4155L792.801 82.4192M716.401 82.4192H754.601M716.401 82.4192H678.2M757.08 89.7256L754.601 82.4192M757.08 89.7256L759.668 97.3547M757.08 89.7256H796.107M754.601 82.4192H792.801M678.2 82.4192H640M678.2 82.4192L677.999 80.6407L677.603 77.1388L677.409 75.4155M792.801 82.4192L796.107 89.7256M677.409 75.4155H640M759.668 97.3547L761.686 103.303L762.374 105.33M759.668 97.3547H799.558M796.107 89.7256L799.558 97.3547M799.558 97.3547L801.341 101.298L803.165 105.33M721.583 105.33L723.47 113.673M721.583 105.33H762.374M721.583 105.33H680.791M762.374 105.33L765.205 113.673M762.374 105.33H803.165M803.165 105.33L806.939 113.673M723.47 113.673H765.205M723.47 113.673H681.735M768.17 122.411L767.415 120.189L765.205 113.673M768.17 122.411L771.278 131.574M768.17 122.411H810.893M765.205 113.673H806.939M681.735 113.673H640M681.735 113.673L680.791 105.33M806.939 113.673L810.893 122.411M680.791 105.33H640M771.278 131.574L774.541 141.192M771.278 131.574H815.037M810.893 122.411L815.037 131.574M815.037 131.574L819.388 141.192M729.694 141.192L731.981 151.3M729.694 141.192H774.541M729.694 141.192H684.847M774.541 141.192L777.97 151.3M774.541 141.192H819.388M819.388 141.192L823.961 151.3M731.981 151.3H777.97M731.981 151.3H685.99M781.58 161.937L777.97 151.3M781.58 161.937L785.382 173.145M781.58 161.937H828.772M777.97 151.3H823.961M685.99 151.3H640M685.99 151.3L684.986 142.428L684.847 141.192M823.961 151.3L828.772 161.937M684.847 141.192H640M785.382 173.145L789.395 184.973M785.382 173.145H833.843M828.772 161.937L832.55 170.288L833.843 173.145M833.843 173.145L839.193 184.973M739.596 184.973L742.424 197.471M739.596 184.973H789.395M739.596 184.973H689.799M789.395 184.973L793.635 197.471M789.395 184.973H839.193M839.193 184.973L844.847 197.471M742.424 197.471H793.635M742.424 197.471H691.212M798.124 210.701L793.635 197.471M798.124 210.701L802.882 224.725M798.124 210.701H850.831M793.635 197.471H844.847M691.212 197.471H640M691.212 197.471L689.799 184.973M844.847 197.471L850.831 210.701M689.799 184.973H640M802.882 224.725L807.936 239.622M802.882 224.725H857.176M850.831 210.701L857.176 224.725M857.176 224.725L863.914 239.622M751.957 239.622L755.542 255.471M751.957 239.622H807.936M751.957 239.622H695.978M807.936 239.622L813.313 255.471M807.936 239.622H863.914M863.914 239.622L871.084 255.471M755.542 255.471H813.313M755.542 255.471H697.771M819.046 272.368L813.313 255.471M819.046 272.368L825.171 290.422M819.046 272.368H878.727M813.313 255.471H871.084M697.771 255.471H640M697.771 255.471L695.978 239.622M871.084 255.471L878.727 272.368M695.978 239.622H640M825.171 290.422L831.73 309.755M825.171 290.422H886.894M878.727 272.368L886.894 290.422M886.894 290.422L895.64 309.755M767.82 309.755L772.514 330.508M767.82 309.755H831.73M767.82 309.755H703.91M831.73 309.755L838.771 330.508M831.73 309.755H895.64M895.64 309.755L905.028 330.508M772.514 330.508H838.771M772.514 330.508H706.257M846.349 352.844L838.771 330.508M846.349 352.844L854.527 376.95M846.349 352.844H915.132M838.771 330.508H905.028M706.257 330.508H640M706.257 330.508L703.91 309.755M905.028 330.508L915.132 352.844M703.91 309.755H640M854.527 376.95L863.381 403.045M854.527 376.95H926.037M915.132 352.844L926.037 376.95M926.037 376.95L937.841 403.045M788.92 403.045L795.331 431.387M788.92 403.045H863.381M788.92 403.045H714.461M863.381 403.045L872.997 431.387M863.381 403.045H937.841M937.841 403.045L950.662 431.387M795.331 431.387H872.997M795.331 431.387H717.666M883.478 462.279L872.997 431.387M883.478 462.279L894.945 496.081M883.478 462.279H964.637M872.997 431.387H950.662M717.666 431.387H640M717.666 431.387L714.461 403.045M950.662 431.387L964.637 462.279M714.461 403.045H640M894.945 496.081L907.547 533.225M894.945 496.081H979.928M964.637 462.279L979.928 496.081M979.928 496.081L996.73 533.225M818.365 533.225L827.64 574.232M818.365 533.225H907.547M818.365 533.225H729.183M907.547 533.225L921.46 574.232M907.547 533.225H996.73M996.73 533.225L1015.28 574.232M921.46 574.232H827.64M921.46 574.232H1015.28M827.64 574.232H733.82M733.82 574.232H640M733.82 574.232L729.183 533.225M729.183 533.225H640M575.828 28.3553L575.685 28.9874L575.541 29.6219L575.397 30.2597L575.252 30.9008L574.96 32.1905L574.813 32.8398L574.666 33.4924M575.828 28.3553H607.914M575.828 28.3553H543.741M608.474 23.3977L609.016 18.6103M608.474 23.3977L607.914 28.3553M608.474 23.3977H640M609.016 18.6103L609.082 18.0235L609.149 17.4392L609.214 16.8573L609.539 13.9851M609.016 18.6103H640M579.078 13.9851L579.206 13.4172L579.714 11.1721L580.09 9.513M579.078 13.9851H609.539M579.078 13.9851H548.617M607.914 28.3553L607.842 28.9874L607.771 29.6219L607.698 30.2597L607.333 33.4924M607.914 28.3553H640M640 23.3977V18.6103M640 23.3977V28.3553M640 18.6103V13.9851M609.539 13.9851H640M609.539 13.9851L609.73 12.2906L609.794 11.7301L610.045 9.513M640 28.3553V33.4924M670.461 13.9851L670.27 12.2906L670.206 11.7301L670.143 11.1721L670.08 10.6166L670.018 10.0636L669.955 9.513M670.461 13.9851H640M640 13.9851V9.513M574.666 33.4924H607.333M574.666 33.4924H541.999M606.731 38.8188L606.653 39.4978L606.577 40.1809L606.106 44.3452M606.731 38.8188L607.333 33.4924M606.731 38.8188H640M607.333 33.4924H640M541.999 33.4924H509.332M541.999 33.4924L542.44 32.1905L542.66 31.5444L542.878 30.9008L543.096 30.2597L543.311 29.6219L543.527 28.9874L543.741 28.3553M640 33.4924V38.8188M543.741 28.3553H511.655M606.106 44.3452L605.457 50.0831M606.106 44.3452H640M640 38.8188V44.3452M640 44.3452V50.0831M570.913 50.0831L569.565 56.0456M570.913 50.0831H605.457M570.913 50.0831H536.37M605.457 50.0831L604.782 56.0456M605.457 50.0831H640M640 50.0831V56.0456M569.565 56.0456H604.782M569.565 56.0456H534.347M604.081 62.2452L604.782 56.0456M604.081 62.2452L603.352 68.6966M604.081 62.2452H640M604.782 56.0456H640M534.347 56.0456H499.129M534.347 56.0456L536.37 50.0831M640 56.0456V62.2452M536.37 50.0831H501.826M603.352 68.6966L603.071 71.1837L602.785 73.7095L602.592 75.4155M603.352 68.6966H640M640 62.2452V68.6966M640 68.6966V75.4155M565.184 75.4155L564.399 78.8803L564.202 79.7584L563.599 82.4192M565.184 75.4155H602.592M565.184 75.4155H527.775M602.592 75.4155L602.397 77.1388L602.001 80.6407L601.8 82.4192M602.592 75.4155H640M640 75.4155V82.4192M563.599 82.4192H601.8M563.599 82.4192H525.399M600.974 89.7256L601.078 88.7948L601.8 82.4192M600.974 89.7256L600.111 97.3547M600.974 89.7256H640M601.8 82.4192H640M525.399 82.4192H487.199M525.399 82.4192L527.775 75.4155M640 82.4192V89.7256M527.775 75.4155H490.367M600.111 97.3547L599.209 105.33M600.111 97.3547H640M640 89.7256V97.3547M640 97.3547V105.33M558.417 105.33L556.53 113.673M558.417 105.33H599.209M558.417 105.33H517.626M599.209 105.33L598.265 113.673M599.209 105.33H640M640 105.33V113.673M556.53 113.673H598.265M556.53 113.673H514.795M597.277 122.411L598.265 113.673M597.277 122.411L596.241 131.574M597.277 122.411H640M598.265 113.673H640M514.795 113.673H473.061M514.795 113.673L517.626 105.33M640 113.673V122.411M517.626 105.33H476.835M596.241 131.574L595.153 141.192M596.241 131.574H640M640 122.411V131.574M640 131.574V141.192M550.306 141.192L548.02 151.3M550.306 141.192H595.153M550.306 141.192H505.459M595.153 141.192L594.01 151.3M595.153 141.192H640M640 141.192V151.3M548.02 151.3H594.01M548.02 151.3H502.03M592.807 161.937L594.01 151.3M592.807 161.937L591.539 173.145M592.807 161.937H640M594.01 151.3H640M502.03 151.3H456.039M502.03 151.3L505.459 141.192M640 151.3V161.937M505.459 141.192H460.612M591.539 173.145L590.202 184.973M591.539 173.145H640M640 161.937V173.145M640 173.145V184.973M540.404 184.973L537.577 197.471M540.404 184.973H590.202M540.404 184.973H490.605M590.202 184.973L588.788 197.471M590.202 184.973H640M640 184.973V197.471M537.577 197.471H588.788M537.577 197.471H486.365M587.292 210.701L588.788 197.471M587.292 210.701L585.706 224.725M587.292 210.701H640M588.788 197.471H640M486.365 197.471H435.153M486.365 197.471L490.605 184.973M640 197.471V210.701M490.605 184.973H440.807M585.706 224.725L584.022 239.622M585.706 224.725H640M640 210.701V224.725M640 224.725V239.622M528.043 239.622L524.458 255.471M528.043 239.622H584.022M528.043 239.622H472.064M584.022 239.622L582.229 255.471M584.022 239.622H640M640 239.622V255.471M524.458 255.471H582.229M524.458 255.471H466.687M580.318 272.368L582.229 255.471M580.318 272.368L578.277 290.422M580.318 272.368H640M582.229 255.471H640M466.687 255.471H408.916M466.687 255.471L472.064 239.622M640 255.471V272.368M472.064 239.622H416.086M578.277 290.422L576.09 309.755M578.277 290.422H640M640 272.368V290.422M640 290.422V309.755M512.18 309.755L507.486 330.508M512.18 309.755H576.09M512.18 309.755H448.27M576.09 309.755L573.743 330.508M576.09 309.755H640M640 309.755V330.508M507.486 330.508H573.743M507.486 330.508H441.229M571.217 352.844L573.743 330.508M571.217 352.844L568.491 376.95M571.217 352.844H640M573.743 330.508H640M441.229 330.508H374.972M441.229 330.508L448.27 309.755M640 330.508V352.844M448.27 309.755H384.36M568.491 376.95L565.539 403.045M568.491 376.95H640M640 352.844V376.95M640 376.95V403.045M491.08 403.045L484.669 431.387M491.08 403.045H565.539M491.08 403.045H416.619M565.539 403.045L562.335 431.387M565.539 403.045H640M640 403.045V431.387M484.669 431.387H562.335M484.669 431.387H407.004M558.841 462.279L562.335 431.387M558.841 462.279L555.018 496.081M558.841 462.279H640M562.335 431.387H640M407.004 431.387H329.338M407.004 431.387L416.619 403.045M640 431.387V462.279M416.619 403.045H342.159M555.018 496.081L550.817 533.225M555.018 496.081H640M640 462.279V496.081M640 496.081V533.225M461.635 533.225L452.36 574.232M461.635 533.225H550.817M461.635 533.225H372.453M550.817 533.225L546.18 574.232M550.817 533.225H640M640 533.225V574.232M546.18 574.232H452.36M546.18 574.232H640M452.36 574.232H358.54M358.54 574.232H264.72M358.54 574.232L372.453 533.225M372.453 533.225H283.27M447.483 28.3553L445.756 30.9008L443.998 33.4924M447.483 28.3553H479.569M447.483 28.3553H415.397M482.372 23.3977L485.079 18.6103M482.372 23.3977L479.569 28.3553M482.372 23.3977H513.898M485.079 18.6103H516.063M485.079 18.6103L487.049 15.1266L487.695 13.9851M457.234 13.9851H487.695M457.234 13.9851L458.384 12.2906L460.268 9.513M457.234 13.9851H426.773M479.569 28.3553L476.665 33.4924M479.569 28.3553H511.655M513.898 23.3977L516.063 18.6103M513.898 23.3977L511.655 28.3553M516.063 18.6103L517.119 16.278L517.898 14.5546L518.156 13.9851M487.695 13.9851H518.156M487.695 13.9851L489.599 10.6166L490.223 9.513M511.655 28.3553L509.92 32.1905L509.332 33.4924M548.617 13.9851L548.809 13.4172L549.192 12.2906L549.759 10.6166L550.134 9.513M548.617 13.9851H518.156M518.156 13.9851L518.412 13.4172L518.923 12.2906L520.179 9.513M443.998 33.4924H476.665M443.998 33.4924H411.33M473.652 38.8188L474.035 38.1423L474.416 37.4683L475.922 34.8051L476.665 33.4924M473.652 38.8188L471.32 42.9436L470.527 44.3452M473.652 38.8188H506.922M476.665 33.4924H509.332M411.33 33.4924H378.663M411.33 33.4924L414.394 29.6219L415.397 28.3553M509.332 33.4924L506.922 38.8188M415.397 28.3553H383.31M470.527 44.3452L470.129 45.0505L469.728 45.7591L468.514 47.9063L468.105 48.628L467.283 50.0831M470.527 44.3452H504.422M506.922 38.8188L506.615 39.4978L504.422 44.3452M504.422 44.3452L504.103 45.0505L503.782 45.7591L503.46 46.4718L501.826 50.0831M432.74 50.0831L428.694 56.0456M432.74 50.0831H467.283M432.74 50.0831H398.196M467.283 50.0831L463.912 56.0456M467.283 50.0831H501.826M501.826 50.0831L499.129 56.0456M428.694 56.0456H463.912M428.694 56.0456H393.476M460.406 62.2452L463.912 56.0456M460.406 62.2452L456.758 68.6966M460.406 62.2452H496.325M463.912 56.0456H499.129M393.476 56.0456H358.258M393.476 56.0456L398.196 50.0831M499.129 56.0456L496.325 62.2452M398.196 50.0831H363.652M456.758 68.6966L452.959 75.4155M456.758 68.6966H493.406M496.325 62.2452L495.606 63.8336L493.406 68.6966M493.406 68.6966L492.281 71.1837L491.138 73.7095L490.367 75.4155M415.55 75.4155L413.199 78.8803L410.798 82.4192M415.55 75.4155H452.959M415.55 75.4155H378.142M452.959 75.4155L448.998 82.4192M452.959 75.4155H490.367M490.367 75.4155L487.199 82.4192M410.798 82.4192H448.998M410.798 82.4192H372.598M444.867 89.7256L448.998 82.4192M444.867 89.7256L440.553 97.3547M444.867 89.7256H483.893M448.998 82.4192H487.199M372.598 82.4192H334.397M372.598 82.4192L378.142 75.4155M487.199 82.4192L483.893 89.7256M378.142 75.4155H340.734M440.553 97.3547L439.444 99.3151L436.044 105.33M440.553 97.3547H480.442M483.893 89.7256L480.442 97.3547M480.442 97.3547L480 98.3325L478.659 101.298L476.835 105.33M395.253 105.33L389.591 113.673M395.253 105.33H436.044M395.253 105.33H354.461M436.044 105.33L431.326 113.673M436.044 105.33H476.835M476.835 105.33L473.061 113.673M389.591 113.673H431.326M389.591 113.673H347.856M426.384 122.411L429.5 116.902L431.326 113.673M426.384 122.411L421.203 131.574M426.384 122.411H469.107M431.326 113.673H473.061M347.856 113.673H306.121M347.856 113.673L354.461 105.33M473.061 113.673L469.107 122.411M354.461 105.33H313.67M421.203 131.574L415.765 141.192M421.203 131.574H464.963M469.107 122.411L464.963 131.574M464.963 131.574L460.612 141.192M370.918 141.192L364.059 151.3M370.918 141.192H415.765M370.918 141.192H326.071M415.765 141.192L410.049 151.3M415.765 141.192H460.612M460.612 141.192L456.039 151.3M364.059 151.3H410.049M364.059 151.3H318.069M404.034 161.937L410.049 151.3M404.034 161.937L397.697 173.145M404.034 161.937H451.228M410.049 151.3H456.039M318.069 151.3H272.079M318.069 151.3L326.071 141.192M456.039 151.3L451.228 161.937M326.071 141.192H281.224M397.697 173.145L391.009 184.973M397.697 173.145H446.157M451.228 161.937L446.157 173.145M446.157 173.145L440.807 184.973M341.21 184.973L332.729 197.471M341.21 184.973H391.009M341.21 184.973H291.412M391.009 184.973L383.941 197.471M391.009 184.973H440.807M440.807 184.973L435.153 197.471M332.729 197.471H383.941M332.729 197.471H281.518M376.461 210.701L383.941 197.471M376.461 210.701L368.53 224.725M376.461 210.701H429.169M383.941 197.471H435.153M281.518 197.471H230.306M281.518 197.471L291.412 184.973M435.153 197.471L429.169 210.701M291.412 184.973H241.614M368.53 224.725L360.107 239.622M368.53 224.725H422.824M429.169 210.701L422.824 224.725M422.824 224.725L416.086 239.622M304.129 239.622L293.375 255.471M304.129 239.622H360.107M304.129 239.622H248.15M360.107 239.622L351.146 255.471M360.107 239.622H416.086M416.086 239.622L408.916 255.471M293.375 255.471H351.146M293.375 255.471H235.604M341.591 272.368L351.146 255.471M341.591 272.368L331.382 290.422M341.591 272.368H401.273M351.146 255.471H408.916M235.604 255.471H177.833M235.604 255.471L248.15 239.622M408.916 255.471L401.273 272.368M248.15 239.622H192.172M331.382 290.422L320.45 309.755M331.382 290.422H393.106M401.273 272.368L393.106 290.422M393.106 290.422L384.36 309.755M256.54 309.755L242.458 330.508M256.54 309.755H320.45M256.54 309.755H192.63M320.45 309.755L308.715 330.508M320.45 309.755H384.36M384.36 309.755L374.972 330.508M242.458 330.508H308.715M242.458 330.508H176.201M296.085 352.844L308.715 330.508M296.085 352.844L282.455 376.95M296.085 352.844H364.868M308.715 330.508H374.972M176.201 330.508H109.944M176.201 330.508L192.63 309.755M374.972 330.508L364.868 352.844M192.63 309.755H128.719M282.455 376.95L267.699 403.045M282.455 376.95H353.963M364.868 352.844L353.963 376.95M353.963 376.95L342.159 403.045M193.239 403.045L174.007 431.387M193.239 403.045H267.699M193.239 403.045H118.778M267.699 403.045L251.672 431.387M267.699 403.045H342.159M342.159 403.045L329.338 431.387M174.007 431.387H251.672M174.007 431.387H96.3415M234.205 462.279L251.672 431.387M234.205 462.279L215.091 496.081M234.205 462.279H315.363M251.672 431.387H329.338M96.3415 431.387H18.6759M96.3415 431.387L118.778 403.045M329.338 431.387L315.363 462.279M118.778 403.045H44.3181M215.091 496.081L194.088 533.225M215.091 496.081H300.073M315.363 462.279L300.073 496.081M300.073 496.081L283.27 533.225M104.906 533.225L77.0805 574.232M104.906 533.225H194.088M104.906 533.225H15.7229M194.088 533.225L170.901 574.232M194.088 533.225H283.27M283.27 533.225L264.72 574.232M170.901 574.232H77.0805M170.901 574.232H264.72M77.0805 574.232L0.344485 574.231M15.7229 533.225L0.344485 552.651M15.7229 533.225H0.344485M319.138 28.3553L313.329 33.4924M319.138 28.3553H351.224M319.138 28.3553H287.052M356.27 23.3977L361.143 18.6103M356.27 23.3977L351.224 28.3553M356.27 23.3977H387.796M361.143 18.6103H392.127M361.143 18.6103L365.851 13.9851M335.389 13.9851H365.851M335.389 13.9851L337.306 12.2906L340.447 9.513M335.389 13.9851H304.928M351.224 28.3553L345.996 33.4924M351.224 28.3553H383.31M387.796 23.3977L392.127 18.6103M387.796 23.3977L383.31 28.3553M392.127 18.6103L395.279 15.1266L396.312 13.9851M365.851 13.9851L366.428 13.4172L370.403 9.513M365.851 13.9851H396.312M383.31 28.3553L378.663 33.4924M426.773 13.9851L430.313 9.513M426.773 13.9851H396.312M396.312 13.9851L397.845 12.2906L400.358 9.513M313.329 33.4924H345.996M313.329 33.4924H280.662M340.575 38.8188L345.996 33.4924M340.575 38.8188L334.95 44.3452M340.575 38.8188H373.844M345.996 33.4924H378.663M280.662 33.4924H247.994M280.662 33.4924L287.052 28.3553M378.663 33.4924L373.844 38.8188M287.052 28.3553H254.966M334.95 44.3452L333.51 45.7591L329.109 50.0831M334.95 44.3452H368.844M373.844 38.8188L368.844 44.3452M368.844 44.3452L363.652 50.0831M294.565 50.0831L293.737 50.8163L287.823 56.0456M294.565 50.0831H329.109M294.565 50.0831H260.022M329.109 50.0831L323.041 56.0456M329.109 50.0831H363.652M363.652 50.0831L362.99 50.8163L358.258 56.0456M287.823 56.0456H323.041M287.823 56.0456H252.605M316.731 62.2452L323.041 56.0456M316.731 62.2452L310.164 68.6966M316.731 62.2452H352.649M323.041 56.0456H358.258M252.605 56.0456H217.388M252.605 56.0456L260.022 50.0831M358.258 56.0456L352.649 62.2452M260.022 50.0831H225.479M310.164 68.6966L303.325 75.4155M310.164 68.6966H346.813M352.649 62.2452L346.813 68.6966M346.813 68.6966L340.734 75.4155M265.917 75.4155L257.997 82.4192M265.917 75.4155H303.325M265.917 75.4155H228.509M303.325 75.4155L296.197 82.4192M303.325 75.4155H340.734M340.734 75.4155L334.397 82.4192M257.997 82.4192H296.197M257.997 82.4192H219.796M288.761 89.7256L296.197 82.4192M288.761 89.7256L280.995 97.3547M288.761 89.7256H327.787M296.197 82.4192H334.397M219.796 82.4192H181.596M219.796 82.4192L228.509 75.4155M334.397 82.4192L327.787 89.7256M228.509 75.4155H191.1M280.995 97.3547L272.878 105.33M280.995 97.3547H320.885M327.787 89.7256L320.885 97.3547M320.885 97.3547L313.67 105.33M232.087 105.33L222.651 113.673M232.087 105.33H272.878M232.087 105.33H191.296M272.878 105.33L264.386 113.673M272.878 105.33H313.67M313.67 105.33L306.121 113.673M222.651 113.673H264.386M222.651 113.673H180.917M255.492 122.411L264.386 113.673M255.492 122.411L246.166 131.574M255.492 122.411H298.215M264.386 113.673H306.121M180.917 113.673H139.182M180.917 113.673L191.296 105.33M306.121 113.673L298.215 122.411M191.296 105.33H150.504M246.166 131.574L236.377 141.192M246.166 131.574H289.925M298.215 122.411L289.925 131.574M289.925 131.574L281.224 141.192M191.53 141.192L180.098 151.3M191.53 141.192H236.377M191.53 141.192H146.683M236.377 141.192L226.088 151.3M236.377 141.192H281.224M281.224 141.192L272.079 151.3M180.098 151.3H226.088M180.098 151.3H134.108M215.261 161.937L226.088 151.3M215.261 161.937L203.854 173.145M215.261 161.937H262.455M226.088 151.3H272.079M134.108 151.3H88.1179M134.108 151.3L146.683 141.192M272.079 151.3L262.455 161.937M146.683 141.192H101.836M203.854 173.145L191.815 184.973M203.854 173.145H252.314M262.455 161.937L252.314 173.145M252.314 173.145L241.614 184.973M142.017 184.973L127.882 197.471M142.017 184.973H191.815M142.017 184.973H92.219M191.815 184.973L179.094 197.471M191.815 184.973H241.614M241.614 184.973L230.306 197.471M127.882 197.471H179.094M127.882 197.471H76.6707M165.629 210.701L179.094 197.471M165.629 210.701L151.354 224.725M165.629 210.701H218.337M179.094 197.471H230.306M76.6707 197.471H25.459M76.6707 197.471L92.219 184.973M230.306 197.471L218.337 210.701M92.219 184.973H42.4205M151.354 224.725L136.193 239.622M151.354 224.725H205.649M218.337 210.701L205.649 224.725M205.649 224.725L192.172 239.622M80.2148 239.622L62.2911 255.471M80.2148 239.622H136.193M80.2148 239.622H24.2363M136.193 239.622L120.062 255.471M136.193 239.622H192.172M192.172 239.622L177.833 255.471M62.2911 255.471H120.062M62.2911 255.471H4.52024M102.863 272.368L120.062 255.471M102.863 272.368L84.4872 290.422M102.863 272.368H162.544M120.062 255.471H177.833M4.52024 255.471L24.2363 239.622M4.52024 255.471H0.344485M4.52024 255.471L0.344485 258.827M177.833 255.471L162.544 272.368M24.2363 239.622H0.344485M84.4872 290.422L64.8098 309.755M84.4872 290.422H146.211M162.544 272.368L146.211 290.422M146.211 290.422L128.719 309.755M0.89952 309.755H64.8098M0.89952 309.755H0.344485M0.89952 309.755L0.344485 310.246M64.8098 309.755L43.6865 330.508M64.8098 309.755H128.719M128.719 309.755L109.944 330.508M20.9534 352.844L43.6865 330.508M20.9534 352.844H89.7363M20.9534 352.844H0.344485M20.9534 352.844L0.344485 373.092M43.6865 330.508H109.944M43.6865 330.508H0.344485M109.944 330.508L89.7363 352.844M89.7363 352.844L67.9274 376.95M67.9274 376.95L44.3181 403.045M67.9274 376.95H0.344485M44.3181 403.045L18.6759 431.387M44.3181 403.045H0.344485M18.6759 431.387H0.344485M18.6759 431.387L0.344485 451.649M190.793 28.3553L182.66 33.4924M190.793 28.3553H222.88M190.793 28.3553H158.707M230.168 23.3977L237.206 18.6103M230.168 23.3977L222.88 28.3553M230.168 23.3977H261.694M237.206 18.6103H268.19M237.206 18.6103L244.007 13.9851M213.546 13.9851H244.007M213.546 13.9851L220.626 9.513M213.546 13.9851H183.085M222.88 28.3553L215.327 33.4924M222.88 28.3553H254.966M261.694 23.3977L268.19 18.6103M261.694 23.3977L254.966 28.3553M268.19 18.6103L274.468 13.9851M244.007 13.9851L244.84 13.4172L250.581 9.513M244.007 13.9851H274.468M254.966 28.3553L247.994 33.4924M304.928 13.9851L310.491 9.513M304.928 13.9851H274.468M274.468 13.9851L275.237 13.4172L280.536 9.513M182.66 33.4924H215.327M182.66 33.4924H149.993M207.496 38.8188L215.327 33.4924M207.496 38.8188L199.371 44.3452M207.496 38.8188H240.766M215.327 33.4924H247.994M149.993 33.4924H117.326M149.993 33.4924L158.707 28.3553M247.994 33.4924L240.766 38.8188M158.707 28.3553H126.621M199.371 44.3452L190.935 50.0831M199.371 44.3452H233.266M240.766 38.8188L239.844 39.4978L233.266 44.3452M233.266 44.3452L225.479 50.0831M156.392 50.0831L146.952 56.0456M156.392 50.0831H190.935M156.392 50.0831H121.848M190.935 50.0831L182.17 56.0456M190.935 50.0831H225.479M225.479 50.0831L217.388 56.0456M146.952 56.0456H182.17M146.952 56.0456H111.735M173.055 62.2452L182.17 56.0456M173.055 62.2452L163.571 68.6966M173.055 62.2452H208.974M182.17 56.0456H217.388M111.735 56.0456H76.5168M111.735 56.0456L121.848 50.0831M217.388 56.0456L208.974 62.2452M121.848 50.0831H87.305M163.571 68.6966L153.693 75.4155M163.571 68.6966H200.219M208.974 62.2452L200.219 68.6966M200.219 68.6966L191.1 75.4155M116.284 75.4155L105.195 82.4192M116.284 75.4155H153.693M116.284 75.4155H78.8755M153.693 75.4155L143.396 82.4192M153.693 75.4155H191.1M191.1 75.4155L181.596 82.4192M105.195 82.4192H143.396M105.195 82.4192H66.9953M132.654 89.7256L143.396 82.4192M132.654 89.7256L121.437 97.3547M132.654 89.7256H171.681M143.396 82.4192H181.596M66.9953 82.4192H28.7952M66.9953 82.4192L78.8755 75.4155M181.596 82.4192L171.681 89.7256M78.8755 75.4155H41.4677M121.437 97.3547L109.713 105.33M121.437 97.3547H161.326M171.681 89.7256L161.326 97.3547M161.326 97.3547L150.504 105.33M68.9216 105.33L55.712 113.673M68.9216 105.33H109.713M68.9216 105.33H28.1309M109.713 105.33L97.4469 113.673M109.713 105.33H150.504M150.504 105.33L139.182 113.673M55.712 113.673H97.4469M84.5991 122.411L97.4469 113.673M84.5991 122.411L71.129 131.574M84.5991 122.411H127.323M97.4469 113.673H139.182M139.182 113.673L127.323 122.411M28.1309 105.33H0.344485M71.129 131.574L56.9887 141.192M71.129 131.574H114.888M127.323 122.411L114.888 131.574M114.888 131.574L101.836 141.192M12.1415 141.192H56.9887M12.1415 141.192H0.344485M12.1415 141.192L0.344485 148.643M56.9887 141.192L42.1273 151.3M56.9887 141.192H101.836M101.836 141.192L88.1179 151.3M26.4891 161.937L42.1273 151.3M26.4891 161.937L10.0106 173.145M26.4891 161.937H73.6823M26.4891 161.937H0.344485M42.1273 151.3H88.1179M42.1273 151.3H0.344485M88.1179 151.3L73.6823 161.937M0.214555 148.725L0.344485 148.643M10.0106 173.145H58.4712M10.0106 173.145H0.344485M10.0106 173.145L0.344485 179.72M73.6823 161.937L58.4712 173.145M58.4712 173.145L42.4205 184.973M42.4205 184.973L25.459 197.471M42.4205 184.973H0.344485M7.50596 210.701L25.459 197.471M7.50596 210.701H0.344485M7.50596 210.701L0.344485 215.978M25.459 197.471H0.344485M62.449 28.3553L51.992 33.4924M62.449 28.3553H94.5351M62.449 28.3553H30.3623M104.066 23.3977L113.27 18.6103M104.066 23.3977L94.5351 28.3553M104.066 23.3977H135.592M113.27 18.6103H144.254M113.27 18.6103L122.162 13.9851M91.7013 13.9851H122.162M91.7013 13.9851L100.804 9.513M91.7013 13.9851H61.2404M94.5351 28.3553L84.6591 33.4924M94.5351 28.3553H126.621M135.592 23.3977L144.254 18.6103M135.592 23.3977L126.621 28.3553M144.254 18.6103L152.623 13.9851M122.162 13.9851H152.623M122.162 13.9851L130.76 9.513M126.621 28.3553L117.326 33.4924M183.085 13.9851L190.671 9.513M183.085 13.9851H152.623M152.623 13.9851L160.715 9.513M51.992 33.4924H84.6591M51.992 33.4924H19.3249M74.4186 38.8188L84.6591 33.4924M74.4186 38.8188L63.7937 44.3452M74.4186 38.8188H107.688M84.6591 33.4924H117.326M19.3249 33.4924L30.3623 28.3553M19.3249 33.4924H0.344485M117.326 33.4924L107.688 38.8188M30.3623 28.3553H0.344485M63.7937 44.3452L52.7616 50.0831M63.7937 44.3452H97.6881M107.688 38.8188L97.6881 44.3452M97.6881 44.3452L87.305 50.0831M18.2182 50.0831L6.08139 56.0456M18.2182 50.0831H52.7616M18.2182 50.0831H0.344485M52.7616 50.0831L41.2991 56.0456M52.7616 50.0831H87.305M87.305 50.0831L76.5168 56.0456M29.3802 62.2452L41.2991 56.0456M29.3802 62.2452L16.9769 68.6966M29.3802 62.2452H65.2988M29.3802 62.2452H0.344485M41.2991 56.0456H6.08139M41.2991 56.0456H76.5168M6.08139 56.0456L0.344485 58.8635M6.08139 56.0456H0.344485M76.5168 56.0456L65.2988 62.2452M16.9769 68.6966L4.05915 75.4155M16.9769 68.6966H53.6251M16.9769 68.6966H0.344485M65.2988 62.2452L53.6251 68.6966M53.6251 68.6966L41.4677 75.4155M4.05915 75.4155H41.4677M4.05915 75.4155L0.344485 77.3473M4.05915 75.4155H0.344485M41.4677 75.4155L28.7952 82.4192M15.5743 89.7256L28.7952 82.4192M15.5743 89.7256L1.76905 97.3547M15.5743 89.7256H0.344485M28.7952 82.4192H0.344485M0.144591 82.4192H0.344485M1.76905 97.3547H0.344485M1.76905 97.3547L0.344485 98.1421M0 98.3325L0.344485 98.1421M9.48956 23.3977L20.3171 18.6103M9.48956 23.3977H0.344485M9.48956 23.3977L0.344485 27.4406M20.3171 18.6103L30.7794 13.9851M20.3171 18.6103H0.344485M61.2404 13.9851L70.8492 9.513M61.2404 13.9851H30.7794M30.7794 13.9851L40.894 9.513M30.7794 13.9851H0.344485M1059.37 9.513H1089.33M1059.37 9.513H1029.42M1081.99 5.18735L1083.8 6.2556L1089.33 9.513M1081.99 5.18735H1111.46M1089.33 9.513H1119.28M1111.46 5.18735L1113.39 6.2556L1114.36 6.79219L1119.28 9.513M1119.28 9.513H1149.24M1149.24 9.513H1179.2M1029.42 9.513H999.464M1179.2 9.513H1209.15M1209.15 9.513L1199.86 5.18735M1209.15 9.513H1239.11M1199.86 5.18735H1229.32M939.553 9.513H969.509M939.553 9.513H909.598M964.127 5.18735L965.455 6.2556L966.124 6.79219L969.509 9.513M964.127 5.18735H993.593M969.509 9.513H999.464M993.593 5.18735L999.464 9.513M909.598 9.513H879.642M819.732 9.513H849.687M819.732 9.513H789.777M846.262 5.18735L846.685 5.71983L847.108 6.2556L847.534 6.79219L849.687 9.513M846.262 5.18735H875.728M849.687 9.513H879.642M875.728 5.18735L879.642 9.513M789.777 9.513H759.821M699.91 9.513H729.866M699.91 9.513H669.955M728.398 5.18735L729.866 9.513M728.398 5.18735H757.865M729.866 9.513H759.821M757.865 5.18735L758.106 5.71983L758.348 6.2556L758.591 6.79219L759.821 9.513M669.955 9.513H640M580.09 9.513H610.045M580.09 9.513H550.134M610.534 5.18735L610.045 9.513M610.534 5.18735H640M610.045 9.513H640M640 5.18735V9.513M550.134 9.513H520.179M460.268 9.513H490.223M460.268 9.513H430.313M492.669 5.18735L492.066 6.2556L490.842 8.4176L490.223 9.513M492.669 5.18735H522.136M490.223 9.513H520.179M522.136 5.18735L521.894 5.71983L521.652 6.2556L521.409 6.79219L520.179 9.513M430.313 9.513H400.358M340.447 9.513H370.403M340.447 9.513H310.491M374.805 5.18735L373.718 6.2556L373.171 6.79219L370.403 9.513M374.805 5.18735H404.272M370.403 9.513H400.358M404.272 5.18735L403.789 5.71983L400.358 9.513M310.491 9.513H280.536M220.626 9.513H250.581M220.626 9.513H190.671M256.941 5.18735L255.37 6.2556L254.58 6.79219L250.581 9.513M256.941 5.18735H286.407M250.581 9.513H280.536M286.407 5.18735L285.684 5.71983L280.536 9.513M190.671 9.513H160.715M100.804 9.513H130.76M100.804 9.513H70.8492M139.076 5.18735L130.76 9.513M139.076 5.18735H168.543M130.76 9.513H160.715M168.543 5.18735L166.61 6.2556L165.637 6.79219L160.715 9.513M70.8492 9.513H40.894M21.2126 5.18735L10.9388 9.513M21.2126 5.18735H50.6787M21.2126 5.18735H0.344485M10.9388 9.513H40.894M10.9388 9.513L0.344485 13.9742M10.9388 9.513H0.344485M50.6787 5.18735L48.2627 6.2556L40.894 9.513M1229.32 5.18735L1231.74 6.2556L1239.11 9.513M1239.11 9.513H1269.06M1269.06 9.513L1279.66 13.9742M1269.06 9.513H1279.66M1279.66 215.978V210.701M1279.66 215.978V224.725M1279.66 210.701V197.471M1279.66 224.725V227.34V239.622M1279.66 239.622V255.471M1279.66 113.673V105.33M1279.66 113.673V121.709M1279.66 5.18735V9.513M1279.66 9.513V13.9742M1279.66 13.9742L1279.68 13.9851H1279.66M1279.66 13.9742V13.9851M1279.66 13.9851V18.6103M1279.66 18.6103V23.3977M1279.66 23.3977V27.4406M1279.66 27.4406V28.3553M1279.66 28.3553V33.4924M1279.66 33.4924V38.8188M1279.66 38.8188V42.3248M1279.66 42.3248V44.3452M1279.66 44.3452V50.0831M1279.66 50.0831V56.0456M1279.66 56.0456V58.8635M1279.66 58.8635V62.2452M1279.66 62.2452V68.6966M1279.66 68.6966V75.4155M1279.66 75.4155V77.3473M1279.66 77.3473V82.4192M1279.66 82.4192V89.7256M1279.66 89.7256V97.3547M1279.66 97.3547V98.1421M1279.66 98.1421V105.33M1279.66 122.411V131.574M1279.66 122.411V121.709M1279.66 131.574V141.192M1279.66 141.192V148.643M1279.66 148.643V151.3M1279.66 151.3V161.937M1279.66 161.937V173.145M1279.66 173.145V179.72M1279.66 179.72V184.973M1279.66 184.973V197.471M1279.66 255.471V258.827M1279.66 258.827V272.368M1279.66 272.368V290.422M1279.66 290.422V309.755M1279.66 309.755V310.246M1279.66 310.246V330.508M1279.66 330.508V352.844M1279.66 352.844V373.092M1279.66 373.092V376.95M1279.66 376.95V403.045M1279.66 403.045V431.387M1279.66 431.387V451.649M1279.66 451.649V462.279M1279.66 462.279V496.081M1279.66 496.081V533.225M1279.66 533.225V552.651M1279.66 552.651V574.231M1279.66 574.231V574.377H0.344485V574.231M0.344485 122.411V131.574M0.344485 122.411V121.709M0.344485 121.709V113.673M0.344485 113.673V105.33M0.344485 105.33V98.1421M0.344485 98.1421V97.3547M0.344485 97.3547V89.7256M0.344485 89.7256V82.4192M0.344485 82.4192V77.3473M0.344485 77.3473V75.4155M0.344485 75.4155V68.6966M0.344485 68.6966V62.2452M0.344485 62.2452V58.8635M0.344485 58.8635V56.0456M0.344485 56.0456V50.0831M0.344485 50.0831V44.3452M0.344485 44.3452V42.3248M0.344485 42.3248V38.8188M0.344485 38.8188V33.4924M0.344485 33.4924V28.3553M0.344485 28.3553V27.4406M0.344485 27.4406V23.3977M0.344485 23.3977V18.6103M0.344485 18.6103V13.9851M0.344485 13.9851H0.318498L0.344485 13.9742M0.344485 13.9851V13.9742M0.344485 13.9742V9.513M0.344485 9.513V5.18735M0.344485 574.231V552.651M0.344485 552.651V533.225M0.344485 533.225V496.081M0.344485 496.081V462.279M0.344485 462.279V451.649M0.344485 451.649V431.387M0.344485 431.387V403.045M0.344485 403.045V376.95M0.344485 376.95V373.092M0.344485 373.092V352.844M0.344485 352.844V330.508M0.344485 330.508V310.246M0.344485 310.246V309.755M0.344485 309.755V290.422M0.344485 290.422V272.368M0.344485 272.368V258.827M0.344485 258.827V255.471M0.344485 255.471V239.622M0.344485 239.622V224.725M0.344485 224.725V215.978M0.344485 215.978V210.701M0.344485 210.701V197.471M0.344485 197.471V184.973M0.344485 184.973V179.72M0.344485 179.72V173.145M0.344485 173.145V161.937M0.344485 161.937V151.3M0.344485 151.3V148.643M0.344485 148.643V141.192M0.344485 141.192V131.574" stroke="url(#paint0_radial_12_110)" stroke-width="1.2" stroke-miterlimit="10" stroke-linecap="round" stroke-linejoin="round"/>
</g>
<defs>
<radialGradient id="paint0_radial_12_110" cx="0" cy="0" r="1" gradientUnits="userSpaceOnUse" gradientTransform="translate(640 287.689) rotate(90) scale(207.843 462.131)">
<stop offset="0.665789" stop-color="white"/>
<stop offset="1" stop-color="white" stop-opacity="0"/>
</radialGradient>
</defs>
</svg>
