<svg width="98" height="44" viewBox="0 0 98 44" fill="none" xmlns="http://www.w3.org/2000/svg">
<path d="M16.473 43.42C13.553 43.42 10.913 42.92 8.55305 41.92C6.23305 40.92 4.39305 39.48 3.03305 37.6C1.67305 35.72 0.973047 33.5 0.933047 30.94H9.93305C10.053 32.66 10.653 34.02 11.733 35.02C12.853 36.02 14.373 36.52 16.293 36.52C18.253 36.52 19.793 36.06 20.913 35.14C22.033 34.18 22.593 32.94 22.593 31.42C22.593 30.18 22.213 29.16 21.453 28.36C20.693 27.56 19.733 26.94 18.573 26.5C17.453 26.02 15.893 25.5 13.893 24.94C11.173 24.14 8.95305 23.36 7.23305 22.6C5.55305 21.8 4.09305 20.62 2.85305 19.06C1.65305 17.46 1.05305 15.34 1.05305 12.7C1.05305 10.22 1.67305 8.06 2.91305 6.22C4.15305 4.38 5.89305 2.98 8.13305 2.02C10.373 1.02 12.933 0.52 15.813 0.52C20.133 0.52 23.633 1.58 26.313 3.7C29.033 5.78 30.533 8.7 30.813 12.46H21.573C21.493 11.02 20.873 9.84 19.713 8.92C18.593 7.96 17.093 7.48 15.213 7.48C13.573 7.48 12.253 7.9 11.253 8.74C10.293 9.58 9.81305 10.8 9.81305 12.4C9.81305 13.52 10.173 14.46 10.893 15.22C11.653 15.94 12.573 16.54 13.653 17.02C14.773 17.46 16.333 17.98 18.333 18.58C21.053 19.38 23.273 20.18 24.993 20.98C26.713 21.78 28.193 22.98 29.433 24.58C30.673 26.18 31.293 28.28 31.293 30.88C31.293 33.12 30.713 35.2 29.553 37.12C28.393 39.04 26.693 40.58 24.453 41.74C22.213 42.86 19.553 43.42 16.473 43.42ZM50.0355 43.42C47.1155 43.42 44.4755 42.92 42.1155 41.92C39.7955 40.92 37.9555 39.48 36.5955 37.6C35.2355 35.72 34.5355 33.5 34.4955 30.94H43.4955C43.6155 32.66 44.2155 34.02 45.2955 35.02C46.4155 36.02 47.9355 36.52 49.8555 36.52C51.8155 36.52 53.3555 36.06 54.4755 35.14C55.5955 34.18 56.1555 32.94 56.1555 31.42C56.1555 30.18 55.7755 29.16 55.0155 28.36C54.2555 27.56 53.2955 26.94 52.1355 26.5C51.0155 26.02 49.4555 25.5 47.4555 24.94C44.7355 24.14 42.5155 23.36 40.7955 22.6C39.1155 21.8 37.6555 20.62 36.4155 19.06C35.2155 17.46 34.6155 15.34 34.6155 12.7C34.6155 10.22 35.2355 8.06 36.4755 6.22C37.7155 4.38 39.4555 2.98 41.6955 2.02C43.9355 1.02 46.4955 0.52 49.3755 0.52C53.6955 0.52 57.1955 1.58 59.8755 3.7C62.5955 5.78 64.0955 8.7 64.3755 12.46H55.1355C55.0555 11.02 54.4355 9.84 53.2755 8.92C52.1555 7.96 50.6555 7.48 48.7755 7.48C47.1355 7.48 45.8155 7.9 44.8155 8.74C43.8555 9.58 43.3755 10.8 43.3755 12.4C43.3755 13.52 43.7355 14.46 44.4555 15.22C45.2155 15.94 46.1355 16.54 47.2155 17.02C48.3355 17.46 49.8955 17.98 51.8955 18.58C54.6155 19.38 56.8355 20.18 58.5555 20.98C60.2755 21.78 61.7555 22.98 62.9955 24.58C64.2355 26.18 64.8555 28.28 64.8555 30.88C64.8555 33.12 64.2755 35.2 63.1155 37.12C61.9555 39.04 60.2555 40.58 58.0155 41.74C55.7755 42.86 53.1155 43.42 50.0355 43.42ZM97.638 1.12V7.9H86.478V43H78.078V7.9H66.918V1.12H97.638Z" fill="#69B4FF"/>
</svg>
